#N canvas 1 79 673 405 10;
#X obj 30 230 outlet~;
#X obj 32 -4 inlet~;
#N canvas 273 164 490 455 processing 0;
#X obj 7 271 *~;
#N canvas 283 384 348 382 amp-factor 0;
#X obj 19 22 inlet~;
#X obj 84 23 inlet;
#X text 120 23 Ratio;
#X obj 168 26 inlet;
#X text 204 26 Threshold;
#X obj 200 54 loadbang;
#X msg 200 78 100;
#X obj 200 102 sig~;
#X obj 168 102 sig~;
#X obj 168 134 +~;
#X obj 155 161 -~;
#X obj 155 206 /~;
#X obj 155 184 max~ 0;
#X obj 142 262 -~;
#X obj 142 286 dbtorms~;
#X obj 142 311 outlet~;
#X obj 84 179 sig~;
#X obj 97 129 - 1;
#X obj 84 156 /;
#X obj 19 68 rmstodb~;
#X obj 19 45 abs~;
#X text 18 4 Signal;
#X text 189 310 Factor in RMS;
#X obj 89 68 t f f;
#X connect 0 0 20 0;
#X connect 1 0 23 0;
#X connect 3 0 8 0;
#X connect 5 0 6 0;
#X connect 6 0 7 0;
#X connect 7 0 9 1;
#X connect 7 0 13 0;
#X connect 8 0 9 0;
#X connect 9 0 10 1;
#X connect 10 0 12 0;
#X connect 11 0 13 1;
#X connect 12 0 11 0;
#X connect 13 0 14 0;
#X connect 14 0 15 0;
#X connect 16 0 11 1;
#X connect 17 0 18 1;
#X connect 18 0 16 0;
#X connect 19 0 10 0;
#X connect 20 0 19 0;
#X connect 23 0 18 0;
#X connect 23 1 17 0;
#X restore 143 109 pd amp-factor;
#X obj 294 112 /;
#X obj 294 91 57;
#X obj 294 70 t b f;
#X obj 333 112 /;
#X obj 333 91 57;
#X obj 333 70 t b f;
#X obj 7 31 inlet~;
#X obj 7 350 outlet~;
#X obj 179 24 inlet ratio;
#X obj 216 50 inlet threshold;
#X obj 294 25 inlet attack;
#X obj 333 47 inlet release;
#X obj 120 232 inlet gain;
#X obj 120 253 + 100;
#X obj 120 275 dbtorms;
#N canvas 584 247 522 372 att-rel-filtering 0;
#N canvas 385 378 597 426 a-r-det 0;
#X obj 43 51 inlet~;
#X obj 43 200 outlet~;
#X obj 94 200 outlet~;
#X obj 43 145 max~ 0;
#X obj 94 171 -~;
#X obj 94 121 loadbang;
#X msg 94 146 1;
#X obj 105 50 inlet~;
#X obj 43 97 -~;
#X text 7 33 vgl.: "soll" mit "ist";
#X obj 43 121 sgn~;
#X text 33 218 Attack / Release;
#X connect 0 0 8 1;
#X connect 3 0 4 1;
#X connect 3 0 1 0;
#X connect 4 0 2 0;
#X connect 5 0 6 0;
#X connect 6 0 4 0;
#X connect 7 0 8 0;
#X connect 8 0 10 0;
#X connect 10 0 3 0;
#X restore 50 86 pd a-r-det;
#X text 26 99 att;
#X text 111 101 rel;
#X obj 22 195 vcf~;
#X msg 134 162 0.4;
#X obj 50 126 *~;
#X obj 105 128 *~;
#X obj 75 163 +~;
#X obj 134 138 loadbang;
#X obj 22 26 inlet~;
#X text 67 26 amp-factor;
#X obj 164 84 inlet;
#X text 200 85 attack;
#X text 237 104 release;
#X obj 196 106 inlet;
#X obj 22 272 outlet~;
#X obj 290 47 block~ 2;
#X obj 22 239 *~ 0.971042;
#X obj 109 233 tabsend~ \$0-factor;
#X obj 105 62 tabreceive~ \$0-factor;
#X obj 316 124 table \$0-factor 16;
#X connect 0 0 5 0;
#X connect 0 1 6 0;
#X connect 3 0 17 0;
#X connect 3 0 18 0;
#X connect 4 0 3 2;
#X connect 5 0 7 0;
#X connect 6 0 7 1;
#X connect 7 0 3 1;
#X connect 8 0 4 0;
#X connect 9 0 3 0;
#X connect 9 0 0 0;
#X connect 11 0 5 1;
#X connect 14 0 6 1;
#X connect 17 0 15 0;
#X connect 19 0 0 1;
#X restore 143 148 pd att-rel-filtering;
#X obj 78 230 *~;
#X connect 0 0 9 0;
#X connect 1 0 17 0;
#X connect 2 0 17 1;
#X connect 3 0 2 0;
#X connect 4 0 3 0;
#X connect 4 1 2 1;
#X connect 5 0 17 2;
#X connect 6 0 5 0;
#X connect 7 0 6 0;
#X connect 7 1 5 1;
#X connect 8 0 0 0;
#X connect 8 0 1 0;
#X connect 10 0 1 1;
#X connect 11 0 1 2;
#X connect 12 0 4 0;
#X connect 13 0 7 0;
#X connect 14 0 15 0;
#X connect 15 0 16 0;
#X connect 16 0 18 1;
#X connect 17 0 18 0;
#X connect 18 0 0 1;
#X restore 32 171 pd processing;
#N canvas 0 22 462 312 rh_scalelog 0;
#X obj 20 155 exp;
#X obj 20 107 *;
#X obj 20 130 +;
#X obj 98 87 log;
#X obj 194 84 log;
#X obj 123 123 t b f;
#X obj 123 145 -;
#X obj 20 183 outlet;
#X obj 20 19 inlet;
#X obj 98 23 inlet;
#X obj 194 24 inlet;
#X connect 0 0 7 0;
#X connect 1 0 2 0;
#X connect 2 0 0 0;
#X connect 3 0 2 1;
#X connect 3 0 5 0;
#X connect 4 0 6 0;
#X connect 5 0 6 0;
#X connect 5 1 6 1;
#X connect 6 0 1 1;
#X connect 8 0 1 0;
#X connect 9 0 3 0;
#X connect 10 0 4 0;
#X restore 142 98 pd rh_scalelog;
#X msg 235 74 10;
#X msg 189 74 1;
#X obj 278 94 * 60;
#X obj 277 70 - 1;
#N canvas 0 22 462 312 rh_scalelog 0;
#X obj 20 155 exp;
#X obj 20 107 *;
#X obj 20 130 +;
#X obj 98 87 log;
#X obj 194 84 log;
#X obj 123 123 t b f;
#X obj 123 145 -;
#X obj 20 183 outlet;
#X obj 20 19 inlet;
#X obj 98 23 inlet;
#X obj 194 24 inlet;
#X connect 0 0 7 0;
#X connect 1 0 2 0;
#X connect 2 0 0 0;
#X connect 3 0 2 1;
#X connect 3 0 5 0;
#X connect 4 0 6 0;
#X connect 5 0 6 0;
#X connect 5 1 6 1;
#X connect 6 0 1 1;
#X connect 8 0 1 0;
#X connect 9 0 3 0;
#X connect 10 0 4 0;
#X restore 379 88 pd rh_scalelog;
#X msg 426 64 1;
#X msg 472 62 300;
#N canvas 0 22 462 312 rh_scalelog 0;
#X obj 20 155 exp;
#X obj 20 107 *;
#X obj 20 130 +;
#X obj 98 87 log;
#X obj 194 84 log;
#X obj 123 123 t b f;
#X obj 123 145 -;
#X obj 20 183 outlet;
#X obj 20 19 inlet;
#X obj 98 23 inlet;
#X obj 194 24 inlet;
#X connect 0 0 7 0;
#X connect 1 0 2 0;
#X connect 2 0 0 0;
#X connect 3 0 2 1;
#X connect 3 0 5 0;
#X connect 4 0 6 0;
#X connect 5 0 6 0;
#X connect 5 1 6 1;
#X connect 6 0 1 1;
#X connect 8 0 1 0;
#X connect 9 0 3 0;
#X connect 10 0 4 0;
#X restore 510 93 pd rh_scalelog;
#X msg 555 67 10;
#X msg 602 66 3000;
#X obj 73 101 - 20;
#X obj 73 76 * 50;
#X text 326 172 BY ROMAN H;
#X obj 345 -19 loadbang;
#X obj 117 -79 r comp-gain;
#X obj 207 -73 r comp-ratio;
#X obj 311 -75 r comp-threshold;
#X obj 421 -74 r comp-attack;
#X obj 529 -71 r comp-release;
#X connect 1 0 2 0;
#X connect 2 0 0 0;
#X connect 3 0 2 2;
#X connect 4 0 3 2;
#X connect 5 0 3 1;
#X connect 6 0 2 3;
#X connect 7 0 6 0;
#X connect 8 0 2 4;
#X connect 9 0 8 1;
#X connect 10 0 8 2;
#X connect 11 0 2 5;
#X connect 12 0 11 1;
#X connect 13 0 11 2;
#X connect 14 0 2 1;
#X connect 15 0 14 0;
#X connect 17 0 5 0;
#X connect 17 0 4 0;
#X connect 17 0 9 0;
#X connect 17 0 10 0;
#X connect 17 0 12 0;
#X connect 17 0 13 0;
#X connect 18 0 15 0;
#X connect 19 0 3 0;
#X connect 20 0 7 0;
#X connect 21 0 8 0;
#X connect 22 0 11 0;
