#N canvas 372 80 616 545 10;
#X declare -lib mrpeach;
#X msg 83 146 disconnect;
#X msg 4 105 connect localhost 9998;
#X msg 326 52 send /State \$1;
#X obj 4 17 r conn;
#X obj 16 78 sel 1;
#X obj 326 26 r state;
#X obj 149 50 import mrpeach;
#X obj 82 424 packOSC;
#X obj 28 516 udpsend;
#X text 52 17 create net connection;
#X text 146 66 uploads libraries for OSC;
#X text 319 9 starts/stops sound in receiveng patch;
#X obj 372 146 r scale;
#X text 427 145 send scale;
#X obj 28 489 spigot;
#X obj 4 46 t f f;
#X msg 372 172 send /Scale \$1;
#X msg 373 277 send /0cross \$1;
#X obj 373 251 r NewFrame;
#X obj 373 304 r tikOnOff;
#X obj 165 508 r save_sound;
#X msg 372 328 send /tikOnOff \$1;
#X msg 148 537 send /save_sound \$1;
#X obj 372 198 r f0;
#X msg 372 224 send /f0 \$1;
#X obj 17 560 print nn;
#X msg 374 378 send /Gmode \$1;
#X obj 374 354 r Gmode;
#X obj 376 406 r SustTime;
#X obj 379 456 r SustOnOff;
#X msg 376 432 send /SustTime \$1;
#X msg 379 483 send /SustOnOff \$1;
#X obj 383 514 r ref_scale_send;
#X msg 383 541 send /RefScale \$1;
#N canvas 30 54 450 300 SYNTHS_OSC 0;
#X obj 103 207 outlet;
#X obj 142 97 r HSV3plet;
#X obj 103 122 prepend;
#X text 213 96 H S V values;
#X text 189 -51 pix-group number (X-coor);
#X obj 103 -49 r pix_groupN;
#X msg 151 53 ];
#X msg 121 52 [;
#X obj 130 23 sel 0 11;
#X obj 103 -3 t a f;
#X msg 102 149 /Synth \$1 \$2 \$3 \$4;
#X connect 1 0 2 1;
#X connect 2 0 10 0;
#X connect 5 0 9 0;
#X connect 6 0 0 0;
#X connect 7 0 0 0;
#X connect 8 0 7 0;
#X connect 8 1 6 0;
#X connect 9 0 2 0;
#X connect 9 1 8 0;
#X connect 10 0 0 0;
#X restore 337 99 pd SYNTHS_OSC;
#X obj 534 285 print;
#X text 423 98 Synths and notes and bundles;
#X connect 0 0 14 0;
#X connect 1 0 14 0;
#X connect 2 0 7 0;
#X connect 3 0 15 0;
#X connect 4 0 1 0;
#X connect 4 1 0 0;
#X connect 5 0 2 0;
#X connect 7 0 14 0;
#X connect 12 0 16 0;
#X connect 14 0 8 0;
#X connect 15 0 4 0;
#X connect 15 1 14 1;
#X connect 16 0 7 0;
#X connect 17 0 7 0;
#X connect 18 0 17 0;
#X connect 19 0 21 0;
#X connect 20 0 22 0;
#X connect 21 0 7 0;
#X connect 22 0 7 0;
#X connect 23 0 24 0;
#X connect 24 0 7 0;
#X connect 26 0 7 0;
#X connect 27 0 26 0;
#X connect 28 0 30 0;
#X connect 29 0 31 0;
#X connect 30 0 7 0;
#X connect 31 0 7 0;
#X connect 32 0 33 0;
#X connect 33 0 7 0;
#X connect 34 0 7 0;
