#N canvas 679 128 616 603 10;
#X declare -lib mrpeach;
#X msg 162 100 disconnect;
#X msg 4 105 connect localhost 9998;
#X msg 369 25 send /State \$1;
#X obj 410 71 r HSV3plet;
#X obj 0 17 r conn;
#X obj 0 79 sel 1;
#X obj 369 -1 r state;
#X msg 371 123 send /Synth \$1 \$2 \$3 \$4;
#X obj 149 50 import mrpeach;
#X obj 82 424 packOSC;
#X obj 28 516 udpsend;
#X obj 371 96 prepend;
#X text 52 17 create net connection;
#X text 146 66 uploads libraries for OSC;
#X text 420 0 starts/stops sound in receiveng patch;
#X text 482 71 H S V values;
#X text 448 44 pix-group number (X-coor);
#X obj 372 143 r scale;
#X text 427 142 send scale;
#X obj 28 489 spigot;
#X obj -1 46 t f f;
#X msg 372 169 send /Scale \$1;
#X msg 373 277 send /0cross \$1;
#X obj 373 251 r NewFrame;
#X obj 373 304 r tikOnOff;
#X obj 215 491 r save_sound;
#X msg 372 328 send /tikOnOff \$1;
#X msg 198 520 send /save_sound \$1;
#X obj 371 47 r pix_groupN;
#X obj 372 198 r f0;
#X msg 372 224 send /f0 \$1;
#X obj 17 560 print nn;
#X msg 374 378 send /Gmode \$1;
#X obj 374 354 r Gmode;
#X obj 376 406 r SustTime;
#X obj 379 456 r SustOnOff;
#X msg 376 432 send /SustTime \$1;
#X msg 379 483 send /SustOnOff \$1;
#X connect 0 0 19 0;
#X connect 1 0 19 0;
#X connect 2 0 9 0;
#X connect 3 0 11 1;
#X connect 4 0 20 0;
#X connect 5 0 1 0;
#X connect 5 1 0 0;
#X connect 6 0 2 0;
#X connect 7 0 9 0;
#X connect 9 0 19 0;
#X connect 11 0 7 0;
#X connect 17 0 21 0;
#X connect 19 0 10 0;
#X connect 20 0 5 0;
#X connect 20 1 19 1;
#X connect 21 0 9 0;
#X connect 22 0 9 0;
#X connect 23 0 22 0;
#X connect 24 0 26 0;
#X connect 25 0 27 0;
#X connect 26 0 9 0;
#X connect 27 0 9 0;
#X connect 28 0 11 0;
#X connect 29 0 30 0;
#X connect 30 0 9 0;
#X connect 32 0 9 0;
#X connect 33 0 32 0;
#X connect 34 0 36 0;
#X connect 35 0 37 0;
#X connect 36 0 9 0;
#X connect 37 0 9 0;
