#N canvas 1 79 514 570 10;
#X obj 35 20 gemhead;
#X obj 272 154 gemhead 20;
#X obj 240 242 pix_image;
#X obj 109 468 pix_texture;
#X obj 110 505 rectangle 4 3;
#X obj 428 57 gemwin;
#X msg 392 26 create \, 1;
#X msg 460 30 destroy;
#X obj 113 335 pix_mask;
#X obj 111 366 alpha;
#X obj 35 64 pix_video;
#X msg 295 185 open images/formas/estrela_.png;
#X msg 303 216 open images/formas/estrela.png;
#X connect 0 0 10 0;
#X connect 1 0 2 0;
#X connect 2 0 8 1;
#X connect 3 0 4 0;
#X connect 6 0 5 0;
#X connect 7 0 5 0;
#X connect 8 0 9 0;
#X connect 9 0 3 0;
#X connect 10 0 8 0;
#X connect 12 0 2 0;
