#N canvas 1 79 856 594 10;
#X obj 35 20 gemhead;
#X obj 75 434 pix_texture;
#X obj 428 57 gemwin;
#X msg 392 26 create \, 1;
#X msg 460 30 destroy;
#X obj 113 335 pix_mask;
#X obj 111 366 alpha;
#X obj 35 57 pix_video;
#X obj 143 8 cnv 15 160 150 empty empty empty 20 12 0 14 -24198 -66577
0;
#X obj 182 53 cnv 15 100 40 empty empty empty 20 12 0 14 -233017 -66577
0;
#X floatatom 198 52 3 -1 2 0 - - -;
#X floatatom 221 52 3 -1 2 0 - - -;
#X floatatom 244 52 3 -1 2 0 - - -;
#X floatatom 198 66 3 -1 2 0 - - -;
#X floatatom 221 66 3 -1 2 0 - - -;
#X floatatom 244 66 3 -1 2 0 - - -;
#X floatatom 198 80 3 -1 2 0 - - -;
#X floatatom 221 80 3 -1 2 0 - - -;
#X floatatom 244 80 3 -1 2 0 - - -;
#N canvas 0 0 450 469 pack 0;
#X obj 69 169 pack 0 0 0 0 0 0 0 0 0;
#X obj 69 139 t b f;
#X obj 106 139 t b f;
#X obj 143 139 t b f;
#X obj 180 139 t b f;
#X obj 217 139 t b f;
#X obj 254 139 t b f;
#X obj 291 139 t b f;
#X obj 328 139 t b f;
#X obj 32 111 inlet;
#X obj 69 111 inlet;
#X obj 106 111 inlet;
#X obj 143 111 inlet;
#X obj 180 111 inlet;
#X obj 217 111 inlet;
#X obj 254 111 inlet;
#X obj 291 111 inlet;
#X obj 328 111 inlet;
#X obj 61 349 outlet;
#X obj 274 355 outlet;
#X obj 71 190 t l l;
#X obj 257 232 unpack 0 0 0 0 0 0 0 0 0;
#X obj 399 256 +;
#X obj 358 256 +;
#X obj 318 256 +;
#X obj 277 256 +;
#X obj 379 286 +;
#X obj 298 286 +;
#X obj 349 316 +;
#X obj 268 316 +;
#X obj 58 294 select 0;
#X msg 48 323 1;
#X obj 132 391 /;
#X msg 132 365 1 \$1;
#X connect 0 0 20 0;
#X connect 1 0 0 0;
#X connect 1 1 0 1;
#X connect 2 0 0 0;
#X connect 2 1 0 2;
#X connect 3 0 0 0;
#X connect 3 1 0 3;
#X connect 4 0 0 0;
#X connect 4 1 0 4;
#X connect 5 0 0 0;
#X connect 5 1 0 5;
#X connect 6 0 0 0;
#X connect 6 1 0 6;
#X connect 7 0 0 0;
#X connect 7 1 0 7;
#X connect 8 0 0 0;
#X connect 8 1 0 8;
#X connect 9 0 0 0;
#X connect 10 0 1 0;
#X connect 11 0 2 0;
#X connect 12 0 3 0;
#X connect 13 0 4 0;
#X connect 14 0 5 0;
#X connect 15 0 6 0;
#X connect 16 0 7 0;
#X connect 17 0 8 0;
#X connect 20 0 21 0;
#X connect 20 1 19 0;
#X connect 21 0 29 0;
#X connect 21 1 25 0;
#X connect 21 2 25 1;
#X connect 21 3 24 0;
#X connect 21 4 24 1;
#X connect 21 5 23 0;
#X connect 21 6 23 1;
#X connect 21 7 22 0;
#X connect 21 8 22 1;
#X connect 22 0 26 1;
#X connect 23 0 26 0;
#X connect 24 0 27 1;
#X connect 25 0 27 0;
#X connect 26 0 28 1;
#X connect 27 0 28 0;
#X connect 28 0 29 1;
#X connect 29 0 30 0;
#X connect 30 0 31 0;
#X connect 30 1 33 0;
#X connect 31 0 18 0;
#X connect 32 0 18 0;
#X connect 33 0 32 0;
#X restore 177 94 pd pack 9 . . .;
#X floatatom 177 115 5 0 0 1 scale - -;
#N canvas 411 476 605 305 unpack 0;
#X obj 60 270 outlet;
#X obj 111 270 outlet;
#X obj 164 270 outlet;
#X obj 215 270 outlet;
#X obj 266 270 outlet;
#X obj 317 270 outlet;
#X obj 370 270 outlet;
#X obj 421 270 outlet;
#X obj 471 271 outlet;
#X obj 179 173 unpack 0 0 0 0 0 0 0 0 0;
#X obj 130 13 inlet;
#X obj 130 40 route edge1 edge2 smooth none;
#X msg 130 124 -1 -1 -1 -1 8 -1 -1 -1 -1;
#X msg 179 102 -1 -4 -1 -4 20 -4 -1 -4 -1;
#X msg 229 82 1 2 1 2 4 2 1 2 1;
#X msg 278 62 0 0 0 0 1 0 0 0 0;
#X connect 9 0 0 0;
#X connect 9 1 1 0;
#X connect 9 2 2 0;
#X connect 9 3 3 0;
#X connect 9 4 4 0;
#X connect 9 5 5 0;
#X connect 9 6 6 0;
#X connect 9 7 7 0;
#X connect 9 8 8 0;
#X connect 10 0 11 0;
#X connect 11 0 12 0;
#X connect 11 1 13 0;
#X connect 11 2 14 0;
#X connect 11 3 15 0;
#X connect 12 0 9 0;
#X connect 13 0 9 0;
#X connect 14 0 9 0;
#X connect 15 0 9 0;
#X restore 166 35 pd unpack 9 . . .;
#X msg 152 12 none;
#X msg 233 12 edge1;
#X msg 275 12 edge2;
#X msg 186 12 smooth;
#X obj 144 136 pix_convolve 3 3;
#X obj 277 208 pix_grey;
#X obj 35 103 demux;
#X obj 55 82 tgl 15 0 empty empty empty 17 7 0 10 -262144 -1 -1 1 1
;
#X obj 73 501 translateXYZ;
#X floatatom 182 447 5 0 0 0 - - -;
#X obj 292 443 pix_texture;
#X obj 286 480 translateXYZ;
#X floatatom 394 475 5 0 0 0 - - -;
#X obj 69 530 rectangle 2 2;
#X obj 263 515 rectangle 2 2;
#X floatatom 393 429 5 0 0 0 - - -;
#X obj 274 397 separator;
#X floatatom 100 465 5 0 0 0 - - -;
#X obj 482 441 pix_texture;
#X obj 476 478 translateXYZ;
#X floatatom 584 473 5 0 0 0 - - -;
#X obj 453 513 rectangle 2 2;
#X floatatom 583 427 5 0 0 0 - - -;
#X obj 464 395 separator;
#X obj 629 318 separator;
#X obj 678 246 pix_invert;
#X obj 658 434 pix_texture;
#X obj 652 471 translateXYZ;
#X floatatom 760 466 5 0 0 0 - - -;
#X obj 629 506 rectangle 2 2;
#X floatatom 759 420 5 0 0 0 - - -;
#X connect 0 0 7 0;
#X connect 1 0 30 0;
#X connect 3 0 2 0;
#X connect 4 0 2 0;
#X connect 5 0 6 0;
#X connect 6 0 1 0;
#X connect 7 0 28 0;
#X connect 10 0 19 0;
#X connect 11 0 19 1;
#X connect 12 0 19 2;
#X connect 13 0 19 3;
#X connect 14 0 19 4;
#X connect 15 0 19 5;
#X connect 16 0 19 6;
#X connect 17 0 19 7;
#X connect 18 0 19 8;
#X connect 19 0 20 0;
#X connect 19 1 26 2;
#X connect 20 0 26 1;
#X connect 21 0 10 0;
#X connect 21 1 11 0;
#X connect 21 2 12 0;
#X connect 21 3 13 0;
#X connect 21 4 14 0;
#X connect 21 5 15 0;
#X connect 21 6 16 0;
#X connect 21 7 17 0;
#X connect 21 8 18 0;
#X connect 22 0 21 0;
#X connect 23 0 21 0;
#X connect 24 0 21 0;
#X connect 25 0 21 0;
#X connect 26 0 27 0;
#X connect 26 0 38 0;
#X connect 27 0 45 0;
#X connect 27 0 47 0;
#X connect 28 0 1 0;
#X connect 28 1 26 0;
#X connect 28 1 5 0;
#X connect 29 0 28 1;
#X connect 30 0 35 0;
#X connect 31 0 30 2;
#X connect 32 0 33 0;
#X connect 33 0 36 0;
#X connect 34 0 33 2;
#X connect 37 0 33 1;
#X connect 38 0 32 0;
#X connect 39 0 30 1;
#X connect 40 0 41 0;
#X connect 41 0 43 0;
#X connect 42 0 41 2;
#X connect 44 0 41 1;
#X connect 45 0 40 0;
#X connect 46 0 48 0;
#X connect 47 0 46 0;
#X connect 47 0 5 1;
#X connect 48 0 49 0;
#X connect 49 0 51 0;
#X connect 50 0 49 2;
#X connect 52 0 49 1;
