#N canvas 0 0 459 564 10;
#X obj 181 10 inlet~;
#X obj 299 10 inlet offset;
#X obj 225 10 inlet drive;
#X obj 275 58 clip 0 1;
#X msg 275 107 10 \$1;
#X obj 276 132 pow;
#X obj 275 84 * 2;
#X obj 204 228 *~;
#X obj 196 256 *~;
#X obj 180 327 -~;
#X obj 198 296 /~ 3;
#X obj 180 388 hip~ 5;
#X obj 182 503 outlet~;
#X obj 181 183 clip~ -1 1;
#X obj 180 408 hip~ 5;
#X obj 181 478 lop~;
#X obj 262 415 samplerate~;
#X obj 180 96 +~ 0.25;
#X text 393 538 slp@2009;
#X obj 262 390 loadbang;
#X obj 180 155 *~ 1;
#X obj 19 23 block~ 64 1 2;
#X obj 261 437 * 0.5;
#X connect 0 0 17 0;
#X connect 1 0 17 1;
#X connect 2 0 3 0;
#X connect 3 0 6 0;
#X connect 4 0 5 0;
#X connect 5 0 20 1;
#X connect 6 0 4 0;
#X connect 7 0 8 1;
#X connect 8 0 10 0;
#X connect 9 0 11 0;
#X connect 10 0 9 1;
#X connect 11 0 14 0;
#X connect 13 0 7 0;
#X connect 13 0 7 1;
#X connect 13 0 8 0;
#X connect 13 0 9 0;
#X connect 14 0 15 0;
#X connect 15 0 12 0;
#X connect 16 0 22 0;
#X connect 17 0 20 0;
#X connect 19 0 16 0;
#X connect 20 0 13 0;
#X connect 22 0 15 1;
