#N canvas 29 54 966 546 10;
#X obj 444 42 osc~;
#X obj 445 18 line~;
#X obj 577 -163 r Synth_\$1;
#X obj 577 -119 unpack f f f;
#X obj 576 123 overdrive;
#X obj 599 313 outlet~;
#X obj 598 249 lop~ 20000;
#X obj 599 276 hip~ 5;
#X obj 864 -59 t b a;
#X obj 439 305 print check_playHSV;
#X obj 638 -56 expr 1 -$f1;
#X obj 497 79 *~;
#X obj 207 48 *~;
#X obj 529 35 line~;
#X msg 531 14 \$1 2;
#X obj 222 -20 line~;
#X msg 445 -8 \$1 4;
#X obj 329 -78 phasor~;
#X obj 328 -125 r f0;
#X obj 149 -90 noise~;
#X obj 148 -66 hip~ 20;
#X obj 147 -42 lop~ 1000;
#X obj 148 -18 lop~ 700;
#X obj 328 -101 / 2;
#X obj 61 33 r Gmode;
#X obj 530 -27 pow 0.2;
#X obj 638 -26 s saturation-;
#X obj 263 -159 r saturation-;
#X obj 223 179 multiplex~ . . . .;
#X obj 601 99 pow 4;
#X obj 149 24 *~ 0.8;
#X msg 222 -46 \$1 5;
#X obj 353 306 bng 15 250 50 0 empty empty empty 17 7 0 10 -262144
-1 -1;
#X obj 373 307 repeat 10;
#X obj 598 222 *~ 1;
#X obj 597 180 *~;
#X obj 757 -93 pow 3;
#X obj 330 -50 hip~ 20;
#X obj 328 -27 lop~ 1000;
#X obj 329 -3 lop~ 700;
#X obj 367 22 pow 8;
#X obj 805 59 delay 100;
#X obj 831 115 vline~;
#X msg 891 73 \$1 5;
#X msg 810 81 0 10;
#X obj 919 -59 r SustOnOff;
#X obj 727 19 r SustTime;
#X obj 809 24 spigot 1;
#X obj 919 -34 sel 0 1;
#X msg 919 -9 1;
#X msg 951 -7 0;
#N canvas 375 197 814 474 escalas 0;
#X obj 26 -187 inlet;
#X obj 120 -177 r scalaH;
#X obj -63 7 int;
#X text -46 -58 12 note strict;
#X text -201 -132 the scale is twelwe notes (1 octave);
#X obj 136 190 outlet;
#X obj 205 0 + 36.7;
#X obj 38 9 + 26;
#X obj 38 32 int;
#X obj 27 -161 expr 1 - $f1;
#X obj -128 -94 * 12;
#X obj -49 -81 * 12;
#X obj 38 -17 * 70;
#X obj 199 -26 * 2056.3;
#N canvas 703 345 450 300 pentatonic_M 0;
#X obj 101 2 inlet;
#X obj 156 248 outlet;
#X obj 143 65 * 6;
#X obj 139 114 int;
#X obj 141 149 sel 0 1 2 3 4 5;
#X obj 112 38 t b f;
#X msg 108 181 1;
#X obj 85 232 * 1;
#X msg 147 191 1.125;
#X obj 137 92 + 0.49999;
#X msg 191 194 1.25;
#X msg 236 194 1.5;
#X msg 269 196 1.66667;
#X msg 328 198 2;
#X obj 61 137 f 33;
#X obj 14 65 r fzeroM;
#X connect 0 0 5 0;
#X connect 2 0 9 0;
#X connect 3 0 4 0;
#X connect 4 0 6 0;
#X connect 4 1 8 0;
#X connect 4 2 10 0;
#X connect 4 3 11 0;
#X connect 4 4 12 0;
#X connect 4 5 13 0;
#X connect 5 0 14 0;
#X connect 5 1 2 0;
#X connect 6 0 7 1;
#X connect 7 0 1 0;
#X connect 8 0 7 1;
#X connect 9 0 3 0;
#X connect 10 0 7 1;
#X connect 11 0 7 1;
#X connect 12 0 7 1;
#X connect 13 0 7 1;
#X connect 14 0 7 0;
#X connect 15 0 14 1;
#X restore 394 51 pd pentatonic_M;
#N canvas 674 413 450 300 pentatonic_m 0;
#X obj 101 2 inlet;
#X obj 156 248 outlet;
#X obj 143 65 * 6;
#X obj 139 114 int;
#X obj 141 149 sel 0 1 2 3 4 5;
#X obj 112 38 t b f;
#X msg 108 181 1;
#X obj 85 232 * 1;
#X obj 137 92 + 0.49999;
#X msg 236 194 1.5;
#X msg 328 198 2;
#X msg 141 183 1.2;
#X msg 175 188 1.33333;
#X msg 269 196 1.8;
#X obj 61 137 f 33;
#X obj 24 75 r fzeroM;
#X connect 0 0 5 0;
#X connect 2 0 8 0;
#X connect 3 0 4 0;
#X connect 4 0 6 0;
#X connect 4 1 11 0;
#X connect 4 2 12 0;
#X connect 4 3 9 0;
#X connect 4 4 13 0;
#X connect 4 5 10 0;
#X connect 5 0 14 0;
#X connect 5 1 2 0;
#X connect 6 0 7 1;
#X connect 7 0 1 0;
#X connect 8 0 3 0;
#X connect 9 0 7 1;
#X connect 10 0 7 1;
#X connect 11 0 7 1;
#X connect 12 0 7 1;
#X connect 13 0 7 1;
#X connect 14 0 7 0;
#X connect 15 0 14 1;
#X restore 403 74 pd pentatonic_m;
#X obj 33 -133 demux 0 1 2 3 4 5 6 7 8 9;
#X obj 85 0 + 26;
#X obj 85 -35 * 182;
#X obj 434 -40 * 24;
#X obj -104 -65 r f0;
#X obj -104 -44 ftom;
#X obj 35 121 mtof;
#X text 432 -62 2 octaves;
#X obj 480 -38 r f0;
#X obj 480 -17 ftom;
#X obj -137 -26 + 45;
#X obj -66 -15 + 45;
#X obj 434 -19 + 45;
#X obj 144 4 int;
#X obj 142 -21 * 11;
#X obj 98 38 tabread midi4th_scale;
#X connect 0 0 9 0;
#X connect 1 0 16 1;
#X connect 2 0 22 0;
#X connect 6 0 5 0;
#X connect 7 0 8 0;
#X connect 8 0 22 0;
#X connect 9 0 16 0;
#X connect 10 0 26 0;
#X connect 11 0 27 0;
#X connect 12 0 7 0;
#X connect 13 0 6 0;
#X connect 14 0 22 0;
#X connect 15 0 22 0;
#X connect 16 0 10 0;
#X connect 16 1 11 0;
#X connect 16 2 12 0;
#X connect 16 3 18 0;
#X connect 16 4 30 0;
#X connect 16 5 13 0;
#X connect 16 6 14 0;
#X connect 16 7 15 0;
#X connect 16 8 19 0;
#X connect 17 0 22 0;
#X connect 18 0 17 0;
#X connect 19 0 28 0;
#X connect 20 0 21 0;
#X connect 21 0 26 1;
#X connect 21 0 27 1;
#X connect 22 0 5 0;
#X connect 24 0 25 0;
#X connect 25 0 28 1;
#X connect 26 0 22 0;
#X connect 27 0 2 0;
#X connect 28 0 22 0;
#X connect 29 0 31 0;
#X connect 30 0 29 0;
#X connect 31 0 22 0;
#X restore 443 -59 pd escalas;
#X obj 611 -89 t f f;
#X obj 611 10 s saturation;
#X obj 601 74 r saturation;
#X obj 530 -51 r saturation;
#X obj 367 74 line~;
#X msg 367 48 \$1 5;
#X obj 327 141 *~;
#X connect 0 0 11 0;
#X connect 1 0 0 0;
#X connect 2 0 3 0;
#X connect 3 0 51 0;
#X connect 3 1 52 0;
#X connect 3 2 36 0;
#X connect 4 0 35 0;
#X connect 6 0 7 0;
#X connect 7 0 5 0;
#X connect 8 0 47 0;
#X connect 8 1 43 0;
#X connect 10 0 26 0;
#X connect 11 0 4 0;
#X connect 12 0 28 1;
#X connect 12 0 28 3;
#X connect 13 0 11 1;
#X connect 14 0 13 0;
#X connect 15 0 12 1;
#X connect 16 0 1 0;
#X connect 17 0 37 0;
#X connect 18 0 23 0;
#X connect 19 0 20 0;
#X connect 20 0 21 0;
#X connect 21 0 22 0;
#X connect 22 0 30 0;
#X connect 23 0 17 0;
#X connect 24 0 28 0;
#X connect 25 0 14 0;
#X connect 27 0 31 0;
#X connect 27 0 40 0;
#X connect 28 0 35 0;
#X connect 29 0 4 1;
#X connect 30 0 12 0;
#X connect 31 0 15 0;
#X connect 32 0 33 0;
#X connect 33 0 9 0;
#X connect 34 0 6 0;
#X connect 35 0 34 0;
#X connect 36 0 8 0;
#X connect 37 0 38 0;
#X connect 38 0 39 0;
#X connect 39 0 58 0;
#X connect 40 0 57 0;
#X connect 41 0 44 0;
#X connect 42 0 35 1;
#X connect 43 0 42 0;
#X connect 44 0 42 0;
#X connect 45 0 48 0;
#X connect 46 0 41 1;
#X connect 47 0 41 0;
#X connect 48 0 49 0;
#X connect 48 1 50 0;
#X connect 49 0 47 1;
#X connect 50 0 47 1;
#X connect 51 0 16 0;
#X connect 52 0 53 0;
#X connect 52 1 10 0;
#X connect 54 0 29 0;
#X connect 55 0 25 0;
#X connect 56 0 58 1;
#X connect 57 0 56 0;
#X connect 58 0 28 3;
#X connect 58 0 28 2;
