#N canvas 1 367 450 300 10;
#X obj 124 -3224 pan~;
#X obj 143 -3290 loadbang;
#X obj 119 -3175 throw~ L;
#X obj 189 -3175 throw~ R;
#N canvas 286 83 1048 630 PLAYHSV 1;
#X obj 464 95 osc~;
#X obj 465 71 line~;
#X obj 563 -213 r Synth_\$1;
#X obj 563 -136 unpack f f f;
#X obj 596 176 overdrive;
#X obj 599 363 outlet~;
#X obj 598 284 lop~ 20000;
#X obj 599 311 hip~ 5;
#X obj 813 34 t b a;
#X obj 75 331 print check_playHSV;
#X obj 653 -9 expr 1 -$f1;
#X obj 517 132 *~;
#X obj 207 83 *~;
#X obj 549 88 line~;
#X msg 551 67 \$1 2;
#X obj 222 15 line~;
#X msg 465 45 \$1 4;
#X obj 296 -32 phasor~;
#X obj 300 -81 r f0;
#X obj 137 -35 noise~;
#X obj 136 -11 hip~ 20;
#X obj 135 13 lop~ 1000;
#X obj 136 37 lop~ 700;
#X obj 303 -57 / 2;
#X obj 61 68 r Gmode;
#X obj 550 26 pow 0.2;
#X obj 653 22 s saturation-;
#X obj 263 -124 r saturation-;
#X obj 224 136 multiplex~ . . . .;
#X obj 169 59 *~ 0.8;
#X msg 222 -11 \$1 5;
#X obj 75 286 bng 15 250 50 0 empty empty empty 17 7 0 10 -262144 -1
-1;
#X obj 75 309 repeat 10;
#X obj 598 257 *~ 1;
#X obj 597 215 *~;
#X obj 297 -4 hip~ 20;
#X obj 295 19 lop~ 1000;
#X obj 295 40 lop~ 700;
#X obj 364 56 pow 8;
#X obj 741 192 delay 100;
#X obj 767 248 vline~;
#X msg 898 188 \$1 5;
#X msg 746 214 0 10;
#X obj 882 21 r SustOnOff;
#X obj 785 165 r SustTime;
#X obj 791 121 spigot 1;
#X obj 882 46 sel 0 1;
#X msg 882 71 1;
#X msg 914 73 0;
#N canvas 10 183 911 465 escalas 0;
#X obj 26 -187 inlet;
#X obj 120 -177 r scalaH;
#X obj -94 30 int;
#X text -77 -35 12 note strict;
#X text -201 -132 the scale is twelwe notes (1 octave);
#X obj 136 190 outlet;
#X obj 27 -161 expr 1 - $f1;
#X obj -159 -71 * 12;
#X obj -80 -58 * 12;
#N canvas 241 316 450 300 pentatonic_M 0;
#X obj 101 2 inlet;
#X obj 156 248 outlet;
#X obj 143 65 * 6;
#X obj 139 114 int;
#X obj 141 149 sel 0 1 2 3 4 5;
#X obj 112 38 t b f;
#X msg 108 181 1;
#X obj 85 232 * 1;
#X msg 147 191 1.125;
#X obj 137 92 + 0.49999;
#X msg 191 194 1.25;
#X msg 236 194 1.5;
#X msg 269 196 1.66667;
#X msg 328 198 2;
#X obj 61 137 f 33;
#X obj 14 65 r f0;
#X connect 0 0 5 0;
#X connect 2 0 9 0;
#X connect 3 0 4 0;
#X connect 4 0 6 0;
#X connect 4 1 8 0;
#X connect 4 2 10 0;
#X connect 4 3 11 0;
#X connect 4 4 12 0;
#X connect 4 5 13 0;
#X connect 5 0 14 0;
#X connect 5 1 2 0;
#X connect 6 0 7 1;
#X connect 7 0 1 0;
#X connect 8 0 7 1;
#X connect 9 0 3 0;
#X connect 10 0 7 1;
#X connect 11 0 7 1;
#X connect 12 0 7 1;
#X connect 13 0 7 1;
#X connect 14 0 7 0;
#X connect 15 0 14 1;
#X restore 239 -3 pd pentatonic_M;
#N canvas 65 293 450 300 pentatonic_m 0;
#X obj 101 2 inlet;
#X obj 156 248 outlet;
#X obj 143 65 * 6;
#X obj 139 114 int;
#X obj 141 149 sel 0 1 2 3 4 5;
#X obj 112 38 t b f;
#X msg 108 181 1;
#X obj 85 232 * 1;
#X obj 137 92 + 0.49999;
#X msg 236 194 1.5;
#X msg 328 198 2;
#X msg 141 183 1.2;
#X msg 175 188 1.33333;
#X msg 269 196 1.8;
#X obj 61 137 f 33;
#X obj 21 49 r f0;
#X connect 0 0 5 0;
#X connect 2 0 8 0;
#X connect 3 0 4 0;
#X connect 4 0 6 0;
#X connect 4 1 11 0;
#X connect 4 2 12 0;
#X connect 4 3 9 0;
#X connect 4 4 13 0;
#X connect 4 5 10 0;
#X connect 5 0 14 0;
#X connect 5 1 2 0;
#X connect 6 0 7 1;
#X connect 8 0 3 0;
#X connect 9 0 7 1;
#X connect 10 0 7 1;
#X connect 11 0 7 1;
#X connect 12 0 7 1;
#X connect 13 0 7 1;
#X connect 14 0 7 0;
#X connect 15 0 14 1;
#X restore 241 -31 pd pentatonic_m;
#X obj 33 -133 demux 0 1 2 3 4 5 6 7 8 9;
#X obj 65 -4 + 26;
#X obj 66 -30 * 182;
#X obj 631 -43 * 24;
#X obj -135 -42 r f0;
#X obj -135 -21 ftom;
#X obj 35 121 mtof;
#X text 637 -63 2 octaves;
#X obj 677 -41 r f0;
#X obj 677 -20 ftom;
#X obj -168 -3 + 45;
#X obj -97 8 + 45;
#X obj 631 -22 + 45;
#X obj 116 8 int;
#X obj 98 38 tabread midi4th_scale;
#X obj 393 -109 + 11;
#X obj 392 -136 * -11;
#X floatatom 391 -160 5 0 0 0 - - -;
#X text 449 -159 4ths scale is "upside down" should it not? :);
#X obj 118 -17 * 23;
#X obj 111 60 r fourthSHift;
#X obj 130 -44 r ScaleSize;
#X obj 71 79 + 0;
#N canvas 271 129 491 615 chromatic19 0;
#X text 259 44 19 tones chromatic scale;
#X obj 2 14 inlet;
#X obj 72 82 int;
#X msg 130 158 1;
#X obj 126 130 sel 0 1 2 3 4 5 6 7 8 9 10 11 12 13 14 15 16 17 18;
#X obj 117 519 outlet;
#X msg 147 181 1.037;
#X msg 165 203 1.076;
#X msg 190 225 1.111;
#X msg 205 244 1.166;
#X msg 222 265 1.2;
#X msg 233 285 1.25;
#X msg 246 304 1.285;
#X msg 262 326 1.333;
#X msg 281 346 1.4;
#X msg 299 367 1.428;
#X msg 315 389 1.5;
#X msg 330 409 1.555;
#X msg 343 432 1.6;
#X msg 355 454 1.666;
#X msg 363 474 1.714;
#X msg 380 496 1.8;
#X msg 390 516 1.857;
#X msg 403 538 1.928;
#X text 78 559 these are the intervals f/f0 1 28/27 14/13 10/9 7/6
6/5 5/4 9/7 4/3 7/5 10/7 3/2 14/9 8/5 5/3 12/7 9/5 13/7 27/14;
#X obj 9 256 print;
#X obj 69 56 * 18;
#X obj 81 106 + 0.4999;
#X obj 2 39 t b f;
#X obj 149 378 * 1;
#X obj 86 171 r f0;
#X obj 65 221 f 33;
#X connect 1 0 28 0;
#X connect 2 0 27 0;
#X connect 3 0 29 1;
#X connect 4 0 3 0;
#X connect 4 1 6 0;
#X connect 4 2 7 0;
#X connect 4 3 8 0;
#X connect 4 4 9 0;
#X connect 4 5 10 0;
#X connect 4 6 11 0;
#X connect 4 7 12 0;
#X connect 4 8 13 0;
#X connect 4 9 14 0;
#X connect 4 10 15 0;
#X connect 4 11 16 0;
#X connect 4 12 17 0;
#X connect 4 13 18 0;
#X connect 4 14 19 0;
#X connect 4 15 20 0;
#X connect 4 16 21 0;
#X connect 4 17 22 0;
#X connect 4 18 23 0;
#X connect 6 0 29 1;
#X connect 7 0 29 1;
#X connect 8 0 29 1;
#X connect 9 0 29 1;
#X connect 10 0 29 1;
#X connect 11 0 29 1;
#X connect 12 0 29 1;
#X connect 13 0 29 1;
#X connect 14 0 29 1;
#X connect 15 0 29 1;
#X connect 16 0 29 1;
#X connect 17 0 29 1;
#X connect 18 0 29 1;
#X connect 19 0 29 1;
#X connect 20 0 29 1;
#X connect 21 0 29 1;
#X connect 22 0 29 1;
#X connect 23 0 29 1;
#X connect 26 0 2 0;
#X connect 27 0 4 0;
#X connect 28 0 31 0;
#X connect 28 1 26 0;
#X connect 29 0 5 0;
#X connect 30 0 31 1;
#X connect 31 0 29 0;
#X restore -37 -4 pd chromatic19;
#N canvas 848 221 450 300 hjaz 0;
#X text 172 18 hijaz;
#X obj 11 11 inlet;
#X msg 158 152 1;
#X msg 225 155 2;
#X msg 328 157 4;
#X msg 403 158 6;
#X obj 150 259 outlet;
#X obj 168 114 sel 0 1 2 3 4 5 6 7;
#X text 176 42 incoming frequency;
#X obj 30 39 t b f;
#X obj 70 44 * 7;
#X obj 150 225 * 1;
#X obj 69 68 0.4999;
#X obj 326 78 table hjazz_scale;
#X msg 190 153 1.5;
#X msg 256 156 2.5;
#X msg 294 156 3.5;
#X msg 360 156 5.5;
#X obj 146 46 r f0;
#X obj 92 180 f 33;
#X connect 1 0 9 0;
#X connect 2 0 11 1;
#X connect 3 0 11 1;
#X connect 4 0 11 1;
#X connect 5 0 11 1;
#X connect 7 0 2 0;
#X connect 7 1 14 0;
#X connect 7 2 3 0;
#X connect 7 3 15 0;
#X connect 7 4 16 0;
#X connect 7 5 4 0;
#X connect 7 6 17 0;
#X connect 7 7 5 0;
#X connect 9 0 19 0;
#X connect 9 1 10 0;
#X connect 10 0 12 0;
#X connect 11 0 6 0;
#X connect 12 0 7 0;
#X connect 14 0 11 1;
#X connect 15 0 11 1;
#X connect 16 0 11 1;
#X connect 17 0 11 1;
#X connect 18 0 19 1;
#X connect 19 0 11 0;
#X restore 176 -8 pd hjaz;
#N canvas 771 107 592 612 just_scale 0;
#X obj 230 532 1 28/27 14/13 10/9 7/6 6/5 5/4 9/7 4/3 7/5 10/7 3/2
14/9 8/5 5/3 12/7 9/5 13/7 27/14;
#X obj 102 549 outlet;
#X obj 71 32 inlet;
#X obj 164 388 * 1;
#X obj 84 294 f 33;
#X obj 55 230 r f0;
#X obj 116 64 t b f;
#X text 264 438 just intonation (Galilei);
#X obj 282 457 1 9/8 5/4 4/3 3/2 5/3 15/8 2;
#X text 580 534 all harmonics;
#X obj 171 110 * 15;
#X obj 238 202 int;
#X obj 237 288 tabread just_intonation_scale;
#X floatatom 141 276 5 0 0 0 - - -;
#X floatatom 171 424 5 0 0 0 - - -;
#X connect 2 0 6 0;
#X connect 3 0 1 0;
#X connect 3 0 14 0;
#X connect 4 0 3 0;
#X connect 5 0 4 1;
#X connect 5 0 13 0;
#X connect 6 0 4 0;
#X connect 6 1 10 0;
#X connect 10 0 11 0;
#X connect 11 0 12 0;
#X connect 12 0 3 1;
#X restore 473 117 pd just_scale;
#X connect 0 0 6 0;
#X connect 1 0 11 1;
#X connect 2 0 17 0;
#X connect 6 0 11 0;
#X connect 7 0 21 0;
#X connect 8 0 22 0;
#X connect 9 0 17 0;
#X connect 11 0 7 0;
#X connect 11 1 8 0;
#X connect 11 2 34 0;
#X connect 11 3 13 0;
#X connect 11 4 30 0;
#X connect 11 5 35 0;
#X connect 11 6 9 0;
#X connect 11 7 36 0;
#X connect 11 8 14 0;
#X connect 12 0 17 0;
#X connect 13 0 12 0;
#X connect 14 0 23 0;
#X connect 15 0 16 0;
#X connect 16 0 21 1;
#X connect 16 0 22 1;
#X connect 17 0 5 0;
#X connect 19 0 20 0;
#X connect 20 0 23 1;
#X connect 21 0 17 0;
#X connect 22 0 2 0;
#X connect 23 0 17 0;
#X connect 24 0 25 0;
#X connect 25 0 33 0;
#X connect 27 0 26 0;
#X connect 28 0 27 0;
#X connect 30 0 24 0;
#X connect 31 0 33 1;
#X connect 32 0 30 1;
#X connect 33 0 17 0;
#X connect 34 0 5 0;
#X connect 35 0 5 0;
#X connect 36 0 5 0;
#X restore 465 8 pd escalas;
#X obj 1047 11 f;
#X obj 1101 -4 * 255;
#X obj 1052 153 *;
#X obj 1095 -47 t b f;
#X obj 864 -29 tgl 15 0 empty functVH functVH 17 7 0 10 -262144 -1
-1 0 1;
#X obj 1118 212 s VH;
#X obj 826 -31 r VH;
#X obj 1100 24 int;
#X obj 1073 79 tabread functionVH;
#X obj 1050 227 vsl 15 128 0 1 0 0 empty empty empty 0 -9 0 10 -262144
-1 -1 6389 1;
#X obj 798 -1 mux 0 1;
#X obj 468 -23 t f f;
#X obj 831 -77 t f f;
#X obj 526 -44 expr 1 - $f1;
#X obj 490 -67 demux;
#X obj 537 -66 tgl 15 0 empty invertHue invert_H -9 -7 0 10 -262144
-1 -1 0 1;
#X obj 349 116 line~;
#X msg 349 90 \$1 5;
#X obj 306 104 *~;
#X obj 599 334 clip~ -1 1;
#X obj 1075 128 * 1;
#X obj 1111 124 r FuncMulti;
#N canvas 605 81 687 649 shiftH 0;
#X obj 70 67 inlet;
#X text 109 65 real H;
#X obj 131 279 moses;
#X floatatom 424 137 10 0 0 2 shift_value - -;
#X obj 94 96 hsl 300 15 0 1 0 0 empty empty empty -2 -8 0 10 -262144
-1 -1 20257 1;
#X floatatom 86 119 15 0 0 0 - - -;
#X obj 131 472 hsl 300 15 0 1 0 0 empty empty empty -2 -8 0 10 -262144
-1 -1 22110 1;
#X floatatom 128 497 12 0 0 0 - - -;
#X obj 394 222 expr 1 - $f1;
#X obj 128 563 outlet;
#X obj 424 51 inlet;
#X text 123 596 send the Hues from 0 to shift value to the top of the
scale;
#X obj 60 166 f;
#X obj 308 169 t b f f f;
#X floatatom 397 256 15 0 0 0 - - -;
#X obj 203 370 expr $f1 + $f2 - 1;
#X msg 172 231 0.943144;
#X obj 149 335 +;
#X text 496 161 set the SHIFT value HERE;
#X obj 564 30 vsl 15 128 0 1 0 0 empty empty empty 0 -9 0 10 -162280
-1 -1 0 1;
#X connect 0 0 4 0;
#X connect 0 0 12 1;
#X connect 2 0 17 0;
#X connect 2 1 15 0;
#X connect 3 0 13 0;
#X connect 4 0 5 0;
#X connect 5 0 2 0;
#X connect 6 0 7 0;
#X connect 7 0 9 0;
#X connect 8 0 14 0;
#X connect 8 0 2 1;
#X connect 10 0 3 0;
#X connect 12 0 2 0;
#X connect 13 0 12 0;
#X connect 13 1 17 1;
#X connect 13 2 8 0;
#X connect 13 3 15 1;
#X connect 15 0 6 0;
#X connect 16 0 2 1;
#X connect 17 0 6 0;
#X connect 19 0 3 0;
#X restore 496 -107 pd shiftH;
#X floatatom 489 -140 7 0 0 0 shift_value - -;
#X obj 464 -211 r color_shift;
#X floatatom 646 130 5 0 0 0 - - -;
#X obj 624 98 pow 7;
#X connect 0 0 11 0;
#X connect 1 0 0 0;
#X connect 2 0 3 0;
#X connect 3 0 72 0;
#X connect 3 1 10 0;
#X connect 3 1 25 0;
#X connect 3 1 76 0;
#X connect 3 2 62 0;
#X connect 4 0 34 0;
#X connect 6 0 7 0;
#X connect 7 0 69 0;
#X connect 8 0 45 0;
#X connect 8 1 41 0;
#X connect 10 0 26 0;
#X connect 11 0 4 0;
#X connect 12 0 28 1;
#X connect 12 0 28 3;
#X connect 13 0 11 1;
#X connect 14 0 13 0;
#X connect 15 0 12 1;
#X connect 16 0 1 0;
#X connect 17 0 35 0;
#X connect 18 0 23 0;
#X connect 19 0 20 0;
#X connect 20 0 21 0;
#X connect 21 0 22 0;
#X connect 22 0 29 0;
#X connect 23 0 17 0;
#X connect 24 0 28 0;
#X connect 25 0 14 0;
#X connect 27 0 30 0;
#X connect 27 0 38 0;
#X connect 28 0 34 0;
#X connect 29 0 12 0;
#X connect 30 0 15 0;
#X connect 31 0 32 0;
#X connect 32 0 9 0;
#X connect 33 0 6 0;
#X connect 34 0 33 0;
#X connect 35 0 36 0;
#X connect 36 0 37 0;
#X connect 37 0 68 0;
#X connect 38 0 67 0;
#X connect 39 0 42 0;
#X connect 40 0 34 1;
#X connect 41 0 40 0;
#X connect 42 0 40 0;
#X connect 43 0 46 0;
#X connect 44 0 39 1;
#X connect 45 0 39 0;
#X connect 46 0 47 0;
#X connect 46 1 48 0;
#X connect 47 0 45 1;
#X connect 48 0 45 1;
#X connect 49 0 16 0;
#X connect 50 0 52 0;
#X connect 51 0 57 0;
#X connect 52 0 55 0;
#X connect 52 0 59 0;
#X connect 53 0 50 0;
#X connect 53 1 51 0;
#X connect 54 0 60 2;
#X connect 56 0 60 1;
#X connect 57 0 58 0;
#X connect 58 0 70 0;
#X connect 60 0 8 0;
#X connect 61 0 49 0;
#X connect 61 1 53 0;
#X connect 62 0 60 0;
#X connect 62 1 50 1;
#X connect 63 0 61 0;
#X connect 64 0 61 0;
#X connect 64 1 63 0;
#X connect 65 0 64 1;
#X connect 66 0 68 1;
#X connect 67 0 66 0;
#X connect 68 0 28 3;
#X connect 68 0 28 2;
#X connect 69 0 5 0;
#X connect 70 0 52 1;
#X connect 71 0 70 1;
#X connect 72 0 64 0;
#X connect 73 0 72 1;
#X connect 74 0 73 0;
#X connect 76 0 4 1;
#X connect 76 0 75 0;
#X restore 123 -3316 pd PLAYHSV;
#X obj 143 -3245 \$2;
#X connect 0 0 2 0;
#X connect 0 1 3 0;
#X connect 1 0 5 0;
#X connect 4 0 0 0;
#X connect 5 0 0 1;
