#N canvas 79 125 753 502 10;
#X floatatom 99 439 5 0 0 0 Luma_Y - -;
#X floatatom 184 299 5 0 0 0 B - -;
#X floatatom 106 301 5 0 0 0 G - -;
#X floatatom 36 300 5 0 0 0 R - -;
#X obj 28 343 * 0.3;
#X obj 66 371 +;
#X obj 99 406 +;
#X obj 99 344 * 0.59;
#X obj 175 342 * 0.11;
#X obj 507 76 hsl 128 15 0 1 0 0 empty empty H -2 -8 0 10 -262144 -1
-1 0 1;
#X obj 527 171 pack 0 0 0;
#X msg 555 142 1;
#X msg 590 142 1;
#X obj 527 205 hsv2rgb;
#X obj 90 263 unpack 0 0 0;
#X obj 503 103 change;
#X obj 573 112 loadbang;
#X obj 308 344 max;
#X obj 318 377 max;
#X floatatom 324 406 5 0 0 0 Chroma - -;
#X obj 499 8 inlet;
#X obj 93 -15 inlet;
#X floatatom 394 166 5 0 0 0 Hue - -;
#X obj 400 121 unpack 0 0 0;
#X obj 544 456 outlet;
#X obj 508 411 pack 0 0 0;
#X connect 0 0 25 2;
#X connect 1 0 8 0;
#X connect 1 0 18 1;
#X connect 2 0 7 0;
#X connect 2 0 17 1;
#X connect 3 0 4 0;
#X connect 3 0 17 0;
#X connect 4 0 5 0;
#X connect 5 0 6 0;
#X connect 6 0 0 0;
#X connect 7 0 5 1;
#X connect 8 0 6 1;
#X connect 9 0 15 0;
#X connect 10 0 13 0;
#X connect 11 0 10 1;
#X connect 12 0 10 2;
#X connect 14 0 3 0;
#X connect 14 1 2 0;
#X connect 14 2 1 0;
#X connect 15 0 10 0;
#X connect 16 0 12 0;
#X connect 16 0 11 0;
#X connect 17 0 18 0;
#X connect 18 0 19 0;
#X connect 19 0 25 1;
#X connect 20 0 9 0;
#X connect 20 0 23 0;
#X connect 21 0 14 0;
#X connect 22 0 25 0;
#X connect 23 0 22 0;
#X connect 25 0 24 0;
