#N canvas 574 161 631 419 10;
#X declare -lib mrpeach;
#X obj 238 44 import mrpeach;
#X obj 1 49 unpackOSC;
#X obj 1 11 udpreceive 9998;
#X obj 26 209 makefilename Synth_%d;
#X obj 3 178 pack 0 0 0;
#X obj 7 229 send;
#X obj 3 144 unpack f f f f;
#X obj 237 70 sounds;
#X text 341 46 imports libraries for OSC;
#X text 290 69 produces sound;
#X obj 113 393 s scalaH;
#X obj 110 258 vradio 15 1 0 9 empty empty empty 0 -8 0 10 -262144
-1 -1 0;
#X text 131 270 octave 12 notes (cromatic);
#X text 107 238 scale to output H values;
#X text 128 254 octave digital continuous;
#X obj 192 208 s 0cross;
#X obj 199 177 s save_sound;
#X obj 262 217 s tikOnOff;
#X text 141 374 2 octaves continuos (36/60);
#X obj 106 160 s state;
#X obj 153 183 s f0;
#X text 236 -5 play_sonarX: gets HSV triplets from SonarX and plays
the corresponding oscillators \, while the f0 is the "gray" ground
tone;
#X obj 437 368 bng 15 250 50 0 empty empty empty 17 7 0 10 -262144
-1 -1;
#X obj 458 389 print ++++++++;
#X obj 462 360 repeat 10;
#X obj 442 332 print check;
#X obj 288 191 s Gmode;
#X obj 345 230 s SustOnOff;
#X obj 355 203 s SustTime;
#X obj 439 230 s ref_scale;
#X obj 447 205 s c_line;
#X obj 425 291 s functVH-set;
#X obj 385 314 s invertH-set;
#X obj 457 272 s color_shift;
#X floatatom 435 172 5 0 0 0 - - -;
#X obj 56 103 routeOSC /Synth /State /Scale /f0 /0cross /save_sound
/tikOnOff /Gmode /SustOnOff /SustTime /RefScale /c_line /invertH /functVH
/color_shift-set;
#X connect 1 0 35 0;
#X connect 2 0 1 0;
#X connect 3 0 5 1;
#X connect 4 0 5 0;
#X connect 6 0 4 0;
#X connect 6 1 4 1;
#X connect 6 2 4 2;
#X connect 6 3 3 0;
#X connect 11 0 10 0;
#X connect 22 0 24 0;
#X connect 24 0 23 0;
#X connect 35 0 6 0;
#X connect 35 1 19 0;
#X connect 35 2 11 0;
#X connect 35 3 20 0;
#X connect 35 4 15 0;
#X connect 35 5 16 0;
#X connect 35 6 17 0;
#X connect 35 7 26 0;
#X connect 35 8 27 0;
#X connect 35 9 28 0;
#X connect 35 10 29 0;
#X connect 35 11 30 0;
#X connect 35 12 32 0;
#X connect 35 13 31 0;
#X connect 35 14 33 0;
#X connect 35 14 34 0;
