#N canvas 283 83 631 621 10;
#X declare -lib mrpeach;
#N canvas 431 547 272 195 stuff 1;
#N canvas 1 452 581 290 mostralinha 0;
#X obj 41 41 gemhead;
#X obj 41 138 translateXYZ 0 0 1;
#X obj 162 40 r posi;
#X obj 41 67 colour 1 1 1;
#X obj 162 115 expr - $f1;
#X obj 41 164 rectangle 1.8 0.01;
#X obj 264 48 sel 0;
#X obj 305 95 timer;
#X floatatom 307 122 5 0 0 0 - - -;
#X msg 243 76 bang;
#X obj 318 50 sel 479;
#X obj 163 94 * 2.7;
#X obj 162 69 / 479;
#X obj 213 5 r steps;
#X obj 213 31 - 1;
#X connect 0 0 3 0;
#X connect 1 0 5 0;
#X connect 2 0 6 0;
#X connect 2 0 10 0;
#X connect 2 0 12 0;
#X connect 3 0 1 0;
#X connect 4 0 1 2;
#X connect 6 0 7 0;
#X connect 7 0 8 0;
#X connect 9 0 7 0;
#X connect 10 0 7 1;
#X connect 11 0 4 0;
#X connect 12 0 11 0;
#X connect 13 0 14 0;
#X connect 14 0 12 1;
#X restore -442 64 pd mostralinha;
#X obj -443 3 HSV2OSC;
#N canvas 412 321 291 205 WINDOW 0;
#X obj -405 78 gemwin;
#X msg -447 23 create \, 1;
#X msg -323 28 destroy;
#X obj -375 -93 r onoffgemwin;
#X obj -371 -69 sel 1 0;
#X msg -267 16 \; state 0 \;;
#X obj -295 -17 t b b;
#X obj -427 -45 t b b;
#X msg -384 3 \; state 1 \;;
#X connect 1 0 0 0;
#X connect 2 0 0 0;
#X connect 3 0 4 0;
#X connect 4 0 7 0;
#X connect 4 1 6 0;
#X connect 6 0 2 0;
#X connect 6 1 5 0;
#X connect 7 0 1 0;
#X connect 7 1 8 0;
#X restore -444 -28 pd WINDOW;
#N canvas 409 148 450 300 EXT_CTRL 0;
#X obj 128 235 s state;
#X text 156 211 send state signal (on/off) to sound pacth;
#X obj 128 212 tgl 15 0 empty empty empty 17 7 0 10 -262144 -1 -1 0
1;
#N canvas 1 81 450 300 and_ctrl 0;
#X obj 89 40;
#X obj 135 25 udpreceive 8000;
#X obj 156 60 unpackOSC;
#X obj 530 200 print;
#X floatatom 427 267 5 0 0 0 - - -;
#X obj 191 98 route /1/fader1 /1/push1;
#X floatatom 267 144 5 0 0 0 - - -;
#X floatatom 196 140 5 0 0 0 - - -;
#X obj 211 175 outlet;
#X obj 278 183 outlet;
#X connect 1 0 2 0;
#X connect 2 0 5 0;
#X connect 5 0 7 0;
#X connect 5 1 6 0;
#X connect 6 0 9 0;
#X connect 7 0 8 0;
#X restore -23 165 pd and_ctrl;
#X floatatom 45 200 5 0 0 0 - - -;
#X floatatom -26 196 5 0 0 0 - - -;
#X obj -23 217 * 10;
#X obj 279 126 s scanspeed;
#X obj -73 250 s scanspeed;
#X obj 275 149 s scanspeedGUI;
#X obj 13 250 s scanspeedGUI;
#X obj 44 228 s stateGUI;
#X connect 2 0 0 0;
#X connect 3 0 5 0;
#X connect 3 1 4 0;
#X connect 4 0 2 0;
#X connect 4 0 11 0;
#X connect 5 0 6 0;
#X connect 6 0 8 0;
#X connect 6 0 10 0;
#X restore -443 35 pd EXT_CTRL;
#N canvas 782 309 331 367 INIT 1;
#X obj -303 3 loadbang;
#X obj -300 156 r reset_f0;
#X msg -302 275 110;
#X obj -272 198 r Gmode;
#X obj -272 228 sel 2;
#X obj -301 304 s f0_init;
#X msg -172 226 \; SustTime_init 100 \; SustOnOff_init 0 \;;
#X obj -172 199 r SustTimeReset;
#X msg -302 29 \; f0_init 110 \; SustTime_init 100 \; steps_init 480
\; vidORstill_init 1 \; scanspeed 4 \; play_mov 0 \; end_line 1 \;
;
#X connect 0 0 8 0;
#X connect 1 0 2 0;
#X connect 2 0 5 0;
#X connect 3 0 4 0;
#X connect 4 0 2 0;
#X connect 7 0 6 0;
#X restore -443 90 pd INIT;
#N canvas 299 136 830 512 VIDEO_MAIN 1;
#X obj -292 302 pix_texture;
#X obj -57 344 until;
#X obj -57 368 f;
#X obj -57 316 t a b;
#X msg -57 293 12;
#X obj -28 368 + 1;
#X obj -16 344 0;
#X obj 78 -57 cnv 15 100 60 empty empty empty 20 12 0 14 -195568 -66577
0;
#X text 79 -61 start / stop;
#X obj 103 -40 tgl 30 0 empty startstop empty 17 7 0 10 -4034 -1 -1
1 1;
#X text 333 338 sends signal of end line;
#X obj 261 337 s end_line;
#X obj -291 86 pix_buffer_write frame;
#X msg -161 59 1;
#X obj -147 -30 pix_buffer frame 2;
#X obj -291 112 pix_texture;
#X floatatom -194 130 5 0 0 0 - - -;
#X obj 55 71 r end_line;
#X obj 55 140 counter 480;
#X obj 118 172 s NewFrame;
#X obj 307 40 r NewFrame;
#X obj 259 276 sel 11;
#X obj 55 96 spigot;
#X obj 55 171 s posi;
#X text 36 392 pix-group number;
#X text 134 136 triggers 480 lines scan;
#X text -25 291 triggers 12 pix-groups scan in each line;
#X obj -292 330 translateXYZ 0 -1.8 0;
#X obj -292 356 rectangle 2.4 1.8;
#X obj -291 182 rectangle 2.4 1.8;
#X obj -291 152 translateXYZ 0 2 0;
#X obj 358 248 r scanspeed;
#N canvas 288 214 450 300 video_info 0;
#X obj 59 40 inlet;
#X obj 64 113 pix_info --------------;
#X obj 63 161 s info_width;
#X obj 80 187 s info_height;
#X obj 106 216 s info_bytes;
#X obj 139 241 s info_colorspace;
#X obj 31 260 outlet;
#X connect 0 0 1 0;
#X connect 1 0 6 0;
#X connect 1 1 2 0;
#X connect 1 2 3 0;
#X connect 1 3 4 0;
#X connect 1 4 5 0;
#X restore -291 55 pd video_info;
#X obj 261 310 delay 0.5;
#X obj 348 302 + 0.5;
#X obj 109 88 r reset_scan;
#X obj -57 395 send pix_groupN;
#X obj 359 278 pow 1.5;
#N canvas 192 180 626 548 framesIN 0;
#X obj -11 466 outlet;
#X obj -49 -25 gemhead;
#X obj -110 -4 cnv 15 80 30 empty empty empty 20 12 0 14 -24198 -66577
0;
#X obj -100 4 pix_video;
#N canvas 828 165 473 300 video_set 0;
#X obj -154 239 outlet;
#X msg -121 29 dimen 640 480;
#X obj -298 8 r device;
#X msg -254 99 device \$1;
#X obj -298 36 t b f b;
#X msg -247 62 \; onoffgemwin 0 \;;
#X obj -301 143 delay 500;
#X msg -301 168 \; onoffgemwin 1 \;;
#X msg 19 68 colorspace RGB;
#X msg 32 92 colorspace Grey;
#X obj 22 17 r color_space;
#X obj 22 42 sel 0 1;
#X msg -48 178 enumProps;
#X obj -82 216 r \$0-ctl;
#X connect 1 0 0 0;
#X connect 2 0 4 0;
#X connect 3 0 0 0;
#X connect 4 0 6 0;
#X connect 4 1 3 0;
#X connect 4 2 5 0;
#X connect 6 0 7 0;
#X connect 8 0 0 0;
#X connect 9 0 0 0;
#X connect 10 0 11 0;
#X connect 11 0 8 0;
#X connect 11 1 9 0;
#X connect 12 0 0 0;
#X connect 13 0 0 0;
#X restore -131 -25 pd video_set;
#X obj 84 415 pix_background;
#X obj 86 326 r play_mov;
#X obj 194 257 loadbang;
#X msg 177 321 0.2;
#X floatatom 175 345 5 0 0 0 - - -;
#X obj 92 357 sel 1;
#X msg 87 383 reset;
#X msg -213 279 open \$1;
#X obj -182 254 openpanel;
#X obj -182 218 bng 15 250 50 0 empty open_still_img empty 17 7 0 10
-262144 -1 -1;
#X obj -160 280 print;
#X obj -217 316 pix_image;
#X obj -272 253 gemhead;
#X floatatom 220 345 5 0 0 0 - - -;
#X msg 220 320 1;
#X obj 220 379 s vidORstill;
#X obj -227 191 r img2load;
#X obj -99 35 print;
#X obj -50 38 s \$0-info;
#X obj 86 -42 bng 15 250 50 0 empty open_video open_video 17 7 0 10
-262144 -1 -1;
#X obj 86 -21 openpanel;
#X msg 86 -1 open \$1;
#X obj 194 81 pix_film;
#X msg 126 49 colorspace Grey;
#X msg 182 23 auto \$1;
#X obj 182 -6 tgl 15 0 empty PausePlay_stored_vid ResetStop_stored_vid
17 7 0 10 -262144 -1 -1 1 1;
#X obj 83 25 r color_space;
#X obj 83 49 sel 1;
#X obj 181 -30 loadbang;
#X msg 278 131 0;
#X floatatom 304 79 5 0 0 0 - - -;
#X floatatom 308 34 5 0 0 0 - - -;
#X obj 249 31 gemhead;
#X obj -90 171 tgl 15 0 empty empty empty 17 7 0 10 -262144 -1 -1 1
1;
#X obj -123 194 spigot;
#X obj 9 135 tgl 15 0 empty empty empty 17 7 0 10 -262144 -1 -1 0 1
;
#X obj -24 168 spigot;
#X obj 9 88 r vidORstill;
#X obj 9 108 == 2;
#X obj -90 120 r vidORstill;
#X obj -90 148 == 1;
#X obj -30 253 tgl 15 0 empty empty empty 17 7 0 10 -262144 -1 -1 1
1;
#X obj -63 286 spigot;
#X obj -30 206 r vidORstill;
#X obj -30 226 > 0;
#X obj -162 397 tgl 15 0 empty empty empty 17 7 0 10 -262144 -1 -1
0 1;
#X obj -195 430 spigot;
#X obj -162 350 r vidORstill;
#X obj -162 370 == 0;
#X obj 57 284 tgl 15 0 empty empty empty 17 7 0 10 -262144 -1 -1 1
1;
#X obj 29 318 spigot;
#X obj 58 249 r play_mov;
#X obj -44 386 tgl 15 0 empty empty empty 17 7 0 10 -262144 -1 -1 0
1;
#X obj -77 419 spigot;
#X obj -42 357 == 0;
#X obj -48 328 r play_mov;
#X connect 1 0 3 0;
#X connect 3 0 39 0;
#X connect 3 1 22 0;
#X connect 3 1 23 0;
#X connect 4 0 3 0;
#X connect 5 0 0 0;
#X connect 6 0 10 0;
#X connect 7 0 8 0;
#X connect 7 0 19 0;
#X connect 8 0 9 0;
#X connect 9 0 5 1;
#X connect 10 0 11 0;
#X connect 11 0 5 0;
#X connect 12 0 16 0;
#X connect 13 0 15 0;
#X connect 13 0 12 0;
#X connect 14 0 13 0;
#X connect 16 0 51 0;
#X connect 17 0 16 0;
#X connect 18 0 20 0;
#X connect 19 0 18 0;
#X connect 21 0 16 0;
#X connect 24 0 25 0;
#X connect 25 0 26 0;
#X connect 26 0 27 0;
#X connect 27 0 41 0;
#X connect 27 2 34 0;
#X connect 28 0 27 0;
#X connect 29 0 27 0;
#X connect 30 0 29 0;
#X connect 31 0 32 0;
#X connect 32 0 28 0;
#X connect 33 0 30 0;
#X connect 34 0 35 0;
#X connect 35 0 27 1;
#X connect 36 0 27 1;
#X connect 37 0 27 0;
#X connect 38 0 39 1;
#X connect 39 0 47 0;
#X connect 40 0 41 1;
#X connect 41 0 47 0;
#X connect 42 0 43 0;
#X connect 43 0 40 0;
#X connect 44 0 45 0;
#X connect 45 0 38 0;
#X connect 46 0 47 1;
#X connect 47 0 58 0;
#X connect 47 0 55 0;
#X connect 48 0 49 0;
#X connect 49 0 46 0;
#X connect 50 0 51 1;
#X connect 51 0 0 0;
#X connect 52 0 53 0;
#X connect 53 0 50 0;
#X connect 54 0 55 1;
#X connect 55 0 5 0;
#X connect 56 0 54 0;
#X connect 57 0 58 1;
#X connect 58 0 0 0;
#X connect 59 0 57 0;
#X connect 60 0 59 0;
#X restore -291 11 pd framesIN;
#X obj -188 17 r bufWrite;
#X obj -56 87 r frameCounter;
#X obj 212 64 r steps;
#X obj 212 90 - 1;
#X obj -292 260 r imgResized;
#N canvas 1 85 334 323 RESIZE-IT 0;
#X obj -142 232 pix_resize;
#X obj -135 183 pix_buffer_read frame;
#X obj -138 152 gemhead;
#X text -204 202 read and resize frame from buffer;
#X obj -161 102 pack f f;
#X msg -161 126 dimen \$1 \$2;
#X msg -161 75 12;
#X obj -161 23 r steps;
#X obj -12 153 r bufRead;
#X obj -161 47 t b f;
#X obj -142 259 s imgResized;
#X connect 0 0 10 0;
#X connect 1 0 0 0;
#X connect 2 0 1 0;
#X connect 4 0 5 0;
#X connect 5 0 0 0;
#X connect 6 0 4 0;
#X connect 7 0 9 0;
#X connect 8 0 1 1;
#X connect 9 0 6 0;
#X connect 9 1 4 1;
#X restore -290 233 pd RESIZE-IT;
#X text -77 171 y-coor to mostralinha;
#X obj -57 242 r posi;
#X msg -57 267 bang;
#X obj 261 246 r pix_groupN;
#N canvas 141 182 450 503 readPixels 0;
#X obj 152 91 expr $f1/12 + 0.041;
#X obj 44 243 pix_data;
#X text 116 239 GETS PIXELS VALUES FROM FRAME;
#X obj 28 402 send HSV3plet;
#X obj 137 341 rgb2hsv;
#X obj 4 332 loadbang;
#X obj 153 202 expr 1 - $f1/$f2;
#X obj 246 146 r steps;
#X obj 245 175 - 1;
#X obj 59 91 r imgResized;
#X obj 155 170 r posi;
#X obj 44 -32 r pix_groupN;
#X obj 44 44 t b f;
#X obj 138 401 print checkPixData;
#X obj 188 377 tgl 15 0 empty empty empty 17 7 0 10 -262144 -1 -1 0
1;
#X obj 133 378 spigot;
#X msg 28 364 0 0 0;
#X connect 0 0 1 2;
#X connect 1 1 4 0;
#X connect 4 0 3 0;
#X connect 4 0 15 0;
#X connect 5 0 16 0;
#X connect 6 0 1 3;
#X connect 7 0 8 0;
#X connect 8 0 6 1;
#X connect 9 0 1 1;
#X connect 10 0 6 0;
#X connect 11 0 12 0;
#X connect 12 0 1 0;
#X connect 12 1 0 0;
#X connect 14 0 15 1;
#X connect 15 0 13 0;
#X connect 16 0 3 0;
#X restore -291 392 pd readPixels;
#X obj 26 39 s NewFrame;
#X msg 307 72 \; bufWrite 1 \; bufRead 1 \; frameCounter bang \;;
#X obj 103 12 t f f;
#X obj -186 252 loadbang;
#X msg -187 273 quality 0;
#X connect 0 0 27 0;
#X connect 1 0 2 0;
#X connect 2 0 5 0;
#X connect 2 0 36 0;
#X connect 3 0 1 0;
#X connect 3 1 6 0;
#X connect 4 0 3 0;
#X connect 5 0 2 1;
#X connect 6 0 2 1;
#X connect 9 0 52 0;
#X connect 12 0 15 0;
#X connect 13 0 12 1;
#X connect 15 0 30 0;
#X connect 16 0 30 2;
#X connect 17 0 22 0;
#X connect 18 0 23 0;
#X connect 18 3 19 0;
#X connect 20 0 51 0;
#X connect 21 0 33 0;
#X connect 22 0 18 0;
#X connect 27 0 28 0;
#X connect 30 0 29 0;
#X connect 31 0 37 0;
#X connect 32 0 12 0;
#X connect 33 0 11 0;
#X connect 34 0 33 1;
#X connect 35 0 18 3;
#X connect 37 0 34 0;
#X connect 38 0 32 0;
#X connect 39 0 12 1;
#X connect 40 0 18 0;
#X connect 41 0 42 0;
#X connect 42 0 18 4;
#X connect 43 0 0 0;
#X connect 46 0 47 0;
#X connect 47 0 4 0;
#X connect 48 0 21 0;
#X connect 52 0 50 0;
#X connect 52 1 22 1;
#X connect 53 0 54 0;
#X connect 54 0 0 0;
#X restore -442 127 pd VIDEO_MAIN;
#N canvas 689 140 488 374 keyboard_ctrl 0;
#X obj 4 -90 key;
#X obj 55 37 - 48;
#X obj 55 67 * -1;
#X obj 55 99 + 9;
#X obj 254 101 print ////////;
#X obj 257 75 bng 15 250 50 0 empty empty empty 17 7 0 10 -262144 -1
-1;
#X obj 82 130 sel 0 1 2 3 4 5 6 7 8 9;
#X obj 126 266 s ref_scale_rec;
#X msg 8 182 0;
#X msg 309 189 9;
#X msg 40 183 1;
#X msg 68 182 2;
#X msg 100 184 3;
#X msg 134 185 4;
#X msg 167 185 5;
#X msg 198 184 6;
#X msg 235 186 7;
#X msg 273 187 8;
#X obj 32 7 sel 32;
#X msg -67 101 \; vidORstill_init 1;
#X obj 15 -53 spigot;
#X obj 49 -72 r PerformanceMode;
#X obj 8 -23 t b f;
#X msg -126 18 \; NewFrame 1 \; reset_scan bang \;;
#X connect 0 0 20 0;
#X connect 0 0 4 0;
#X connect 1 0 2 0;
#X connect 2 0 3 0;
#X connect 3 0 6 0;
#X connect 5 0 4 0;
#X connect 6 0 8 0;
#X connect 6 1 10 0;
#X connect 6 2 11 0;
#X connect 6 3 12 0;
#X connect 6 4 13 0;
#X connect 6 5 14 0;
#X connect 6 6 15 0;
#X connect 6 7 16 0;
#X connect 6 8 17 0;
#X connect 6 9 9 0;
#X connect 8 0 7 0;
#X connect 9 0 7 0;
#X connect 10 0 7 0;
#X connect 11 0 7 0;
#X connect 12 0 7 0;
#X connect 13 0 7 0;
#X connect 14 0 7 0;
#X connect 15 0 7 0;
#X connect 16 0 7 0;
#X connect 17 0 7 0;
#X connect 18 0 19 0;
#X connect 18 1 1 0;
#X connect 20 0 22 0;
#X connect 21 0 20 1;
#X connect 22 0 23 0;
#X connect 22 1 18 0;
#X restore -324 -25 pd keyboard_ctrl;
#N canvas 669 73 607 643 img4ref_scale 0;
#X obj -40 10 r ref_scale_send;
#X obj 26 67 sel 0 1 2 3 4 5 6 7 8 9;
#X msg 134 149 \; vidORstill_init 0 \; img2load open ./images4ref_scale/1_orange.jpg
;
#X msg 120 202 \; vidORstill_init 0 \; img2load open ./images4ref_scale/2_yellow.jpg
;
#X msg 107 252 \; vidORstill_init 0 \; img2load open ./images4ref_scale/3_chartreuse.jpg
;
#X msg 94 308 \; vidORstill_init 0 \; img2load open ./images4ref_scale/4_green.jpg
;
#X msg 80 362 \; vidORstill_init 0 \; img2load open ./images4ref_scale/5_spring_green.jpg
;
#X msg 66 415 \; vidORstill_init 0 \; img2load open ./images4ref_scale/6_sky_blue.jpg
;
#X msg 54 470 \; vidORstill_init 0 \; img2load open ./images4ref_scale/7_slate_blue.jpg
;
#X msg 36 524 \; vidORstill_init 0 \; img2load open ./images4ref_scale/8_indigo.jpg
;
#X msg 21 578 \; vidORstill_init 0 \; img2load open ./images4ref_scale/9_violet.jpg
;
#X msg 153 93 \; vidORstill_init 0 \; img2load open ./images4ref_scale/0_red.jpg
;
#X connect 0 0 1 0;
#X connect 1 0 10 0;
#X connect 1 1 9 0;
#X connect 1 2 8 0;
#X connect 1 3 7 0;
#X connect 1 4 6 0;
#X connect 1 5 5 0;
#X connect 1 6 4 0;
#X connect 1 7 3 0;
#X connect 1 8 2 0;
#X connect 1 9 11 0;
#X restore -323 7 pd img4ref_scale;
#X restore 173 491 pd stuff;
#X obj 49 63 hradio 15 1 0 11 scanspeed scanspeedGUI scan_time 0 -8
0 10 -203904 -1 -1 0;
#X obj 52 -53 cnv 15 80 80 empty empty empty 20 12 0 14 -195568 -66577
0;
#X obj 65 -35 tgl 50 0 startstop empty start/stop -5 -9 0 10 -4034
-1 -1 1 1;
#X obj 129 84 bng 20 250 50 0 reset_scan empty reset_scan 23 7 0 10
-159808 -1 -1;
#N canvas 736 79 450 663 HELP 0;
#X text 20 2 General Description scans vertically frames and outputs
the mean values of H S and V for 12 groups of pixels for each line
and/or gray value for gray pixels;
#X text 17 46 the frames in input are played in gray mode and/or in
color mode;
#X text 25 -19 <<<<<< SonarX >>>>>>;
#X text 12 513 * lowest_pitch: regulates the groundtone frequency;
#X text 14 91 * on/off_video: turns on the video capture;
#X text 14 116 * play_movement: resets a background image when ON and
plays all the pixel that differ from this background;
#X text 13 158 * input_image: switches between video or still image.
to load an image click on the bang "load_still_img" (only works with
still image mode);
#X text 13 206 * vertical_resize: sets the vertical resolution of input
images;
#X text 13 238 * device: choose different capturing device;
#X text 13 260 * color_space: switch between rgb and gray mode;
#X text 14 287 * on/off_OSC: turns on/off udp/OSC connection it connects
video patch to sound patch OBS: by default osundpatch is on Localhost
9998 \, change to your IP adress if you want to link different computers
;
#X text 13 347 * scan_time: controls the "delay/pause" between each
row of played pixels;
#X text 12 381 * reset_scan: resets the scanning to the top;
#X text 13 402 * Gray_Mode: Controls the modes of playing gray (zero
Saturation) pixels: 0 - no sound 1 - white noise 2 - sawtooth wave
at f0/2 frequency 3 - plays white noise AND sawtooth;
#X text 13 461 * on/off_sound: turns on the sound in the sound patch
;
#X text 12 483 * Escalas: chooses different scales (frequency ranges)
for Hue;
#X text 11 533 * SustainTime: controls the sustain. "Hold" lets the
sound play when the scanning stops;
#X text 155 -19 Lab.I.O. (Mick Mengucci & Francisco X Medeiros);
#X text 11 565 * click_on/off: turns on/off the click at the beginning
of the frame;
#X text 10 592 * save_sound: records audio output into a stereo recording
;
#X text 16 608 * keyboard: use keyboard to hear notes of the reference
colors sounds \, press space bar to return to video analysis;
#X restore 177 465 pd HELP;
#N canvas 1 82 450 300 CREDITS 1;
#X text 23 65 NOTE: this is a prototype \, created during the investigation
project SeeThroughSound for the FCT-UNL Faculdade de Ciencias e Tecnologia
(UTA-Exp/MAI/0025/2009 of FCT Portugal). In case of bugs and if it
is usefull to you please email mengucci@gmail.com;
#X restore 163 515 pd CREDITS;
#X obj -146 -64 cnv 15 180 600 empty empty empty 20 12 0 14 -203904
-66577 0;
#X obj -136 -59 tgl 50 0 onoffgemwin empty on/off_video 60 7 0 10 -4032
-1 -1 1 1;
#X obj -132 270 vradio 15 1 0 4 device empty device 0 -8 0 10 -262144
-1 -1 0;
#X text -113 267 pc camera;
#X text -114 282 extra camera;
#X obj -131 356 vradio 15 1 0 2 color_space empty color_space 0 -8
0 10 -262144 -1 -1 0;
#X text -108 355 RGBA;
#X obj -131 405 cnv 15 120 110 empty empty empty 20 12 0 14 -261234
-66577 0;
#X floatatom -123 488 4 0 0 1 width info_width -;
#X floatatom -123 464 4 0 0 1 height info_height -;
#X floatatom -122 441 4 0 0 1 bytes/pixel info_bytes -;
#X floatatom -123 419 5 0 0 1 colorspace info_colorspace -;
#X floatatom -131 222 7 1 100000 1 vertical_resize steps_init steps
;
#X obj -18 28 bng 30 250 50 0 open_still_img empty load_img -7 -8 0
10 -232576 -1 -1;
#X obj -79 -38 tgl 30 0 play_mov play_movGUI play_movement 32 7 0 10
-232576 -1 -1 1 1;
#X obj -136 24 vradio 30 1 0 3 vidORstill vidORstill_init input 0 -10
0 10 -4160 -1 -1 1;
#X obj 241 -65 cnv 15 220 600 empty empty empty 20 12 0 14 -261234
-66577 0;
#X obj 266 -59 tgl 50 0 state stateGUI on/off_sound 60 7 0 10 -260097
-1 -1 0 1;
#X obj 264 300 hsl 100 15 35 880 0 0 f0 f0_init lowest_pitch -2 -8
0 10 -260097 -1 -1 2300 1;
#X floatatom 261 321 10 0 0 0 - - -;
#X obj 371 301 bng 15 250 50 1 reset_f0 empty reset_f0 17 7 0 10 -262144
-1 -1;
#X obj 259 447 tgl 30 0 tikOnOff empty click_on/off 32 7 0 10 -261682
-1 -1 0 1;
#X obj 259 490 tgl 30 0 save_sound empty save_sound 32 7 0 10 -258113
-1 -1 0 1;
#X obj 264 373 hsl 101 15 0 4000 0 1 SustTime SustTime_init SustainTime
-2 -8 0 10 -261682 -1 -1 4750 1;
#X floatatom 261 394 10 0 0 0 - - -;
#X obj 377 373 tgl 15 0 SustOnOff SustOnOff_init Hold 0 -10 0 10 -261682
-1 -1 0 1;
#X obj 377 393 bng 15 250 50 0 SustTimeReset empty reset 17 7 0 10
-262144 -1 -1;
#X obj 56 146 vradio 25 1 0 4 Gmode GmodeGUI Gray_Mode -2 -8 0 10 -99865
-1 -1 0;
#X text 88 173 white_noise;
#X text 88 199 phasor_groundtone;
#X text 88 225 both;
#X text -114 297 extra camera 1;
#X text -114 312 extra camera 2;
#X obj 47 279 vradio 25 1 0 10 ref_scale_send ref_scale_rec Ref_Scale
0 -8 0 10 -232576 -1 -1 0;
#X text 84 279 violet 320;
#X obj 259 35 vradio 25 1 0 9 scale scaleGUI Escalas 0 -8 0 10 -257985
-1 -1 5;
#X text 293 37 octave digital continuous;
#X text 293 60 octave 12 notes (chromatic);
#X text 293 85 26 to 96 (C1 e C7);
#X text 294 161 36.7 / 2093 continuous;
#X text 295 186 pentatonic M;
#X text 295 211 pentatonic m;
#X text 294 236 2 octaves continuos;
#X text 294 136 scale of perfect 4ths;
#X text 294 112 26/2000Hz;
#X text -110 370 Gray;
#X text 83 304 indigo 280;
#X text 81 332 slate blue 257;
#X text 78 355 sky blue 200;
#X text 81 406 green 120;
#X text 79 380 spring green 154;
#X text 80 432 chartreuse 103;
#X text 79 457 yellow 60;
#X text 78 482 orange 30;
#X text 78 506 red 0;
#X obj 382 493 tgl 25 0 PerformanceMode empty keyboard -5 32 0 10 -191407
-1 -1 0 1;
#X obj -18 87 bng 30 250 50 0 open_video empty load_vid -8 -8 0 10
-232576 -1 -1;
#X text -99 34 still img;
#X obj -21 136 tgl 15 0 PausePlay_stored_vid empty pause/play -5 -7
0 10 -4034 -1 -1 0 1;
#X text -98 65 camera;
#X text -99 90 stored vid;
#X obj 143 -46 tgl 30 0 conn empty on/off_OSC 32 7 0 10 -257985 -1
-1 1 1;
#X connect 25 0 26 0;
#X connect 30 0 31 0;
