#N canvas 34 66 603 371 10;
#X declare -lib iemnet -lib mrpeach;
#X obj 57 -40 cnv 15 80 80 empty empty empty 20 12 0 14 -195568 -66577
0;
#X obj 70 -22 tgl 50 0 startstop empty start/stop -5 -9 0 10 -4034
-1 -1 1 1;
#X obj -150 -66 cnv 15 190 360 empty empty IMAGE 70 12 0 14 -203904
-66577 0;
#X obj -138 -31 tgl 50 0 onoffgemwin empty on/off_video 60 7 0 10 -4032
-1 -1 1 1;
#X obj -134 211 vradio 15 1 0 4 device empty device 0 -8 0 10 -262144
-1 -1 0;
#X text -110 208 pc camera;
#X text -111 223 extra camera;
#X obj -20 56 bng 30 250 50 0 open_still_img empty load_img -7 -8 0
10 -232576 -1 -1;
#X obj -138 52 vradio 30 1 0 3 vidORstill vidORstill_init input 0 -10
0 10 -4160 -1 -1 1;
#X obj 293 -66 cnv 15 150 360 empty empty SOUND 70 12 0 14 -261234
-66577 0;
#X obj 300 -36 tgl 50 0 state stateGUI on/off_sound 60 7 0 10 -260097
-1 -1 1 1;
#X obj 302 161 tgl 30 0 save_sound empty save_sound 32 7 0 10 -258113
-1 -1 0 1;
#X text -111 238 extra camera 1;
#X text -111 253 extra camera 2;
#X obj 302 201 tgl 30 0 PerformanceMode empty keyboard_control 35 10
0 10 -191407 -1 -1 0 1;
#X obj -20 115 bng 30 250 50 0 open_video empty load_vid -8 -8 0 10
-232576 -1 -1;
#X text -101 62 still img;
#X obj -23 164 tgl 15 0 PausePlay_stored_vid empty pause/play -5 -7
0 10 -4034 -1 -1 0 1;
#X text -100 93 camera;
#X text -101 118 stored vid;
#X obj 148 -33 tgl 30 0 conn empty on/off_OSC 32 7 0 10 -257985 -1
-1 1 1;
#X obj -136 168 nbx 7 15 0 999999 0 1 frames_speed empty frames_speed
0 -8 0 10 -262144 -1 -1 17 256;
#X floatatom 68 272 10 0 0 1 Frame_Scan_Time FrameScanTime -;
#X obj 215 200 tgl 30 0 scango scango-set on/off_SCAN -15 40 0 10 -232576
-1 -1 1 1;
#N canvas 219 338 782 519 advanced 0;
#X obj 37 137 vradio 25 1 0 4 Gmode GmodeGUI Gray_Mode -2 -8 0 10 -99865
-1 -1 0;
#X text 69 164 white_noise;
#X text 69 190 phasor_groundtone;
#X text 69 216 both;
#X obj 261 -8 vradio 25 1 1 9 scale scaleGUI Escalas 0 -8 0 10 -257985
-1 -1 4;
#X text 296 -7 octave digital continuous;
#X text 296 18 octave 12 notes (chromatic);
#X text 296 143 pentatonic M;
#X text 296 193 2 octaves continuos;
#X text 296 93 scale of perfect 4ths;
#X text 296 68 26/2000Hz;
#X text 296 168 just intonation (2 octaves);
#X obj 36 -4 tgl 50 0 invertH empty invert_Hue 55 7 0 10 -86277 -1
-1 0 1;
#X obj 36 57 tgl 50 0 functVH empty Vol-Hue_function 55 7 0 10 -86853
-1 -1 0 1;
#X obj 39 348 hsl 100 15 0 880 0 0 f0 f0_init empty -2 -8 0 10 -260097
-1 -1 1102 1;
#X floatatom 36 369 10 0 0 0 - - -;
#X obj 146 349 bng 15 250 50 1 reset_f0 empty reset_f0 17 7 0 10 -262144
-1 -1;
#X obj 40 432 hsl 101 15 0 1000 0 1 SustTime SustTime_init SustainTime
-2 -8 0 10 -261682 -1 -1 1000 1;
#X floatatom 37 453 10 0 0 0 - - -;
#X obj 153 432 tgl 15 0 SustOnOff SustOnOff_init Hold 0 -10 0 10 -261682
-1 -1 0 1;
#X obj 153 452 bng 15 250 50 0 SustTimeReset empty reset 17 7 0 10
-262144 -1 -1;
#X obj 40 267 hsl 128 15 0 1 0 1 color_shift color_shift-r color_shift_value
-2 -8 0 10 -204800 -1 -1 190 1;
#X obj -132 0 tgl 30 0 play_mov play_movGUI play_movement 32 7 0 10
-232576 -1 -1 0 1;
#X obj -129 213 vradio 15 1 0 2 color_space empty color_space 0 -8
0 10 -262144 -1 -1 0;
#X text -106 212 RGBA;
#X text -108 227 Gray;
#X obj -143 324 cnv 15 120 110 empty empty empty 20 12 0 14 -261234
-66577 0;
#X floatatom -135 401 4 0 0 1 width info_width -;
#X floatatom -135 377 4 0 0 1 height info_height -;
#X floatatom -134 354 4 0 0 1 bytes/pixel info_bytes -;
#X floatatom -135 332 5 0 0 1 colorspace info_colorspace -;
#X obj -129 162 bng 20 250 50 0 reset_scan empty reset_scan 23 7 0
10 -159808 -1 -1;
#X obj -132 44 tgl 30 0 viewMode viewModeGUI view_mode 32 7 0 10 -232576
-1 -1 0 1;
#X obj -133 89 tgl 30 0 mask_on mask_onGUI mask_on 32 7 0 10 -162280
-1 -1 0 1;
#N canvas 0 0 450 300 (subpatch) 0;
#X array View-H 15 float 3;
#A 0 0.488636 0.449772 0.428819 0.486111 0.468992 0.486773 0.484615
0.486979 0.5 0.5 0.817829 0.829457 0.848148 0.857639 0.8;
#X coords 0 1 15 0 120 140 1 0 0;
#X restore 506 -13 graph;
#N canvas 0 0 450 300 (subpatch) 0;
#X array View-S 15 float 3;
#A 0 0.271605 0.474026 0.705882 0.342857 0.333333 0.386503 0.40625
0.397516 0.298611 0.372549 0.325758 0.330769 0.348837 0.369231 0.223881
;
#X coords 0 1 15 0 120 140 1 0 0;
#X restore 504 159 graph;
#N canvas 0 0 450 300 (subpatch) 0;
#X array View-V 15 float 3;
#A 0 0.635294 0.603922 0.533333 0.54902 0.505882 0.639216 0.627451
0.631373 0.564706 0.6 0.517647 0.509804 0.505882 0.509804 0.52549;
#X coords 0 1 15 0 120 140 1 0 0;
#X restore 502 330 graph;
#X obj 453 439 tgl 30 0 view_tableHSV empty view_tables -32 -10 0 10
-260097 -1 -1 0 1;
#X text 296 118 2 octaves chromatic;
#N canvas 123 124 535 537 MouseData 0;
#X obj 214 -1 cnv 15 100 60 empty empty empty 20 12 0 14 -24198 -66577
0;
#X obj 227 17 gemmouse;
#X floatatom 63 98 9 0 0 1 X-position - -;
#X floatatom 239 133 8 0 0 1 Y-position - -;
#X floatatom 252 107 2 0 0 1 left-Button - -;
#X floatatom 265 87 2 0 0 1 middle-Button - -;
#X floatatom 278 67 2 0 0 1 right-Button - -;
#X obj 239 254 - 74;
#X obj 239 280 / 351;
#X floatatom 238 308 5 0 0 0 - - -;
#X floatatom 99 279 5 0 0 0 - - -;
#X obj 100 214 - 18;
#X obj 217 200 expr $f1>74 && $f1<425;
#X obj 187 229 spigot;
#X obj 164 193 t a a;
#X obj 53 161 spigot;
#X obj 30 125 t a a;
#X obj 83 132 expr $f1>18 && $f1<484;
#X obj 100 247 / 466;
#X obj 151 401 pix_data;
#X obj 151 344 r imgResized;
#X obj 171 433 rgb2hsv;
#X floatatom 242 497 5 0 0 0 - - -;
#X floatatom 145 493 5 0 0 0 - - -;
#X floatatom 195 489 5 0 0 0 - - -;
#X obj 168 464 unpack f f f;
#X obj 70 329 t b f;
#X obj 269 340 t b f;
#X obj 257 171 bng 15 250 50 0 empty empty empty 17 7 0 10 -262144
-1 -1;
#X text 340 9 works for view mode 1 (full);
#X connect 1 0 2 0;
#X connect 1 1 3 0;
#X connect 1 2 4 0;
#X connect 1 3 5 0;
#X connect 1 4 6 0;
#X connect 2 0 16 0;
#X connect 3 0 14 0;
#X connect 4 0 28 0;
#X connect 7 0 8 0;
#X connect 8 0 9 0;
#X connect 8 0 27 0;
#X connect 11 0 18 0;
#X connect 12 0 13 1;
#X connect 13 0 7 0;
#X connect 14 0 13 0;
#X connect 14 1 12 0;
#X connect 15 0 11 0;
#X connect 16 0 15 0;
#X connect 16 1 17 0;
#X connect 17 0 15 1;
#X connect 18 0 10 0;
#X connect 18 0 26 0;
#X connect 19 1 21 0;
#X connect 20 0 19 1;
#X connect 21 0 25 0;
#X connect 25 0 23 0;
#X connect 25 1 24 0;
#X connect 25 2 22 0;
#X connect 26 0 19 0;
#X connect 26 1 19 2;
#X connect 27 0 19 0;
#X connect 27 1 19 3;
#X connect 28 0 19 0;
#X restore -133 262 pd MouseData;
#N canvas 418 272 450 300 Ref4Blind 0;
#X obj 52 18 vradio 25 1 0 10 ref_scale_send ref_scale_rec Ref_Scale
0 -8 0 10 -232576 -1 -1 0;
#X text 89 18 violet 320;
#X text 88 43 indigo 280;
#X text 86 71 slate blue 257;
#X text 83 94 sky blue 200;
#X text 86 145 green 120;
#X text 84 119 spring green 154;
#X text 85 171 chartreuse 103;
#X text 84 196 yellow 60;
#X text 83 221 orange 30;
#X text 83 245 red 0;
#X text 212 14 click on color to be played;
#X obj 236 231 tgl 30 0 tikOnOff empty tik_on/off 32 7 0 10 -261682
-1 -1 0 1;
#X text 232 207 sound at the start of scan;
#X restore -132 289 pd Ref4Blind;
#X floatatom 262 240 7 1 100000 1 vertical_resize steps_init steps
;
#X floatatom 257 425 5 0 0 0 - - -;
#X obj 257 448 s scanspeed;
#X text 254 404 set scantime;
#X text 296 43 Indian Scale (2 octaves);
#X obj 36 324 mtof;
#X floatatom 36 302 5 0 0 0 - f0-Midi-Star -;
#X text 106 369 lowest_pitch f0 (Hz);
#X text 73 301 lowest_pitch f0 (midi);
#X connect 14 0 15 0;
#X connect 17 0 18 0;
#X connect 42 0 43 0;
#X connect 46 0 14 0;
#X connect 47 0 46 0;
#X restore 300 24 pd advanced;
#N canvas 912 589 265 171 stuff 1;
#N canvas 32 170 938 490 mostralinha 0;
#X obj 166 -193 gemhead;
#X obj 161 -9 translateXYZ 0 0 1;
#X obj 287 -189 r posi;
#X obj 287 -99 expr - $f1;
#X obj 288 -120 * 2.7;
#X obj 287 -145 / 479;
#X obj 338 -190 r steps;
#X obj 338 -164 - 1;
#X obj 162 -33 separator;
#X obj 394 -37 separator;
#X floatatom 506 -30 5 0 0 0 - - -;
#X floatatom 543 19 5 0 0 0 - - -;
#X obj 413 33 rectangle 0.01 1.37;
#X obj 161 17 rectangle 1.8 0.011;
#X floatatom 466 -30 5 0 0 0 - - -;
#X obj 394 0 translateXYZ 0.13 -1.37 1;
#X obj 393 -61 spigot;
#X obj 428 -86 tgl 15 0 empty empty empty 17 7 0 10 -262144 -1 -1 0
1;
#X obj 427 -111 r c_line;
#X obj 151 -149 colour 1 0 0;
#X obj -116 37 r posi;
#X obj -116 81 / 479;
#X obj -65 31 r steps;
#X obj -65 62 - 1;
#X obj -198 259 rectangle 1.8 0.011;
#X obj -198 83 separator;
#X obj -118 105 expr 1 - $f1;
#X obj 181 -114 r viewMode;
#X obj 182 -63 spigot;
#X obj 187 -89 == 0;
#X obj -198 233 translateXYZ 0 0 2;
#X floatatom 106 191 5 0 0 0 - - -;
#X obj 180 61 r viewMode;
#X obj 182 88 sel 0 1;
#X msg 206 125 2.06;
#X msg 165 122 1;
#X obj -134 -87 r viewMode;
#X obj -133 -36 spigot;
#X obj -128 -62 == 1;
#X obj -118 148 * 2.7;
#X obj -118 172 - 1.35;
#X connect 0 0 16 0;
#X connect 0 0 19 0;
#X connect 1 0 13 0;
#X connect 2 0 5 0;
#X connect 3 0 1 2;
#X connect 4 0 3 0;
#X connect 5 0 4 0;
#X connect 6 0 7 0;
#X connect 7 0 5 1;
#X connect 8 0 1 0;
#X connect 9 0 15 0;
#X connect 10 0 15 2;
#X connect 11 0 12 2;
#X connect 14 0 15 1;
#X connect 15 0 12 0;
#X connect 16 0 9 0;
#X connect 17 0 16 1;
#X connect 18 0 17 0;
#X connect 19 0 28 0;
#X connect 19 0 37 0;
#X connect 20 0 21 0;
#X connect 21 0 26 0;
#X connect 22 0 23 0;
#X connect 23 0 21 1;
#X connect 25 0 30 0;
#X connect 26 0 39 0;
#X connect 27 0 29 0;
#X connect 28 0 8 0;
#X connect 29 0 28 1;
#X connect 30 0 24 0;
#X connect 31 0 30 3;
#X connect 32 0 33 0;
#X connect 33 0 35 0;
#X connect 33 1 34 0;
#X connect 34 0 31 0;
#X connect 35 0 31 0;
#X connect 36 0 38 0;
#X connect 37 0 25 0;
#X connect 38 0 37 1;
#X connect 39 0 40 0;
#X connect 40 0 30 2;
#X restore -442 64 pd mostralinha;
#X obj -443 3 HSV2OSC;
#N canvas 757 293 493 318 WINDOW 1;
#X obj -395 111 gemwin;
#X msg -447 23 create \, 1;
#X msg -323 28 destroy;
#X obj -375 -93 r onoffgemwin;
#X obj -371 -69 sel 1 0;
#X msg -267 16 \; state 0 \;;
#X obj -295 -17 t b b;
#X obj -427 -45 t b b;
#X msg -384 3 \; state 1 \;;
#X msg -219 -32 fps 30;
#X msg -310 90 dimen 1280 720;
#X msg -319 62 dimen 1280 1024 \, border 0 \, offset 1280 0;
#X connect 1 0 0 0;
#X connect 2 0 0 0;
#X connect 3 0 4 0;
#X connect 4 0 7 0;
#X connect 4 1 6 0;
#X connect 6 0 2 0;
#X connect 6 1 5 0;
#X connect 7 0 1 0;
#X connect 7 1 8 0;
#X connect 9 0 0 0;
#X connect 10 0 0 0;
#X connect 11 0 0 0;
#X restore -444 -28 pd WINDOW;
#N canvas 403 151 450 300 EXT_CTRL 0;
#X obj 188 145 s state;
#X obj 188 122 tgl 15 0 empty empty empty 17 7 0 10 -262144 -1 -1 0
1;
#N canvas 1 110 251 247 and_ctrl 0;
#X obj 23 16 udpreceive 8000;
#X obj 44 51 unpackOSC;
#X obj 165 145 print;
#X obj 28 98 route /1/fader1 /1/push1;
#X floatatom 104 144 5 0 0 0 - - -;
#X floatatom 33 140 5 0 0 0 - - -;
#X obj 48 175 outlet;
#X obj 115 183 outlet;
#X connect 0 0 1 0;
#X connect 1 0 3 0;
#X connect 3 0 5 0;
#X connect 3 1 4 0;
#X connect 4 0 7 0;
#X connect 5 0 6 0;
#X restore 37 75 pd and_ctrl;
#X floatatom 105 110 5 0 0 0 - - -;
#X floatatom 34 106 5 0 0 0 - - -;
#X obj 37 127 * 10;
#X obj 279 36 s scanspeed;
#X obj -13 160 s scanspeed;
#X obj 275 59 s scanspeedGUI;
#X obj 73 160 s scanspeedGUI;
#X obj 104 138 s stateGUI;
#X connect 1 0 0 0;
#X connect 2 0 4 0;
#X connect 2 1 3 0;
#X connect 3 0 1 0;
#X connect 3 0 10 0;
#X connect 4 0 5 0;
#X connect 5 0 7 0;
#X connect 5 0 9 0;
#X restore -443 35 pd EXT_CTRL;
#N canvas 667 273 331 367 INIT 0;
#X obj -303 3 loadbang;
#X obj -298 222 r reset_f0;
#X obj -268 243 r Gmode;
#X obj -268 273 sel 2;
#X obj -297 332 s f0_init;
#X obj -168 227 r SustTimeReset;
#X msg -168 254 \; SustTime_init 200 \; SustOnOff_init 0 \;;
#X msg -298 303 60;
#X msg -301 29 \; f0_init 60 \; f0-Midi-Star 43 \; SustTime_init 100
\; steps_init 480 \; vidORstill_init 1 \; scanspeedGUI 4 \; play_mov
0 \; end_line 1 \; img2load open ./images/nxerainbowlines2.jpg \; viewMode
0 \; color_shift-r 0.015 \; scango-set 1 \; stateGUI 1 \;;
#X connect 0 0 8 0;
#X connect 1 0 7 0;
#X connect 2 0 3 0;
#X connect 3 0 7 0;
#X connect 5 0 6 0;
#X connect 7 0 4 0;
#X restore -443 90 pd INIT;
#N canvas 332 134 945 665 VIDEO_MAIN 0;
#X obj -270 406 pix_texture;
#X obj 35 368 until;
#X obj 35 392 f;
#X obj 35 340 t a b;
#X obj 64 392 + 1;
#X obj 76 368 0;
#X obj 100 -93 cnv 15 100 60 empty empty empty 20 12 0 14 -195568 -66577
0;
#X text 101 -97 start / stop;
#X obj 125 -76 tgl 30 0 empty startstop empty 17 7 0 10 -4034 -1 -1
1 1;
#X text 253 553 sends signal of end line;
#X obj -325 -2 pix_buffer_write frame;
#X msg -182 -38 1;
#X obj -20 -70 pix_buffer frame 2;
#X obj -269 136 pix_texture;
#X floatatom -172 154 5 0 0 0 - - -;
#X obj 197 35 r end_line;
#X obj 276 146 s NewFrame;
#X obj 306 -69 r NewFrame;
#X obj 197 60 spigot;
#X obj 105 287 s posi;
#X text 111 445 pix-group number;
#X text 276 100 triggers 480 lines scan;
#X obj -270 434 translateXYZ 0 -1.8 0;
#X obj -270 460 rectangle 2.4 1.8;
#X obj -269 176 translateXYZ 0 2 0;
#X obj 356 374 r scanspeed;
#N canvas 258 219 450 300 video_info 0;
#X obj 59 40 inlet;
#X obj 64 113 pix_info --------------;
#X obj 52 214 s info_width;
#X obj 69 240 s info_height;
#X obj 192 190 s info_bytes;
#X obj 225 215 s info_colorspace;
#X obj 31 260 outlet;
#X obj 166 288 s steps_init;
#X connect 0 0 1 0;
#X connect 1 0 6 0;
#X connect 1 1 2 0;
#X connect 1 2 3 0;
#X connect 1 3 4 0;
#X connect 1 4 5 0;
#X restore -325 -34 pd video_info;
#X obj 257 476 delay 0.5;
#X obj 345 468 + 0.5;
#X obj 251 52 r reset_scan;
#X obj 35 527 send pix_groupN;
#X obj 357 404 pow 1.5;
#N canvas 1 188 867 611 framesIN 1;
#X obj -37 422 outlet;
#X obj -138 -68 gemhead;
#X obj -110 -4 cnv 15 80 30 empty empty empty 20 12 0 14 -24198 -66577
0;
#X obj -102 3 pix_video;
#N canvas 536 324 473 300 video_set 0;
#X obj -154 239 outlet;
#X msg -121 29 dimen 640 480;
#X obj -298 8 r device;
#X msg -254 99 device \$1;
#X obj -298 36 t b f b;
#X msg -247 62 \; onoffgemwin 0 \;;
#X obj -301 143 delay 500;
#X msg -301 168 \; onoffgemwin 1 \;;
#X msg 19 68 colorspace RGB;
#X msg 32 92 colorspace Grey;
#X obj 22 17 r color_space;
#X obj 22 42 sel 0 1;
#X msg -48 178 enumProps;
#X obj -82 216 r \$0-ctl;
#X connect 1 0 0 0;
#X connect 2 0 4 0;
#X connect 3 0 0 0;
#X connect 4 0 6 0;
#X connect 4 1 3 0;
#X connect 4 2 5 0;
#X connect 6 0 7 0;
#X connect 8 0 0 0;
#X connect 9 0 0 0;
#X connect 10 0 11 0;
#X connect 11 0 8 0;
#X connect 11 1 9 0;
#X connect 12 0 0 0;
#X connect 13 0 0 0;
#X restore -242 -108 pd video_set;
#X obj 178 379 pix_background;
#X obj 180 290 r play_mov;
#X obj 289 255 loadbang;
#X msg 271 285 0.2;
#X floatatom 269 309 5 0 0 0 - - -;
#X obj 186 321 sel 1;
#X msg 181 347 reset;
#X floatatom 314 309 5 0 0 0 - - -;
#X msg 314 284 1;
#X obj 314 343 s vidORstill;
#X obj -41 31 print;
#X obj -49 57 s \$0-info;
#X obj 163 232 r play_mov;
#X msg 18 -38 enumProps;
#X msg -289 -30 set Auto White Balance 0;
#X msg -233 10 applyProps;
#X msg -233 37 set White 0;
#X obj -139 -121 r vidORstill;
#X obj -139 -93 == 1;
#X obj 221 71 cnv 15 80 30 empty empty empty 20 12 0 14 -24198 -66577
0;
#X msg 121 43 colorspace Grey;
#X msg 220 21 auto \$1;
#X obj 359 -62 tgl 15 0 empty PausePlay_stored_vid ResetStop_stored_vid
17 7 0 10 -262144 -1 -1 1 1;
#X obj 121 -4 r color_space;
#X obj 121 20 sel 1;
#X obj 358 -86 loadbang;
#X floatatom 299 50 5 0 0 0 - - -;
#X obj 272 25 gemhead;
#X obj 359 6 metro 30;
#X floatatom 404 -16 5 0 0 0 - - -;
#X obj 232 78 pix_film;
#X obj 253 107 unpack 0 0 0;
#X floatatom 243 130 5 0 0 3 length - -;
#X floatatom 292 130 5 0 0 3 width - -;
#X floatatom 341 134 5 0 0 3 height - -;
#X obj 359 37 counter 30;
#X obj 404 -39 r frames_speed;
#X obj 418 72 bng 15 250 50 0 empty empty empty 17 7 0 10 -262144 -1
-1;
#X text 441 69 reset video;
#X obj 381 114 s steps_init;
#N canvas 591 193 450 300 OPENVIDEO 0;
#X obj 22 -437 bng 15 250 50 0 empty open_video open_video 17 7 0 10
-262144 -1 -1;
#X obj 22 -416 openpanel;
#X msg 22 -396 open \$1;
#X obj -146 -316 metro 100;
#X obj -120 -355 tgl 15 0 empty empty empty 17 7 0 10 -262144 -1 -1
0 1;
#X obj 52 -368 t b b a;
#X obj 41 -300 delay 400;
#X msg -40 -248 \; NewFrame 1 \; end_line bang \; reset_scan bang \;
;
#X obj 126 -225 outlet;
#X connect 0 0 1 0;
#X connect 1 0 2 0;
#X connect 2 0 5 0;
#X connect 4 0 3 0;
#X connect 5 0 6 0;
#X connect 5 1 7 0;
#X connect 5 2 8 0;
#X connect 6 0 7 0;
#X restore 229 -63 pd OPENVIDEO;
#X obj 272 -23 r vidORstill;
#X obj 272 1 == 2;
#X msg 128 79 colorspace RGB;
#X obj 255 173 s Film_Length;
#X obj 444 7 r Film_Length;
#X obj -246 361 cnv 15 80 30 empty empty empty 20 12 0 14 -24198 -66577
0;
#X msg -205 331 open \$1;
#X obj -240 370 pix_image;
#X obj -191 214 r img2load;
#X obj -240 130 r vidORstill;
#X obj -240 150 == 0;
#X obj -57 113 tgl 15 0 empty mask_on mask_on 17 7 0 10 -262144 -1
-1 0 1;
#X obj -121 144 mask_image;
#X obj -240 181 gemhead 31;
#X obj -170 293 openpanel;
#X obj -171 268 bng 15 250 50 0 empty open_still_img empty 17 7 0 10
-262144 -1 -1;
#X obj 104 268 demux 0 1;
#X msg 5 -102 clearProps \, setProps screen-fps 15 \, setProps heigth
600 \, setProps width 300 \, device screen://;
#X msg -66 -147 driver vlc;
#X msg 8 -146 clearProps \, setProps screen-fps 5 \, setProps heigth
800 \, setProps width 300 \, device http://192.168.1.69:8080/sonar
;
#X msg -280 -66 driver v4l2;
#X connect 1 0 3 0;
#X connect 3 0 58 0;
#X connect 3 1 15 0;
#X connect 3 1 16 0;
#X connect 4 0 3 0;
#X connect 5 0 0 0;
#X connect 6 0 10 0;
#X connect 7 0 8 0;
#X connect 7 0 13 0;
#X connect 8 0 9 0;
#X connect 9 0 5 1;
#X connect 10 0 11 0;
#X connect 11 0 5 0;
#X connect 12 0 14 0;
#X connect 13 0 12 0;
#X connect 17 0 62 1;
#X connect 18 0 3 0;
#X connect 19 0 3 0;
#X connect 20 0 3 0;
#X connect 21 0 3 0;
#X connect 22 0 23 0;
#X connect 23 0 1 0;
#X connect 25 0 35 0;
#X connect 26 0 35 0;
#X connect 27 0 33 0;
#X connect 28 0 29 0;
#X connect 29 0 25 0;
#X connect 30 0 27 0;
#X connect 31 0 35 1;
#X connect 32 0 35 0;
#X connect 33 0 40 0;
#X connect 34 0 33 1;
#X connect 35 0 62 0;
#X connect 35 1 36 0;
#X connect 36 0 37 0;
#X connect 36 0 49 0;
#X connect 36 1 38 0;
#X connect 36 2 39 0;
#X connect 36 2 44 0;
#X connect 40 0 35 1;
#X connect 41 0 34 0;
#X connect 42 0 40 3;
#X connect 45 0 35 0;
#X connect 46 0 47 0;
#X connect 47 0 32 0;
#X connect 48 0 35 0;
#X connect 50 0 40 4;
#X connect 52 0 53 0;
#X connect 53 0 0 0;
#X connect 54 0 53 0;
#X connect 55 0 56 0;
#X connect 56 0 59 0;
#X connect 57 0 58 1;
#X connect 58 0 62 0;
#X connect 59 0 53 0;
#X connect 60 0 52 0;
#X connect 61 0 60 0;
#X connect 62 0 0 0;
#X connect 62 1 5 0;
#X connect 63 0 3 0;
#X connect 64 0 3 0;
#X connect 65 0 3 0;
#X connect 66 0 3 0;
#X restore -325 -71 pd framesIN;
#X obj -194 -92 r bufWrite;
#X obj 354 28 r steps;
#X obj 354 54 - 1;
#X obj -270 304 r imgResized;
#N canvas 315 239 540 505 RESIZE-IT 0;
#X obj -118 266 pix_resize;
#X obj -50 168 pix_buffer_read frame;
#X obj -58 128 gemhead;
#X text -228 214 read and resize frame from buffer;
#X obj -161 102 pack f f;
#X msg -161 126 dimen \$1 \$2;
#X obj -144 -20 r steps;
#X obj 68 129 r bufRead;
#X obj -144 34 t b f;
#X obj -122 347 s imgResized;
#X obj -7 222 r CleanVid;
#X obj -144 9 change;
#X obj -242 -45 r color_space;
#X obj -242 -10 sel 0 1;
#X msg -242 33 15;
#X msg -209 27 16;
#X obj -165 76 f 15;
#X obj -118 304 mask_image;
#X connect 0 0 17 0;
#X connect 1 0 0 0;
#X connect 2 0 1 0;
#X connect 4 0 5 0;
#X connect 5 0 0 0;
#X connect 6 0 11 0;
#X connect 7 0 1 1;
#X connect 8 0 16 0;
#X connect 8 1 4 1;
#X connect 10 0 0 0;
#X connect 11 0 8 0;
#X connect 12 0 13 0;
#X connect 13 0 14 0;
#X connect 13 1 15 0;
#X connect 14 0 16 0;
#X connect 15 0 16 0;
#X connect 16 0 4 0;
#X connect 17 0 9 0;
#X restore -270 276 pd RESIZE-IT;
#X obj 36 258 r posi;
#X msg 35 291 bang;
#X obj 257 412 r pix_groupN;
#N canvas 252 80 685 617 readPixels 0;
#X obj 44 193 pix_data;
#X text 116 189 GETS PIXELS VALUES FROM FRAME;
#X obj 32 480 send HSV3plet;
#X obj -31 411 loadbang;
#X obj 154 152 expr 1 - $f1/$f2;
#X obj 247 100 r steps;
#X obj 247 125 - 1;
#X obj 59 41 r imgResized;
#X obj 169 81 r posi;
#X obj 44 -82 r pix_groupN;
#X obj 169 340 print checkPixData;
#X obj 219 316 tgl 15 0 empty empty empty 17 7 0 10 -262144 -1 -1 0
1;
#X obj 164 317 spigot;
#X msg -28 438 0 0 0;
#X obj 346 338 unpack f f f;
#X floatatom 300 420 5 0 0 0 - - -;
#X floatatom 300 463 10 0 0 0 - - -;
#X obj 301 385 tabwrite View-H;
#X obj 524 387 tabwrite View-V;
#X obj 414 388 tabwrite View-S;
#X obj 300 441 tabread View-H;
#X obj 346 277 spigot;
#X obj 379 248 tgl 15 0 empty view_tableHSV view_tableHSV 17 7 0 10
-262144 -1 -1 0 1;
#X obj 154 110 f;
#X obj 44 -6 t b f b;
#X obj 171 -66 r pix_groupN-Vert;
#X msg 160 40 0.5;
#X obj 68 256 rgb2Y;
#X obj 51 423 mux 1 2;
#X obj 117 390 tgl 15 0 empty empty switch_HSV_HCY 17 7 0 10 -262144
-1 -1 0 1;
#X obj 137 271 rgb2hsv;
#X obj 66 87 / 14;
#X obj 198 21 / 14;
#X obj 171 -33 t b b f;
#X obj 402 23 print;
#X obj 406 -8 bng 15 250 50 0 empty empty empty 17 7 0 10 -262144 -1
-1;
#X obj 472 330 r pix_groupN;
#X obj 352 210 r HSV3plet;
#X connect 0 1 27 0;
#X connect 0 1 30 0;
#X connect 3 0 13 0;
#X connect 4 0 0 3;
#X connect 5 0 6 0;
#X connect 6 0 4 1;
#X connect 7 0 0 1;
#X connect 8 0 23 1;
#X connect 9 0 24 0;
#X connect 11 0 12 1;
#X connect 12 0 10 0;
#X connect 13 0 2 0;
#X connect 14 0 17 0;
#X connect 14 1 19 0;
#X connect 14 2 18 0;
#X connect 15 0 20 0;
#X connect 20 0 16 0;
#X connect 21 0 14 0;
#X connect 22 0 21 1;
#X connect 23 0 4 0;
#X connect 24 0 0 0;
#X connect 24 1 31 0;
#X connect 24 2 23 0;
#X connect 25 0 33 0;
#X connect 26 0 0 2;
#X connect 27 0 28 1;
#X connect 28 0 2 0;
#X connect 29 0 28 2;
#X connect 30 0 12 0;
#X connect 30 0 27 1;
#X connect 30 0 28 0;
#X connect 31 0 0 2;
#X connect 32 0 0 3;
#X connect 33 0 0 0;
#X connect 33 1 26 0;
#X connect 33 2 32 0;
#X connect 35 0 34 0;
#X connect 36 0 18 1;
#X connect 36 0 19 1;
#X connect 36 0 17 1;
#X connect 37 0 21 0;
#X restore -269 496 pd readPixels;
#X obj 243 -23 t f f;
#X obj -348 322 loadbang;
#X msg -349 343 quality 0;
#X obj 197 104 counter 479;
#X msg 85 18 \; NewFrame \$1 \; end_line bang \;;
#X floatatom 424 465 5 0 0 0 - - -;
#X obj 228 212 timer;
#X floatatom 224 237 10 0 0 0 - - -;
#X obj 225 191 b;
#X obj 260 186 b;
#X obj 224 260 s FrameScanTime;
#X msg 257 510 \; end_line bang \; NewFrame 1 \;;
#X obj 92 589 bng 15 250 50 0 empty empty empty 17 7 0 10 -262144 -1
-1;
#X obj 105 212 demux;
#X obj 131 192 tgl 15 0 empty empty empty 17 7 0 10 -262144 -1 -1 0
1;
#X obj 80 496 send pix_groupN-Vert;
#X obj 59 419 send pix_groupFULL;
#X obj 128 135 r scango;
#X obj 119 263 f;
#X obj 135 238 b;
#X msg -246 107 quality \$1;
#X obj -246 86 tgl 15 0 empty empty empty 0 -6 0 8 -262144 -1 -1 0
1;
#X obj 410 -50 r posi;
#X obj 411 -28 sel 0;
#X msg 412 -4 1;
#X obj 412 19 s 0cross;
#X obj -269 235 rectangle 2.4 1.8;
#X floatatom -186 208 5 0 0 0 - - -;
#X floatatom -142 205 5 0 0 0 - - -;
#X obj -173 83 loadbang;
#X msg -174 104 quality 0;
#X obj 35 444 moses 15;
#X obj 80 471 - 15;
#X obj 255 442 sel 14;
#X msg 34 318 15;
#X text 62 318 triggers 15 pix-groups scan in each horizontal line
\,;
#X floatatom 432 405 5 0 0 0 - - -;
#X floatatom 404 434 5 0 0 0 - - -;
#X obj -270 378 spigot;
#X obj -237 326 r viewMode;
#X obj -237 347 == 0;
#X obj -92 49 r viewMode;
#X obj -91 100 == 0;
#X obj -92 132 * 2;
#X floatatom -94 183 5 0 0 0 - - -;
#X obj -90 76 t f f;
#X obj -50 99 == 1;
#X obj -51 131 * 1.42;
#X msg 306 -37 \; bufWrite 1 \; bufRead 1 \;;
#X text 344 145 Ligar se der problemas;
#X floatatom -231 -64 5 0 0 0 - - -;
#X floatatom 159 271 5 0 0 0 - - -;
#X obj 379 210 r man_scan;
#X obj 387 263 * 1;
#X obj 415 236 r steps;
#X obj 129 167 == 0;
#X connect 0 0 22 0;
#X connect 1 0 2 0;
#X connect 2 0 4 0;
#X connect 2 0 58 0;
#X connect 2 0 73 0;
#X connect 3 0 1 0;
#X connect 3 1 5 0;
#X connect 4 0 2 1;
#X connect 5 0 2 1;
#X connect 8 0 42 0;
#X connect 10 0 13 0;
#X connect 11 0 10 1;
#X connect 13 0 24 0;
#X connect 14 0 24 2;
#X connect 15 0 18 0;
#X connect 17 0 90 0;
#X connect 18 0 45 0;
#X connect 22 0 23 0;
#X connect 24 0 68 0;
#X connect 25 0 31 0;
#X connect 25 0 78 0;
#X connect 26 0 10 0;
#X connect 27 0 53 0;
#X connect 28 0 27 1;
#X connect 29 0 45 3;
#X connect 31 0 28 0;
#X connect 32 0 26 0;
#X connect 33 0 10 1;
#X connect 33 0 92 0;
#X connect 34 0 35 0;
#X connect 35 0 45 4;
#X connect 36 0 80 0;
#X connect 38 0 39 0;
#X connect 39 0 76 0;
#X connect 40 0 75 0;
#X connect 42 0 46 0;
#X connect 42 1 18 1;
#X connect 43 0 44 0;
#X connect 44 0 0 0;
#X connect 45 0 55 0;
#X connect 45 2 50 0;
#X connect 45 3 51 0;
#X connect 47 0 28 0;
#X connect 48 0 49 0;
#X connect 49 0 52 0;
#X connect 50 0 48 0;
#X connect 51 0 48 1;
#X connect 55 0 19 0;
#X connect 55 0 60 1;
#X connect 55 1 61 0;
#X connect 56 0 55 1;
#X connect 59 0 97 0;
#X connect 60 0 19 0;
#X connect 61 0 60 0;
#X connect 62 0 13 0;
#X connect 63 0 62 0;
#X connect 64 0 65 0;
#X connect 65 0 66 0;
#X connect 66 0 67 0;
#X connect 69 0 68 1;
#X connect 70 0 68 2;
#X connect 71 0 72 0;
#X connect 72 0 13 0;
#X connect 73 0 30 0;
#X connect 73 1 74 0;
#X connect 74 0 57 0;
#X connect 75 0 27 0;
#X connect 76 0 3 0;
#X connect 79 0 31 0;
#X connect 80 0 0 0;
#X connect 81 0 82 0;
#X connect 82 0 80 1;
#X connect 83 0 87 0;
#X connect 84 0 85 0;
#X connect 85 0 14 0;
#X connect 86 0 24 3;
#X connect 87 0 84 0;
#X connect 87 1 88 0;
#X connect 88 0 89 0;
#X connect 89 0 86 0;
#X connect 93 0 60 1;
#X connect 94 0 95 0;
#X connect 95 0 60 1;
#X connect 96 0 95 1;
#X connect 97 0 56 0;
#X restore -442 127 pd VIDEO_MAIN;
#N canvas 683 141 488 374 keyboard_ctrl 0;
#X obj 4 -90 key;
#X obj 55 37 - 48;
#X obj 55 67 * -1;
#X obj 55 99 + 9;
#X obj 254 101 print ////////;
#X obj 257 75 bng 15 250 50 0 empty empty empty 17 7 0 10 -262144 -1
-1;
#X obj 82 130 sel 0 1 2 3 4 5 6 7 8 9;
#X obj 126 266 s ref_scale_rec;
#X msg 8 182 0;
#X msg 309 189 9;
#X msg 40 183 1;
#X msg 68 182 2;
#X msg 100 184 3;
#X msg 134 185 4;
#X msg 167 185 5;
#X msg 198 184 6;
#X msg 235 186 7;
#X msg 273 187 8;
#X obj 32 7 sel 32;
#X msg -67 101 \; vidORstill_init 1;
#X obj 15 -53 spigot;
#X obj 49 -72 r PerformanceMode;
#X obj 8 -23 t b f;
#X msg -126 18 \; NewFrame 1 \; reset_scan bang \;;
#X connect 0 0 20 0;
#X connect 1 0 2 0;
#X connect 2 0 3 0;
#X connect 3 0 6 0;
#X connect 5 0 4 0;
#X connect 6 0 8 0;
#X connect 6 1 10 0;
#X connect 6 2 11 0;
#X connect 6 3 12 0;
#X connect 6 4 13 0;
#X connect 6 5 14 0;
#X connect 6 6 15 0;
#X connect 6 7 16 0;
#X connect 6 8 17 0;
#X connect 6 9 9 0;
#X connect 8 0 7 0;
#X connect 9 0 7 0;
#X connect 10 0 7 0;
#X connect 11 0 7 0;
#X connect 12 0 7 0;
#X connect 13 0 7 0;
#X connect 14 0 7 0;
#X connect 15 0 7 0;
#X connect 16 0 7 0;
#X connect 17 0 7 0;
#X connect 18 0 19 0;
#X connect 18 1 1 0;
#X connect 20 0 22 0;
#X connect 21 0 20 1;
#X connect 22 0 23 0;
#X connect 22 1 18 0;
#X restore -324 -25 pd keyboard_ctrl;
#N canvas 651 87 607 643 img4ref_scale 0;
#X obj -40 10 r ref_scale_send;
#X obj 26 67 sel 0 1 2 3 4 5 6 7 8 9;
#X msg 155 97 \; vidORstill_init 0 \; img2load open images/images4ref_scale/0_red.jpg
;
#X msg 134 149 \; vidORstill_init 0 \; img2load open images/images4ref_scale/1_orange.jpg
;
#X msg 120 202 \; vidORstill_init 0 \; img2load open images/images4ref_scale/2_yellow.jpg
;
#X msg 107 252 \; vidORstill_init 0 \; img2load open images/images4ref_scale/3_chartreuse.jpg
;
#X msg 94 308 \; vidORstill_init 0 \; img2load open images/images4ref_scale/4_green.jpg
;
#X msg 82 362 \; vidORstill_init 0 \; img2load open images/images4ref_scale/5_spring_green.jpg
;
#X msg 66 415 \; vidORstill_init 0 \; img2load open images/images4ref_scale/6_sky_blue.jpg
;
#X msg 54 470 \; vidORstill_init 0 \; img2load open images/images4ref_scale/7_slate_blue.jpg
;
#X msg 36 524 \; vidORstill_init 0 \; img2load open images/images4ref_scale/8_indigo.jpg
;
#X msg 21 578 \; vidORstill_init 0 \; img2load open images/images4ref_scale/9_violet.jpg
;
#X connect 0 0 1 0;
#X connect 1 0 11 0;
#X connect 1 1 10 0;
#X connect 1 2 9 0;
#X connect 1 3 8 0;
#X connect 1 4 7 0;
#X connect 1 5 6 0;
#X connect 1 6 5 0;
#X connect 1 7 4 0;
#X connect 1 8 3 0;
#X connect 1 9 2 0;
#X restore -323 7 pd img4ref_scale;
#X restore 300 51 pd stuff;
#N canvas 736 79 450 663 HELP 0;
#X text 20 2 General Description scans vertically frames and outputs
the mean values of H S and V for 12 groups of pixels for each line
and/or gray value for gray pixels;
#X text 17 46 the frames in input are played in gray mode and/or in
color mode;
#X text 25 -19 <<<<<< SonarX >>>>>>;
#X text 12 513 * lowest_pitch: regulates the groundtone frequency;
#X text 14 91 * on/off_video: turns on the video capture;
#X text 14 116 * play_movement: resets a background image when ON and
plays all the pixel that differ from this background;
#X text 13 158 * input_image: switches between video or still image.
to load an image click on the bang "load_still_img" (only works with
still image mode);
#X text 13 206 * vertical_resize: sets the vertical resolution of input
images;
#X text 13 238 * device: choose different capturing device;
#X text 13 260 * color_space: switch between rgb and gray mode;
#X text 14 287 * on/off_OSC: turns on/off udp/OSC connection it connects
video patch to sound patch OBS: by default osundpatch is on Localhost
9998 \, change to your IP adress if you want to link different computers
;
#X text 13 347 * scan_time: controls the "delay/pause" between each
row of played pixels;
#X text 12 381 * reset_scan: resets the scanning to the top;
#X text 13 402 * Gray_Mode: Controls the modes of playing gray (zero
Saturation) pixels: 0 - no sound 1 - white noise 2 - sawtooth wave
at f0/2 frequency 3 - plays white noise AND sawtooth;
#X text 13 461 * on/off_sound: turns on the sound in the sound patch
;
#X text 12 483 * Escalas: chooses different scales (frequency ranges)
for Hue;
#X text 11 533 * SustainTime: controls the sustain. "Hold" lets the
sound play when the scanning stops;
#X text 155 -19 Lab.I.O. (Mick Mengucci & Francisco X Medeiros);
#X text 11 565 * click_on/off: turns on/off the click at the beginning
of the frame;
#X text 10 592 * save_sound: records audio output into a stereo recording
;
#X text 16 608 * keyboard: use keyboard to hear notes of the reference
colors sounds \, press space bar to return to video analysis;
#X restore 300 78 pd HELP;
#N canvas 1 81 450 300 CREDITS 0;
#X text 23 65 NOTE: this is a prototype \, created during the investigation
project SeeThroughSound for the FCT-UNL Faculdade de Ciencias e Tecnologia
(UTA-Exp/MAI/0025/2009 of FCT Portugal). In case of bugs and if it
is usefull to you please email mengucci@gmail.com;
#X restore 300 105 pd CREDITS;
#X obj 171 88 vsl 15 128 1 0 0 0 man_scan empty empty 0 -9 0 20 -232576
-1 -1 0 1;
#X text 160 216 manual;
#X text 161 226 scan;
#X obj 65 64 vradio 15 1 0 13 scanspeed scanspeedGUI scan_time 0 -8
0 10 -203904 -1 -1 4;
#X text 85 63 fast;
#X text 85 240 slow;
#X text 132 -70 versione 5 Junho 2014;
