#N canvas 1664 433 1141 466 10;
#X declare -lib mrpeach;
#X obj 687 -390 import mrpeach;
#X obj 469 -394 sounds;
#X text 10 -397 play_sonarX: gets HSV triplets from SonarX and plays
the corresponding oscillators \, while the f0 is the "gray" ground
tone;
#N canvas 485 242 578 427 recOSC 0;
#X obj 1 49 unpackOSC;
#X obj 1 11 udpreceive 9998;
#X obj 26 209 makefilename Synth_%d;
#X obj 3 178 pack 0 0 0;
#X obj 7 229 send;
#X obj 3 144 unpack f f f f;
#X obj 113 393 s scalaH;
#X obj 110 258 vradio 15 1 0 9 empty empty empty 0 -8 0 10 -262144
-1 -1 8;
#X text 131 270 octave 12 notes (cromatic);
#X text 107 238 scale to output H values;
#X text 128 254 octave digital continuous;
#X obj 192 208 s 0cross;
#X obj 199 177 s save_sound;
#X obj 262 217 s tikOnOff;
#X text 141 374 2 octaves continuos (36/60);
#X obj 106 160 s state;
#X obj 153 183 s f0;
#X obj 288 191 s Gmode;
#X obj 345 230 s SustOnOff;
#X obj 355 203 s SustTime;
#X obj 439 230 s ref_scale;
#X obj 447 205 s c_line;
#X obj 425 291 s functVH-set;
#X obj 385 314 s invertH-set;
#X obj 457 272 s color_shift;
#X obj 435 61 bng 15 250 50 0 empty empty empty 17 7 0 10 -262144 -1
-1;
#X obj 456 82 print ++++++++;
#X obj 460 53 repeat 10;
#X obj -18 311 print check;
#X obj 56 86 routeOSC /Synth /State /Scale /f0 /0cross /save_sound
/tikOnOff /Gmode /SustOnOff /SustTime /RefScale /c_line /invertH /functVH
/color_shift-set /MainVol;
#X obj 438 162 s V;
#X connect 0 0 29 0;
#X connect 1 0 0 0;
#X connect 2 0 4 1;
#X connect 3 0 4 0;
#X connect 5 0 3 0;
#X connect 5 1 3 1;
#X connect 5 2 3 2;
#X connect 5 3 2 0;
#X connect 7 0 6 0;
#X connect 25 0 27 0;
#X connect 27 0 26 0;
#X connect 29 0 5 0;
#X connect 29 1 15 0;
#X connect 29 2 7 0;
#X connect 29 3 16 0;
#X connect 29 4 11 0;
#X connect 29 5 12 0;
#X connect 29 6 13 0;
#X connect 29 7 17 0;
#X connect 29 8 18 0;
#X connect 29 9 19 0;
#X connect 29 10 20 0;
#X connect 29 11 21 0;
#X connect 29 12 23 0;
#X connect 29 13 22 0;
#X connect 29 14 24 0;
#X connect 29 15 30 0;
#X restore 524 -394 pd recOSC;
#X obj 17 -337 cnv 15 350 150 empty empty empty 20 12 0 14 -204786
-66577 0;
#X obj 318 -322 vsl 15 120 0 1 0 0 V empty volume 0 -9 0 10 -262144
-1 -1 0 1;
#X obj 107 -273 s functVH;
#X obj 107 -315 tgl 30 0 empty functVH-set empty 17 7 0 10 -86853 -1
-1 0 1;
#X obj 28 -313 tgl 30 0 empty invertH-set empty 17 7 0 10 -86277 -1
-1 0 1;
#X obj 31 -275 s invertHue;
#X obj 162 -243 bng 30 250 50 0 reset_fVH empty empty 17 7 0 10 -257985
-1 -1;
#X obj 7 28 hsl 373 15 0 1 0 0 color_shift color_shift_set color_shift
-2 25 0 10 -162280 -1 -1 2306 1;
#X obj 34 -242 bng 30 250 50 0 set_fVH_linear empty empty 17 7 0 10
-260097 -1 -1;
#X text 66 -239 set fVH const;
#X text 206 -235 set fVH linear;
#X obj 409 -124 cnv 15 370 170 empty empty delay 20 12 0 14 -204786
-66577 0;
#X obj 661 -6 line~;
#X obj 661 -27 pack 0 5;
#X obj 662 16 s~ delaytime;
#X floatatom 661 -47 5 0 0 0 - - -;
#X obj 559 -5 line~;
#X obj 559 -25 pack 0 5;
#X floatatom 559 -45 5 0 0 0 - - -;
#X obj 558 15 s~ delayfeedback;
#X obj 471 -116 vsl 15 60 0 1 0 0 empty empty empty 0 -9 0 10 -258113
-1 -1 0 1;
#X obj 559 -113 vsl 15 60 0 1 0 0 empty empty empty 0 -9 0 10 -159808
-1 -1 0 1;
#X obj 471 -7 line~;
#X obj 471 -28 pack 0 5;
#X obj 472 13 s~ delayVol;
#X obj 661 -114 vsl 15 60 0 1000 0 0 empty empty empty 0 -9 0 10 -260097
-1 -1 0 1;
#X obj 408 -312 cnv 15 370 170 empty empty reverb 20 12 0 14 -204786
-66577 0;
#X text 414 -299 level \, dB;
#X text 653 -291 liveness \, 0-100;
#X obj 428 -266 vsl 15 60 0 100 0 1 empty empty empty 0 -9 0 10 -4032
-1 -1 5300 1;
#X obj 428 -175 s revLev;
#X floatatom 428 -196 0 0 100 0 - - -;
#X obj 691 -269 vsl 15 60 0 100 0 1 empty empty empty 0 -9 0 10 -257985
-1 -1 3900 1;
#X floatatom 691 -201 0 0 100 0 - - -;
#X obj 691 -178 s revLiv;
#X obj 496 -210 mtof;
#X floatatom 496 -188 8 0 0 0 - - -;
#X obj 496 -281 vsl 15 60 0 186 0 1 empty empty empty 0 -9 0 10 -99865
-1 -1 3300 1;
#X obj 496 -165 s revCrossOf;
#X text 590 -292 dumping;
#X obj 593 -270 vsl 15 60 0 100 0 1 empty empty empty 0 -9 0 10 -4034
-1 -1 2600 1;
#X floatatom 593 -200 0 0 100 0 - - -;
#X obj 593 -178 s revDump;
#X text 490 -305 +over freq \, Hz;
#X text 87 -173 draw the function of Volume related to hue;
#N canvas 0 0 450 300 (subpatch) 0;
#X array functionVH 255 float 5;
#A 0 1.87882 1.87882 1.87882 1.87882 1.87882 1.87882 1.86453 1.85025
1.85025 1.85025 1.85025 1.85025 1.8431 1.83596 1.83596 1.83596 1.82168
1.82168 1.82168 1.82168 1.82168 1.82168 1.82168 1.82168 1.82168 1.82168
1.82168 1.82168 1.82168 1.82168 1.82168 1.82168 1.82168 1.82168 1.82168
1.82168 1.82168 1.82168 1.82168 1.81453 1.80739 1.80739 1.80739 1.80739
1.80739 1.80739 1.80739 1.80739 1.80739 1.80739 1.80739 1.7931 1.7931
1.7931 1.7931 1.7931 1.7931 1.7931 1.7931 1.7931 1.7931 1.7931 1.7931
1.80739 1.80739 1.80739 1.80739 1.80739 1.82168 1.82168 1.83596 1.83596
1.83596 1.85025 1.85025 1.85025 1.86453 1.86453 1.86453 1.86453 1.86453
1.86453 1.86453 1.86453 1.86453 1.86453 1.86453 1.86453 1.86453 1.86453
1.86453 1.86453 1.86453 1.86453 1.86453 1.86453 1.86453 1.86453 1.85739
1.85025 1.8431 1.83596 1.83596 1.83596 1.83596 1.82168 1.82168 1.82168
1.82168 1.82168 1.80739 1.80739 1.80739 1.80739 1.80739 1.80739 1.80025
1.7931 1.7931 1.7931 1.7931 1.7931 1.78596 1.77882 1.77882 1.77882
1.77882 1.77882 1.76453 1.76453 1.76453 1.76453 1.76453 1.76453 1.76453
1.76453 1.76453 1.76453 1.76453 1.76453 1.76453 1.76453 1.76453 1.76453
1.76453 1.76453 1.77882 1.77882 1.77882 1.77882 1.77882 1.77882 1.77882
1.77882 1.77882 1.77882 1.77882 1.77882 1.77882 1.77882 1.77882 1.77882
1.77882 1.77168 1.76453 1.76453 1.76453 1.76453 1.76453 1.76453 1.75025
1.7431 1.73596 1.73596 1.73596 1.72168 1.72168 1.6931 1.67882 1.66453
1.65025 1.62167 1.60739 1.56453 1.53596 1.4931 1.45025 1.37882 1.35024
1.30739 1.26453 1.23596 1.20739 1.15024 1.13596 1.12167 1.0931 1.05024
1.03596 0.964528 0.935956 0.878813 0.850242 0.807384 0.793098 0.778813
0.750241 0.735955 0.721669 0.700241 0.693098 0.678812 0.664526 0.65024
0.635954 0.628812 0.621669 0.593097 0.593097 0.571668 0.564525 0.535954
0.535954 0.521668 0.507382 0.507382 0.507382 0.493096 0.485954 0.478811
0.478811 0.478811 0.464525 0.464525 0.464525 0.450239 0.450239 0.435953
0.42881 0.421667 0.407382 0.407382 0.407382 0.407382 0.407382 0.393096
0.37881 0.37881 0.371667 0.364524 0.364524 0.364524 0.364524 0.364524
0.307381;
#X coords 0 2 254 0 379 140 1 0 0;
#X restore 3 -157 graph;
#N canvas 258 309 450 300 imagem 0;
#X obj 289 123 image colspec_crop.gif;
#X text 135 152 functionVH - draw the function of Volume related to
hue;
#X msg 247 -19 open colspec_crop.gif;
#X msg 251 8 open colspec_crop_flip.gif;
#X obj 221 -69 r invertHue;
#X obj 244 -46 sel 0 1;
#X connect 2 0 0 0;
#X connect 3 0 0 0;
#X connect 4 0 5 0;
#X connect 5 0 2 0;
#X connect 5 1 3 0;
#X coords 0 -1 1 1 379 45 1 100 100;
#X restore 4 -17 pd imagem;
#N canvas 666 128 553 585 midi 0;
#X obj 41 -21 r 0cross;
#X obj 115 131 timer;
#X obj 115 65 tgl 15 0 empty empty empty 17 7 0 10 -262144 -1 -1 0
1;
#X obj 115 93 sel 0 1;
#X floatatom 4 200 12 0 0 0 - - -;
#X obj 41 13 bng 15 250 50 0 empty empty empty 17 7 0 10 -262144 -1
-1;
#X obj 115 253 / 8;
#X floatatom 185 200 5 0 0 3 bar_partition - -;
#X obj 115 334 / 24;
#X floatatom 182 381 12 0 0 0 - - -;
#X obj 88 383 metro;
#X obj 85 491 midiout;
#X msg 88 416 248;
#X obj 68 355 tgl 15 0 empty empty empty 17 7 0 10 -262144 -1 -1 0
1;
#X text 109 -31 midi clock;
#X floatatom 220 122 5 0 0 0 - - -;
#X obj 352 -6 vsl 30 300 40 180 0 0 empty empty empty 0 -9 0 10 -262144
-1 -1 0 1;
#X obj 295 318 expr 60000/$f1;
#X floatatom 267 267 5 0 0 0 BPM - -;
#X obj 189 5 r 0XSample;
#X msg 134 417 250;
#X msg 160 444 252;
#X obj 0 317 s Smpl1Lenght;
#X obj 0 275 spigot;
#X obj 48 248 tgl 15 0 empty empty empty 17 7 0 10 -262144 -1 -1 0
1;
#X obj 171 58 spigot;
#X obj 227 37 tgl 15 0 empty empty empty 17 7 0 10 -262144 -1 -1 0
1;
#X obj 206 454 t b b;
#X obj 207 420 bng 15 250 50 0 empty empty empty 17 7 0 10 -262144
-1 -1;
#X obj 44 39 spigot;
#X obj 100 18 tgl 15 0 empty empty empty 17 7 0 10 -262144 -1 -1 0
1;
#X obj 166 281 spigot;
#X obj 214 254 tgl 15 0 empty empty empty 17 7 0 10 -262144 -1 -1 0
1;
#X connect 0 0 5 0;
#X connect 1 0 4 0;
#X connect 1 0 6 0;
#X connect 1 0 23 0;
#X connect 2 0 3 0;
#X connect 3 0 1 0;
#X connect 3 1 1 1;
#X connect 5 0 29 0;
#X connect 6 0 8 0;
#X connect 7 0 6 1;
#X connect 8 0 9 0;
#X connect 8 0 10 1;
#X connect 10 0 12 0;
#X connect 12 0 11 0;
#X connect 13 0 10 0;
#X connect 15 0 6 0;
#X connect 16 0 17 0;
#X connect 16 0 18 0;
#X connect 17 0 8 0;
#X connect 19 0 25 0;
#X connect 19 0 28 0;
#X connect 20 0 11 0;
#X connect 21 0 11 0;
#X connect 23 0 22 0;
#X connect 24 0 23 1;
#X connect 25 0 2 0;
#X connect 26 0 25 1;
#X connect 27 0 20 0;
#X connect 27 1 21 0;
#X connect 28 0 27 0;
#X connect 29 0 2 0;
#X connect 30 0 29 1;
#X connect 32 0 31 1;
#X restore 409 -393 pd midi;
#X obj 603 -349 s WhiteTreshold;
#X floatatom 603 -377 12 0 0 0 - - -;
#X obj 918 -308 cnv 15 200 100 empty empty empty 20 12 0 14 -204786
-66577 0;
#X obj 804 -212 s fourthSHift;
#X floatatom 804 -236 5 0 0 0 - - -;
#X floatatom 805 -187 5 0 0 0 - - -;
#X obj 805 -162 s ScaleSize;
#X obj 804 -287 r f0;
#X obj 804 -263 ftom;
#X floatatom 471 -48 5 0 0 0 - - -;
#X obj 946 -283 hsl 60 10 0 1 0 1 comp-ratio empty ratio -2 -7 0 10
-101452 -262144 -355 1800 1;
#X obj 946 -260 hsl 60 10 0 1 0 1 comp-attack empty attack -2 -7 0
10 -101452 -262144 -355 500 1;
#X obj 1033 -283 hsl 60 10 0 1 0 1 comp-threshold empty threshold -2
-7 0 10 -101452 -262144 -355 5400 1;
#X obj 1034 -259 hsl 60 10 0 1 0 1 comp-release empty release -2 -7
0 10 -101452 -262144 -355 2700 1;
#X obj 948 -238 hsl 60 10 0 1 0 1 comp-gain empty gain -2 -7 0 10 -101452
-262144 -355 2500 1;
#X obj 926 -286 cnv 12 15 13 empty empty 0 1 6 0 12 -33289 -262144
0;
#X obj 926 -263 cnv 12 15 13 empty empty 2 1 6 0 12 -33289 -262144
0;
#X obj 926 -240 cnv 12 15 13 empty empty 4 1 6 0 12 -33289 -262144
0;
#X obj 1013 -286 cnv 12 15 13 empty empty 1 1 6 0 12 -33289 -262144
0;
#X obj 1013 -263 cnv 12 15 13 empty empty 3 1 6 0 12 -33289 -262144
0;
#X obj 1016 -240 tgl 15 1 comp-bypass empty bypass_compr 17 7 0 10
-4034 -1 -1 0 1;
#X obj 799 -389 compressore;
#X text 945 -381 versione 1 novembro;
#X connect 7 0 6 0;
#X connect 8 0 9 0;
#X connect 16 0 18 0;
#X connect 17 0 16 0;
#X connect 19 0 17 0;
#X connect 20 0 23 0;
#X connect 21 0 20 0;
#X connect 22 0 21 0;
#X connect 24 0 61 0;
#X connect 25 0 22 0;
#X connect 26 0 28 0;
#X connect 27 0 26 0;
#X connect 29 0 19 0;
#X connect 33 0 35 0;
#X connect 35 0 34 0;
#X connect 36 0 37 0;
#X connect 37 0 38 0;
#X connect 39 0 40 0;
#X connect 40 0 42 0;
#X connect 41 0 39 0;
#X connect 44 0 45 0;
#X connect 45 0 46 0;
#X connect 53 0 52 0;
#X connect 56 0 55 0;
#X connect 57 0 58 0;
#X connect 59 0 60 0;
#X connect 60 0 56 0;
#X connect 61 0 27 0;
