#N canvas 47 79 603 524 10;
#X declare -lib iemnet -lib mrpeach;
#X obj 54 63 hradio 15 1 0 11 scanspeed scanspeedGUI scan_time 0 -8
0 10 -203904 -1 -1 10;
#X obj 51 -46 cnv 15 80 80 empty empty empty 20 12 0 14 -195568 -66577
0;
#X obj 64 -28 tgl 50 0 startstop empty start/stop -5 -9 0 10 -4034
-1 -1 1 1;
#X obj -156 -72 cnv 15 190 520 empty empty IMAGE 70 12 0 14 -203904
-66577 0;
#X obj -144 -37 tgl 50 0 onoffgemwin empty on/off_video 60 7 0 10 -4032
-1 -1 1 1;
#X obj -140 292 vradio 15 1 0 4 device empty device 0 -8 0 10 -262144
-1 -1 0;
#X text -121 289 pc camera;
#X text -122 304 extra camera;
#X floatatom -139 244 7 1 100000 1 vertical_resize steps_init steps
;
#X obj -26 50 bng 30 250 50 0 open_still_img empty load_img -7 -8 0
10 -232576 -1 -1;
#X obj -144 46 vradio 30 1 0 3 vidORstill vidORstill_init input 0 -10
0 10 -4160 -1 -1 2;
#X obj 254 -72 cnv 15 190 520 empty empty SOUND 70 12 0 14 -261234
-66577 0;
#X obj 268 -34 tgl 50 0 state stateGUI on/off_sound 60 7 0 10 -260097
-1 -1 0 1;
#X obj 267 314 tgl 30 0 tikOnOff empty click_on/off 32 7 0 10 -261682
-1 -1 0 1;
#X obj 267 353 tgl 30 0 save_sound empty save_sound 32 7 0 10 -258113
-1 -1 0 1;
#X text -122 319 extra camera 1;
#X text -122 334 extra camera 2;
#X obj 52 178 vradio 25 1 0 10 ref_scale_send ref_scale_rec Ref_Scale
0 -8 0 10 -232576 -1 -1 0;
#X text 89 178 violet 320;
#X text 88 203 indigo 280;
#X text 86 231 slate blue 257;
#X text 83 254 sky blue 200;
#X text 86 305 green 120;
#X text 84 279 spring green 154;
#X text 85 331 chartreuse 103;
#X text 84 356 yellow 60;
#X text 83 381 orange 30;
#X text 83 405 red 0;
#X obj 267 391 tgl 30 0 PerformanceMode empty keyboard_control 35 10
0 10 -191407 -1 -1 0 1;
#X obj -26 109 bng 30 250 50 0 open_video empty load_vid -8 -8 0 10
-232576 -1 -1;
#X text -107 56 still img;
#X obj -29 158 tgl 15 0 PausePlay_stored_vid empty pause/play -5 -7
0 10 -4034 -1 -1 0 1;
#X text -106 87 camera;
#X text -107 112 stored vid;
#X obj 142 -39 tgl 30 0 conn empty on/off_OSC 32 7 0 10 -257985 -1
-1 1 1;
#X obj -142 162 nbx 7 15 0 999999 0 1 frames_speed empty frames_speed
0 -8 0 10 -262144 -1 -1 51 256;
#X floatatom 54 83 10 0 0 1 Frame_Scan_Time FrameScanTime -;
#X obj 142 3 tgl 30 0 scango empty on/off_SCAN 32 7 0 10 -4160 -1 -1
1 1;
#N canvas 42 157 720 492 advanced 1;
#X obj 37 167 vradio 25 1 0 4 Gmode GmodeGUI Gray_Mode -2 -8 0 10 -99865
-1 -1 0;
#X text 69 194 white_noise;
#X text 69 220 phasor_groundtone;
#X text 69 246 both;
#X obj 272 1 vradio 25 1 1 9 scale scaleGUI Escalas 0 -8 0 10 -257985
-1 -1 7;
#X text 306 3 octave digital continuous;
#X text 306 26 octave 12 notes (chromatic);
#X text 308 152 pentatonic M;
#X text 307 202 2 octaves continuos;
#X text 307 102 scale of perfect 4ths;
#X text 307 78 26/2000Hz;
#X text 305 54 octave 19 notes (chromatic);
#X text 307 177 just intonation (2 octaves);
#X obj 36 26 tgl 50 0 invertH empty invert_Hue 55 7 0 10 -86277 -1
-1 0 1;
#X obj 36 87 tgl 50 0 functVH empty Vol-Hue_function 55 7 0 10 -86853
-1 -1 0 1;
#X obj 277 295 hsl 100 15 0 880 0 0 f0 f0_init empty -2 -8 0 10 -260097
-1 -1 1238 1;
#X floatatom 274 316 10 0 0 0 - - -;
#X obj 384 296 bng 15 250 50 1 reset_f0 empty reset_f0 17 7 0 10 -262144
-1 -1;
#X obj 278 388 hsl 101 15 0 1000 0 1 SustTime SustTime_init SustainTime
-2 -8 0 10 -261682 -1 -1 8800 1;
#X floatatom 275 409 10 0 0 0 - - -;
#X obj 391 388 tgl 15 0 SustOnOff SustOnOff_init Hold 0 -10 0 10 -261682
-1 -1 0 1;
#X obj 391 408 bng 15 250 50 0 SustTimeReset empty reset 17 7 0 10
-262144 -1 -1;
#X floatatom 335 351 5 0 0 0 - - -;
#X obj 313 350 bng 15 250 50 0 empty empty empty 17 7 0 10 -262144
-1 -1;
#X obj 370 352 s SustTime_init;
#X text 307 127 hijazz;
#X obj 42 313 hsl 128 15 0 1 0 0 color_shift empty color_shift_value
-2 -8 0 10 -204800 -1 -1 0 1;
#X obj -135 30 tgl 30 0 play_mov play_movGUI play_movement 32 7 0 10
-232576 -1 -1 0 1;
#X obj -136 101 vradio 15 1 0 2 color_space empty color_space 0 -8
0 10 -262144 -1 -1 0;
#X text -113 100 RGBA;
#X text -115 115 Gray;
#X obj -143 346 cnv 15 120 110 empty empty empty 20 12 0 14 -261234
-66577 0;
#X floatatom -135 423 4 0 0 1 width info_width -;
#X floatatom -135 399 4 0 0 1 height info_height -;
#X floatatom -134 376 4 0 0 1 bytes/pixel info_bytes -;
#X floatatom -135 354 5 0 0 1 colorspace info_colorspace -;
#X obj 41 377 bng 20 250 50 0 reset_scan empty reset_scan 23 7 0 10
-159808 -1 -1;
#X floatatom 274 268 10 0 0 0 - - -;
#X text 347 267 lowest_pitch f0;
#X obj -134 170 tgl 30 0 viewMode viewModeGUI view_mode 32 7 0 10 -232576
-1 -1 1 1;
#X connect 15 0 16 0;
#X connect 18 0 19 0;
#X connect 22 0 24 0;
#X connect 23 0 22 0;
#X connect 37 0 15 0;
#X restore 262 62 pd advanced;
#N canvas 140 364 272 195 stuff 1;
#N canvas 32 170 938 490 mostralinha 0;
#X obj 166 -193 gemhead;
#X obj 161 -9 translateXYZ 0 0 1;
#X obj 287 -189 r posi;
#X obj 287 -99 expr - $f1;
#X obj 288 -120 * 2.7;
#X obj 287 -145 / 479;
#X obj 338 -190 r steps;
#X obj 338 -164 - 1;
#X obj 162 -33 separator;
#X obj 394 -37 separator;
#X floatatom 506 -30 5 0 0 0 - - -;
#X floatatom 543 19 5 0 0 0 - - -;
#X obj 413 33 rectangle 0.01 1.37;
#X obj 161 17 rectangle 1.8 0.011;
#X floatatom 466 -30 5 0 0 0 - - -;
#X obj 394 0 translateXYZ 0.13 -1.37 1;
#X obj 393 -61 spigot;
#X obj 428 -86 tgl 15 0 empty empty empty 17 7 0 10 -262144 -1 -1 0
1;
#X obj 427 -111 r c_line;
#X obj 151 -149 colour 1 0 0;
#X obj -116 37 r posi;
#X obj -116 81 / 479;
#X obj -65 31 r steps;
#X obj -65 62 - 1;
#X obj -198 259 rectangle 1.8 0.011;
#X obj -198 83 separator;
#X obj -118 105 expr 1 - $f1;
#X obj 181 -114 r viewMode;
#X obj 182 -63 spigot;
#X obj 187 -89 == 0;
#X obj -198 233 translateXYZ 0 0 2;
#X floatatom 106 191 5 0 0 0 - - -;
#X obj 180 61 r viewMode;
#X obj 182 88 sel 0 1;
#X msg 206 125 2.06;
#X msg 165 122 1;
#X obj -134 -87 r viewMode;
#X obj -133 -36 spigot;
#X obj -128 -62 == 1;
#X obj -118 148 * 2.7;
#X obj -118 172 - 1.35;
#X connect 0 0 16 0;
#X connect 0 0 19 0;
#X connect 1 0 13 0;
#X connect 2 0 5 0;
#X connect 3 0 1 2;
#X connect 4 0 3 0;
#X connect 5 0 4 0;
#X connect 6 0 7 0;
#X connect 7 0 5 1;
#X connect 8 0 1 0;
#X connect 9 0 15 0;
#X connect 10 0 15 2;
#X connect 11 0 12 2;
#X connect 14 0 15 1;
#X connect 15 0 12 0;
#X connect 16 0 9 0;
#X connect 17 0 16 1;
#X connect 18 0 17 0;
#X connect 19 0 28 0;
#X connect 19 0 37 0;
#X connect 20 0 21 0;
#X connect 21 0 26 0;
#X connect 22 0 23 0;
#X connect 23 0 21 1;
#X connect 25 0 30 0;
#X connect 26 0 39 0;
#X connect 27 0 29 0;
#X connect 28 0 8 0;
#X connect 29 0 28 1;
#X connect 30 0 24 0;
#X connect 31 0 30 3;
#X connect 32 0 33 0;
#X connect 33 0 35 0;
#X connect 33 1 34 0;
#X connect 34 0 31 0;
#X connect 35 0 31 0;
#X connect 36 0 38 0;
#X connect 37 0 25 0;
#X connect 38 0 37 1;
#X connect 39 0 40 0;
#X connect 40 0 30 2;
#X restore -442 64 pd mostralinha;
#X obj -443 3 HSV2OSC;
#N canvas 59 426 493 318 WINDOW 0;
#X obj -405 78 gemwin;
#X msg -447 23 create \, 1;
#X msg -323 28 destroy;
#X obj -375 -93 r onoffgemwin;
#X obj -371 -69 sel 1 0;
#X msg -267 16 \; state 0 \;;
#X obj -295 -17 t b b;
#X obj -427 -45 t b b;
#X msg -384 3 \; state 1 \;;
#X msg -319 62 dimen 1024 768 \, offset 1366 0;
#X connect 1 0 0 0;
#X connect 2 0 0 0;
#X connect 3 0 4 0;
#X connect 4 0 7 0;
#X connect 4 1 6 0;
#X connect 6 0 2 0;
#X connect 6 1 5 0;
#X connect 7 0 1 0;
#X connect 7 1 8 0;
#X connect 9 0 0 0;
#X restore -444 -28 pd WINDOW;
#N canvas 405 150 450 300 EXT_CTRL 0;
#X obj 188 145 s state;
#X obj 188 122 tgl 15 0 empty empty empty 17 7 0 10 -262144 -1 -1 0
1;
#N canvas 1 81 450 300 and_ctrl 0;
#X obj 89 40;
#X obj 135 25 udpreceive 8000;
#X obj 156 60 unpackOSC;
#X obj 530 200 print;
#X floatatom 427 267 5 0 0 0 - - -;
#X obj 191 98 route /1/fader1 /1/push1;
#X floatatom 267 144 5 0 0 0 - - -;
#X floatatom 196 140 5 0 0 0 - - -;
#X obj 211 175 outlet;
#X obj 278 183 outlet;
#X connect 1 0 2 0;
#X connect 2 0 5 0;
#X connect 5 0 7 0;
#X connect 5 1 6 0;
#X connect 6 0 9 0;
#X connect 7 0 8 0;
#X restore 37 75 pd and_ctrl;
#X floatatom 105 110 5 0 0 0 - - -;
#X floatatom 34 106 5 0 0 0 - - -;
#X obj 37 127 * 10;
#X obj 279 36 s scanspeed;
#X obj -13 160 s scanspeed;
#X obj 275 59 s scanspeedGUI;
#X obj 73 160 s scanspeedGUI;
#X obj 104 138 s stateGUI;
#X connect 1 0 0 0;
#X connect 2 0 4 0;
#X connect 2 1 3 0;
#X connect 3 0 1 0;
#X connect 3 0 10 0;
#X connect 4 0 5 0;
#X connect 5 0 7 0;
#X connect 5 0 9 0;
#X restore -443 35 pd EXT_CTRL;
#N canvas 690 316 331 367 INIT 0;
#X obj -303 3 loadbang;
#X obj -300 156 r reset_f0;
#X obj -272 198 r Gmode;
#X obj -272 228 sel 2;
#X obj -301 304 s f0_init;
#X obj -172 199 r SustTimeReset;
#X msg -172 226 \; SustTime_init 200 \; SustOnOff_init 0 \;;
#X msg -302 29 \; f0_init 60 \; SustTime_init 100 \; steps_init 480
\; vidORstill_init 1 \; scanspeed 4 \; play_mov 0 \; end_line 1 \;
;
#X msg -302 275 60;
#X connect 0 0 7 0;
#X connect 1 0 8 0;
#X connect 2 0 3 0;
#X connect 3 0 8 0;
#X connect 5 0 6 0;
#X connect 8 0 4 0;
#X restore -443 90 pd INIT;
#N canvas 94 134 1025 610 VIDEO_MAIN 0;
#X obj -292 442 pix_texture;
#X obj 13 404 until;
#X obj 13 428 f;
#X obj 13 376 t a b;
#X obj 42 428 + 1;
#X obj 54 404 0;
#X obj 78 -57 cnv 15 100 60 empty empty empty 20 12 0 14 -195568 -66577
0;
#X text 79 -61 start / stop;
#X obj 103 -40 tgl 30 0 empty startstop empty 17 7 0 10 -4034 -1 -1
1 1;
#X text 377 387 sends signal of end line;
#X obj -293 87 pix_buffer_write frame;
#X msg -161 59 1;
#X obj -147 -30 pix_buffer frame 2;
#X obj -291 172 pix_texture;
#X floatatom -194 190 5 0 0 0 - - -;
#X obj 175 71 r end_line;
#X obj 244 172 s NewFrame;
#X obj 427 40 r NewFrame;
#X obj 175 96 spigot;
#X obj 83 323 s posi;
#X text 89 481 pix-group number;
#X text 254 136 triggers 480 lines scan;
#X obj -292 470 translateXYZ 0 -1.8 0;
#X obj -292 496 rectangle 2.4 1.8;
#X obj -291 212 translateXYZ 0 2 0;
#X obj 480 208 r scanspeed;
#N canvas 266 215 450 300 video_info 1;
#X obj 59 40 inlet;
#X obj 64 113 pix_info --------------;
#X obj 52 214 s info_width;
#X obj 69 240 s info_height;
#X obj 192 190 s info_bytes;
#X obj 225 215 s info_colorspace;
#X obj 31 260 outlet;
#X obj 166 288 s steps_init;
#X connect 0 0 1 0;
#X connect 1 0 6 0;
#X connect 1 1 2 0;
#X connect 1 2 3 0;
#X connect 1 3 4 0;
#X connect 1 4 5 0;
#X restore -291 55 pd video_info;
#X obj 381 310 delay 0.5;
#X obj 469 302 + 0.5;
#X obj 229 88 r reset_scan;
#X obj 13 563 send pix_groupN;
#X obj 481 238 pow 1.5;
#N canvas 1 83 795 623 framesIN 1;
#X obj -11 466 outlet;
#X obj -113 -41 gemhead;
#X obj -110 -4 cnv 15 80 30 empty empty empty 20 12 0 14 -24198 -66577
0;
#X obj -102 3 pix_video;
#N canvas 536 324 473 300 video_set 0;
#X obj -154 239 outlet;
#X msg -121 29 dimen 640 480;
#X obj -298 8 r device;
#X msg -254 99 device \$1;
#X obj -298 36 t b f b;
#X msg -247 62 \; onoffgemwin 0 \;;
#X obj -301 143 delay 500;
#X msg -301 168 \; onoffgemwin 1 \;;
#X msg 19 68 colorspace RGB;
#X msg 32 92 colorspace Grey;
#X obj 22 17 r color_space;
#X obj 22 42 sel 0 1;
#X msg -48 178 enumProps;
#X obj -82 216 r \$0-ctl;
#X connect 1 0 0 0;
#X connect 2 0 4 0;
#X connect 3 0 0 0;
#X connect 4 0 6 0;
#X connect 4 1 3 0;
#X connect 4 2 5 0;
#X connect 6 0 7 0;
#X connect 8 0 0 0;
#X connect 9 0 0 0;
#X connect 10 0 11 0;
#X connect 11 0 8 0;
#X connect 11 1 9 0;
#X connect 12 0 0 0;
#X connect 13 0 0 0;
#X restore -175 -64 pd video_set;
#X obj 84 415 pix_background;
#X obj 86 326 r play_mov;
#X obj 194 257 loadbang;
#X msg 177 321 0.2;
#X floatatom 175 345 5 0 0 0 - - -;
#X obj 92 357 sel 1;
#X msg 87 383 reset;
#X msg -272 345 open \$1;
#X obj -199 235 openpanel;
#X obj -200 210 bng 15 250 50 0 empty open_still_img empty 17 7 0 10
-262144 -1 -1;
#X obj -306 381 pix_image;
#X obj -302 273 gemhead;
#X floatatom 220 345 5 0 0 0 - - -;
#X msg 220 320 1;
#X obj 220 379 s vidORstill;
#X obj -217 172 r img2load;
#X obj -41 31 print;
#X obj -49 57 s \$0-info;
#X msg 126 49 colorspace Grey;
#X msg 182 23 auto \$1;
#X obj 326 -92 tgl 15 0 empty PausePlay_stored_vid ResetStop_stored_vid
17 7 0 10 -262144 -1 -1 1 1;
#X obj 83 25 r color_space;
#X obj 83 49 sel 1;
#X obj 325 -116 loadbang;
#X floatatom 261 52 5 0 0 0 - - -;
#X obj 235 29 gemhead;
#X obj -90 171 tgl 15 0 empty empty empty 17 7 0 10 -262144 -1 -1 0
1;
#X obj -123 194 spigot;
#X obj 9 135 tgl 15 0 empty empty empty 17 7 0 10 -262144 -1 -1 1 1
;
#X obj -24 168 spigot;
#X obj 7 86 r vidORstill;
#X obj 9 108 == 2;
#X obj -90 120 r vidORstill;
#X obj -90 148 == 1;
#X obj -30 253 tgl 15 0 empty empty empty 17 7 0 10 -262144 -1 -1 1
1;
#X obj -63 286 spigot;
#X obj -30 206 r vidORstill;
#X obj -30 226 > 0;
#X obj -184 494 tgl 15 0 empty empty empty 17 7 0 10 -262144 -1 -1
0 1;
#X obj -217 527 spigot;
#X obj -184 447 r vidORstill;
#X obj -184 467 == 0;
#X obj 57 284 tgl 15 0 empty empty empty 17 7 0 10 -262144 -1 -1 0
1;
#X obj 29 318 spigot;
#X obj 58 249 r play_mov;
#X obj -44 386 tgl 15 0 empty empty empty 17 7 0 10 -262144 -1 -1 1
1;
#X obj -77 419 spigot;
#X obj -42 357 == 0;
#X obj -48 328 r play_mov;
#X msg 2 -1 enumProps;
#X msg -289 -30 set Auto White Balance 0;
#X msg -257 43 applyProps;
#X msg -281 79 set White 0;
#X obj 342 8 metro 30;
#X floatatom 407 -14 5 0 0 0 - - -;
#X obj 194 80 pix_film;
#X obj 215 109 unpack 0 0 0;
#X floatatom 205 132 5 0 0 3 length - -;
#X floatatom 254 132 5 0 0 3 width - -;
#X floatatom 303 136 5 0 0 3 height - -;
#N canvas 379 317 627 333 COLORFILTER 0;
#X obj 24 45 inlet;
#X obj 68 290 outlet;
#X obj 230 96 cnv 15 160 150 empty empty empty 20 12 0 14 -24198 -66577
0;
#X obj 128 218 pix_colormatrix;
#X floatatom 275 153 3 -1 2 0 - - -;
#X floatatom 298 153 3 -1 2 0 - - -;
#X floatatom 321 153 3 -1 2 0 - - -;
#X floatatom 275 167 3 -1 2 0 - - -;
#X floatatom 298 167 3 -1 2 0 - - -;
#X floatatom 321 167 3 -1 2 0 - - -;
#X floatatom 275 181 3 -1 2 0 - - -;
#X floatatom 298 181 3 -1 2 0 - - -;
#X floatatom 321 181 3 -1 2 0 - - -;
#N canvas 0 0 450 300 pack 0;
#X obj 69 169 pack 0 0 0 0 0 0 0 0 0;
#X obj 69 139 t b f;
#X obj 106 139 t b f;
#X obj 143 139 t b f;
#X obj 180 139 t b f;
#X obj 217 139 t b f;
#X obj 254 139 t b f;
#X obj 291 139 t b f;
#X obj 328 139 t b f;
#X obj 32 111 inlet;
#X obj 69 111 inlet;
#X obj 106 111 inlet;
#X obj 143 111 inlet;
#X obj 180 111 inlet;
#X obj 217 111 inlet;
#X obj 254 111 inlet;
#X obj 291 111 inlet;
#X obj 328 111 inlet;
#X obj 69 196 outlet;
#X connect 0 0 18 0;
#X connect 1 0 0 0;
#X connect 1 1 0 1;
#X connect 2 0 0 0;
#X connect 2 1 0 2;
#X connect 3 0 0 0;
#X connect 3 1 0 3;
#X connect 4 0 0 0;
#X connect 4 1 0 4;
#X connect 5 0 0 0;
#X connect 5 1 0 5;
#X connect 6 0 0 0;
#X connect 6 1 0 6;
#X connect 7 0 0 0;
#X connect 7 1 0 7;
#X connect 8 0 0 0;
#X connect 8 1 0 8;
#X connect 9 0 0 0;
#X connect 10 0 1 0;
#X connect 11 0 2 0;
#X connect 12 0 3 0;
#X connect 13 0 4 0;
#X connect 14 0 5 0;
#X connect 15 0 6 0;
#X connect 16 0 7 0;
#X connect 17 0 8 0;
#X restore 252 209 pd pack 9 . . .;
#X msg 251 122 1;
#X obj 251 103 loadbang;
#X obj 133 269 pix_normalize;
#X obj 397 37 cnv 15 160 150 empty empty empty 20 12 0 14 -24198 -66577
0;
#X obj 436 82 cnv 15 100 40 empty empty empty 20 12 0 14 -233017 -66577
0;
#X floatatom 452 81 3 -1 2 0 - - -;
#X floatatom 475 81 3 -1 2 0 - - -;
#X floatatom 498 81 3 -1 2 0 - - -;
#X floatatom 452 95 3 -1 2 0 - - -;
#X floatatom 475 95 3 -1 2 0 - - -;
#X floatatom 498 95 3 -1 2 0 - - -;
#X floatatom 452 109 3 -1 2 0 - - -;
#X floatatom 475 109 3 -1 2 0 - - -;
#X floatatom 498 109 3 -1 2 0 - - -;
#N canvas 0 0 450 469 pack 0;
#X obj 69 169 pack 0 0 0 0 0 0 0 0 0;
#X obj 69 139 t b f;
#X obj 106 139 t b f;
#X obj 143 139 t b f;
#X obj 180 139 t b f;
#X obj 217 139 t b f;
#X obj 254 139 t b f;
#X obj 291 139 t b f;
#X obj 328 139 t b f;
#X obj 32 111 inlet;
#X obj 69 111 inlet;
#X obj 106 111 inlet;
#X obj 143 111 inlet;
#X obj 180 111 inlet;
#X obj 217 111 inlet;
#X obj 254 111 inlet;
#X obj 291 111 inlet;
#X obj 328 111 inlet;
#X obj 61 349 outlet;
#X obj 274 355 outlet;
#X obj 71 190 t l l;
#X obj 257 232 unpack 0 0 0 0 0 0 0 0 0;
#X obj 399 256 +;
#X obj 358 256 +;
#X obj 318 256 +;
#X obj 277 256 +;
#X obj 379 286 +;
#X obj 298 286 +;
#X obj 349 316 +;
#X obj 268 316 +;
#X obj 58 294 select 0;
#X msg 48 323 1;
#X obj 132 391 /;
#X msg 132 365 1 \$1;
#X connect 0 0 20 0;
#X connect 1 0 0 0;
#X connect 1 1 0 1;
#X connect 2 0 0 0;
#X connect 2 1 0 2;
#X connect 3 0 0 0;
#X connect 3 1 0 3;
#X connect 4 0 0 0;
#X connect 4 1 0 4;
#X connect 5 0 0 0;
#X connect 5 1 0 5;
#X connect 6 0 0 0;
#X connect 6 1 0 6;
#X connect 7 0 0 0;
#X connect 7 1 0 7;
#X connect 8 0 0 0;
#X connect 8 1 0 8;
#X connect 9 0 0 0;
#X connect 10 0 1 0;
#X connect 11 0 2 0;
#X connect 12 0 3 0;
#X connect 13 0 4 0;
#X connect 14 0 5 0;
#X connect 15 0 6 0;
#X connect 16 0 7 0;
#X connect 17 0 8 0;
#X connect 20 0 21 0;
#X connect 20 1 19 0;
#X connect 21 0 29 0;
#X connect 21 1 25 0;
#X connect 21 2 25 1;
#X connect 21 3 24 0;
#X connect 21 4 24 1;
#X connect 21 5 23 0;
#X connect 21 6 23 1;
#X connect 21 7 22 0;
#X connect 21 8 22 1;
#X connect 22 0 26 1;
#X connect 23 0 26 0;
#X connect 24 0 27 1;
#X connect 25 0 27 0;
#X connect 26 0 28 1;
#X connect 27 0 28 0;
#X connect 28 0 29 1;
#X connect 29 0 30 0;
#X connect 30 0 31 0;
#X connect 30 1 33 0;
#X connect 31 0 18 0;
#X connect 32 0 18 0;
#X connect 33 0 32 0;
#X restore 431 123 pd pack 9 . . .;
#X floatatom 431 148 5 0 0 1 scale - -;
#N canvas 411 476 605 305 unpack 0;
#X obj 60 270 outlet;
#X obj 111 270 outlet;
#X obj 164 270 outlet;
#X obj 215 270 outlet;
#X obj 266 270 outlet;
#X obj 317 270 outlet;
#X obj 370 270 outlet;
#X obj 421 270 outlet;
#X obj 471 271 outlet;
#X obj 179 173 unpack 0 0 0 0 0 0 0 0 0;
#X obj 130 13 inlet;
#X obj 130 40 route edge1 edge2 smooth none;
#X msg 130 124 -1 -1 -1 -1 8 -1 -1 -1 -1;
#X msg 179 102 -1 -4 -1 -4 20 -4 -1 -4 -1;
#X msg 229 82 1 2 1 2 4 2 1 2 1;
#X msg 278 62 0 0 0 0 1 0 0 0 0;
#X connect 9 0 0 0;
#X connect 9 1 1 0;
#X connect 9 2 2 0;
#X connect 9 3 3 0;
#X connect 9 4 4 0;
#X connect 9 5 5 0;
#X connect 9 6 6 0;
#X connect 9 7 7 0;
#X connect 9 8 8 0;
#X connect 10 0 11 0;
#X connect 11 0 12 0;
#X connect 11 1 13 0;
#X connect 11 2 14 0;
#X connect 11 3 15 0;
#X connect 12 0 9 0;
#X connect 13 0 9 0;
#X connect 14 0 9 0;
#X connect 15 0 9 0;
#X restore 420 64 pd unpack 9 . . .;
#X msg 406 41 none;
#X msg 487 41 edge1;
#X msg 529 41 edge2;
#X msg 440 41 smooth;
#X obj 398 165 pix_convolve 3 3;
#X obj 66 149 pix_color;
#X msg 290 17 0 0 1;
#X obj 129 98 hsv2rgb;
#X obj 128 74 pack 0 0.5 1;
#X obj 54 -17 hsl 512 15 0 1249 0 0 empty empty empty -2 -8 0 10 -262144
-1 -1 0 1;
#X floatatom 75 50 5 0 0 0 - - -;
#X floatatom 178 9 5 0 0 0 - - -;
#X obj 129 35 / 1250;
#X floatatom 232 37 5 0 0 0 - - -;
#X obj 188 44 t b f;
#X floatatom 85 106 5 0 0 0 - - -;
#X obj -16 189 moses 0.9;
#X obj 74 178 pix_blur;
#X connect 0 0 1 0;
#X connect 3 0 1 0;
#X connect 4 0 13 0;
#X connect 5 0 13 1;
#X connect 6 0 13 2;
#X connect 7 0 13 3;
#X connect 8 0 13 4;
#X connect 9 0 13 5;
#X connect 10 0 13 6;
#X connect 11 0 13 7;
#X connect 12 0 13 8;
#X connect 13 0 3 1;
#X connect 14 0 4 0;
#X connect 14 0 8 0;
#X connect 14 0 12 0;
#X connect 15 0 14 0;
#X connect 19 0 28 0;
#X connect 20 0 28 1;
#X connect 21 0 28 2;
#X connect 22 0 28 3;
#X connect 23 0 28 4;
#X connect 24 0 28 5;
#X connect 25 0 28 6;
#X connect 26 0 28 7;
#X connect 27 0 28 8;
#X connect 28 0 29 0;
#X connect 28 1 35 2;
#X connect 29 0 35 1;
#X connect 30 0 19 0;
#X connect 30 1 20 0;
#X connect 30 2 21 0;
#X connect 30 3 22 0;
#X connect 30 4 23 0;
#X connect 30 5 24 0;
#X connect 30 6 25 0;
#X connect 30 7 26 0;
#X connect 30 8 27 0;
#X connect 31 0 30 0;
#X connect 32 0 30 0;
#X connect 33 0 30 0;
#X connect 34 0 30 0;
#X connect 38 0 36 1;
#X connect 39 0 38 0;
#X connect 40 0 41 0;
#X connect 40 0 43 0;
#X connect 42 0 43 0;
#X connect 43 0 39 0;
#X connect 43 0 46 0;
#X connect 44 0 45 0;
#X connect 45 0 39 0;
#X connect 45 1 39 1;
#X restore -148 85 pd COLORFILTER;
#X obj 321 39 counter 30;
#X msg 342 95 max \$1;
#X obj 353 -39 r frames_speed;
#X obj 380 74 bng 15 250 50 0 empty empty empty 17 7 0 10 -262144 -1
-1;
#X text 403 71 reset video;
#X obj 343 116 s steps_init;
#N canvas 593 192 450 300 OPENVIDEO 0;
#X obj 22 -437 bng 15 250 50 0 empty open_video open_video 17 7 0 10
-262144 -1 -1;
#X obj 22 -416 openpanel;
#X msg 22 -396 open \$1;
#X obj -146 -316 metro 100;
#X obj -120 -355 tgl 15 0 empty empty empty 17 7 0 10 -262144 -1 -1
0 1;
#X obj 52 -368 t b b a;
#X obj 41 -300 delay 400;
#X msg -40 -248 \; NewFrame 1 \; end_line bang \; reset_scan bang \;
;
#X obj 126 -225 outlet;
#X connect 0 0 1 0;
#X connect 1 0 2 0;
#X connect 2 0 5 0;
#X connect 4 0 3 0;
#X connect 5 0 6 0;
#X connect 5 1 7 0;
#X connect 5 2 8 0;
#X connect 6 0 7 0;
#X restore 114 -114 pd OPENVIDEO;
#X obj -303 188 r vidORstill;
#X obj -303 208 == 0;
#X obj 232 -24 r vidORstill;
#X obj 234 -2 == 2;
#X obj -84 -98 r vidORstill;
#X obj -84 -70 == 1;
#X obj -295 236 sel 1;
#N canvas 357 360 450 300 SaveImage 0;
#X obj 111 79 inlet;
#X obj 40 78 inlet;
#X obj 50 142 sel 1;
#X obj 41 259 outlet;
#X obj 94 214 list;
#X obj 162 173 bng 15 250 50 0 empty empty empty 17 7 0 10 -262144
-1 -1;
#X msg 172 114 ./images/nxerainbowlines2.jpg;
#X obj 172 89 loadbang;
#X connect 0 0 4 1;
#X connect 1 0 2 0;
#X connect 2 0 4 0;
#X connect 4 0 3 0;
#X connect 5 0 4 0;
#X connect 6 0 4 1;
#X connect 7 0 6 0;
#X restore -217 298 pd SaveImage;
#X msg 90 81 colorspace RGB;
#N canvas 159 124 627 333 COLORFILTER 1;
#X obj 24 45 inlet;
#X obj 68 290 outlet;
#X obj 397 37 cnv 15 160 150 empty empty empty 20 12 0 14 -24198 -66577
0;
#X obj 436 82 cnv 15 100 40 empty empty empty 20 12 0 14 -233017 -66577
0;
#X floatatom 452 81 3 -1 2 0 - - -;
#X floatatom 475 81 3 -1 2 0 - - -;
#X floatatom 498 81 3 -1 2 0 - - -;
#X floatatom 452 95 3 -1 2 0 - - -;
#X floatatom 475 95 3 -1 2 0 - - -;
#X floatatom 498 95 3 -1 2 0 - - -;
#X floatatom 452 109 3 -1 2 0 - - -;
#X floatatom 475 109 3 -1 2 0 - - -;
#X floatatom 498 109 3 -1 2 0 - - -;
#N canvas 0 0 450 469 pack 0;
#X obj 69 169 pack 0 0 0 0 0 0 0 0 0;
#X obj 69 139 t b f;
#X obj 106 139 t b f;
#X obj 143 139 t b f;
#X obj 180 139 t b f;
#X obj 217 139 t b f;
#X obj 254 139 t b f;
#X obj 291 139 t b f;
#X obj 328 139 t b f;
#X obj 32 111 inlet;
#X obj 69 111 inlet;
#X obj 106 111 inlet;
#X obj 143 111 inlet;
#X obj 180 111 inlet;
#X obj 217 111 inlet;
#X obj 254 111 inlet;
#X obj 291 111 inlet;
#X obj 328 111 inlet;
#X obj 61 349 outlet;
#X obj 274 355 outlet;
#X obj 71 190 t l l;
#X obj 257 232 unpack 0 0 0 0 0 0 0 0 0;
#X obj 399 256 +;
#X obj 358 256 +;
#X obj 318 256 +;
#X obj 277 256 +;
#X obj 379 286 +;
#X obj 298 286 +;
#X obj 349 316 +;
#X obj 268 316 +;
#X obj 58 294 select 0;
#X msg 48 323 1;
#X obj 132 391 /;
#X msg 132 365 1 \$1;
#X connect 0 0 20 0;
#X connect 1 0 0 0;
#X connect 1 1 0 1;
#X connect 2 0 0 0;
#X connect 2 1 0 2;
#X connect 3 0 0 0;
#X connect 3 1 0 3;
#X connect 4 0 0 0;
#X connect 4 1 0 4;
#X connect 5 0 0 0;
#X connect 5 1 0 5;
#X connect 6 0 0 0;
#X connect 6 1 0 6;
#X connect 7 0 0 0;
#X connect 7 1 0 7;
#X connect 8 0 0 0;
#X connect 8 1 0 8;
#X connect 9 0 0 0;
#X connect 10 0 1 0;
#X connect 11 0 2 0;
#X connect 12 0 3 0;
#X connect 13 0 4 0;
#X connect 14 0 5 0;
#X connect 15 0 6 0;
#X connect 16 0 7 0;
#X connect 17 0 8 0;
#X connect 20 0 21 0;
#X connect 20 1 19 0;
#X connect 21 0 29 0;
#X connect 21 1 25 0;
#X connect 21 2 25 1;
#X connect 21 3 24 0;
#X connect 21 4 24 1;
#X connect 21 5 23 0;
#X connect 21 6 23 1;
#X connect 21 7 22 0;
#X connect 21 8 22 1;
#X connect 22 0 26 1;
#X connect 23 0 26 0;
#X connect 24 0 27 1;
#X connect 25 0 27 0;
#X connect 26 0 28 1;
#X connect 27 0 28 0;
#X connect 28 0 29 1;
#X connect 29 0 30 0;
#X connect 30 0 31 0;
#X connect 30 1 33 0;
#X connect 31 0 18 0;
#X connect 32 0 18 0;
#X connect 33 0 32 0;
#X restore 431 123 pd pack 9 . . .;
#X floatatom 431 148 5 0 0 1 scale - -;
#N canvas 411 476 605 305 unpack 0;
#X obj 60 270 outlet;
#X obj 111 270 outlet;
#X obj 164 270 outlet;
#X obj 215 270 outlet;
#X obj 266 270 outlet;
#X obj 317 270 outlet;
#X obj 370 270 outlet;
#X obj 421 270 outlet;
#X obj 471 271 outlet;
#X obj 179 173 unpack 0 0 0 0 0 0 0 0 0;
#X obj 130 13 inlet;
#X obj 130 40 route edge1 edge2 smooth none;
#X msg 130 124 -1 -1 -1 -1 8 -1 -1 -1 -1;
#X msg 179 102 -1 -4 -1 -4 20 -4 -1 -4 -1;
#X msg 229 82 1 2 1 2 4 2 1 2 1;
#X msg 278 62 0 0 0 0 1 0 0 0 0;
#X connect 9 0 0 0;
#X connect 9 1 1 0;
#X connect 9 2 2 0;
#X connect 9 3 3 0;
#X connect 9 4 4 0;
#X connect 9 5 5 0;
#X connect 9 6 6 0;
#X connect 9 7 7 0;
#X connect 9 8 8 0;
#X connect 10 0 11 0;
#X connect 11 0 12 0;
#X connect 11 1 13 0;
#X connect 11 2 14 0;
#X connect 11 3 15 0;
#X connect 12 0 9 0;
#X connect 13 0 9 0;
#X connect 14 0 9 0;
#X connect 15 0 9 0;
#X restore 420 64 pd unpack 9 . . .;
#X msg 406 41 none;
#X msg 487 41 edge1;
#X msg 529 41 edge2;
#X msg 440 41 smooth;
#X obj 398 165 pix_convolve 3 3;
#X msg 290 17 0 0 1;
#X obj 129 98 hsv2rgb;
#X obj 128 74 pack 0 0.5 1;
#X obj 54 -17 hsl 512 15 0 1249 0 0 empty empty empty -2 -8 0 10 -262144
-1 -1 0 1;
#X floatatom 75 50 5 0 0 0 - - -;
#X floatatom 178 9 5 0 0 0 - - -;
#X obj 129 35 / 1250;
#X floatatom 232 37 5 0 0 0 - - -;
#X obj 188 44 t b f;
#X obj 98 197 separator;
#X obj 3 174 separator;
#X obj 15 226 s vidclean;
#X connect 0 0 30 0;
#X connect 0 0 31 0;
#X connect 4 0 13 0;
#X connect 5 0 13 1;
#X connect 6 0 13 2;
#X connect 7 0 13 3;
#X connect 8 0 13 4;
#X connect 9 0 13 5;
#X connect 10 0 13 6;
#X connect 11 0 13 7;
#X connect 12 0 13 8;
#X connect 13 0 14 0;
#X connect 13 1 20 2;
#X connect 14 0 20 1;
#X connect 15 0 4 0;
#X connect 15 1 5 0;
#X connect 15 2 6 0;
#X connect 15 3 7 0;
#X connect 15 4 8 0;
#X connect 15 5 9 0;
#X connect 15 6 10 0;
#X connect 15 7 11 0;
#X connect 15 8 12 0;
#X connect 16 0 15 0;
#X connect 17 0 15 0;
#X connect 18 0 15 0;
#X connect 19 0 15 0;
#X connect 20 0 1 0;
#X connect 23 0 22 0;
#X connect 24 0 25 0;
#X connect 24 0 27 0;
#X connect 26 0 27 0;
#X connect 27 0 23 0;
#X connect 28 0 29 0;
#X connect 29 0 23 0;
#X connect 29 1 23 1;
#X connect 30 0 20 0;
#X connect 31 0 32 0;
#X restore 51 162 pd COLORFILTER;
#X obj 168 172 s Film_Length;
#X obj 334 315 pix_texture;
#X obj 335 358 translateXYZ;
#X obj 326 404 rectangle;
#X floatatom 413 333 5 0 0 0 - - -;
#X obj 334 291 pix_mask;
#X obj 333 256 pix_delay 2;
#X connect 1 0 3 0;
#X connect 3 0 65 0;
#X connect 3 1 21 0;
#X connect 3 1 22 0;
#X connect 4 0 3 0;
#X connect 5 0 0 0;
#X connect 6 0 10 0;
#X connect 7 0 8 0;
#X connect 7 0 18 0;
#X connect 8 0 9 0;
#X connect 9 0 5 1;
#X connect 10 0 11 0;
#X connect 11 0 5 0;
#X connect 12 0 15 0;
#X connect 13 0 12 0;
#X connect 13 0 80 1;
#X connect 14 0 13 0;
#X connect 15 0 0 0;
#X connect 16 0 15 0;
#X connect 17 0 19 0;
#X connect 18 0 17 0;
#X connect 20 0 15 0;
#X connect 23 0 60 0;
#X connect 24 0 60 0;
#X connect 25 0 58 0;
#X connect 26 0 27 0;
#X connect 27 0 23 0;
#X connect 28 0 25 0;
#X connect 29 0 60 1;
#X connect 30 0 60 0;
#X connect 31 0 32 1;
#X connect 32 0 40 0;
#X connect 33 0 34 1;
#X connect 34 0 40 0;
#X connect 35 0 36 0;
#X connect 36 0 33 0;
#X connect 37 0 38 0;
#X connect 38 0 31 0;
#X connect 39 0 40 1;
#X connect 40 0 51 0;
#X connect 40 0 48 0;
#X connect 41 0 42 0;
#X connect 42 0 39 0;
#X connect 43 0 44 1;
#X connect 44 0 0 0;
#X connect 45 0 46 0;
#X connect 46 0 43 0;
#X connect 47 0 48 1;
#X connect 48 0 5 0;
#X connect 49 0 47 0;
#X connect 50 0 51 1;
#X connect 51 0 0 0;
#X connect 52 0 50 0;
#X connect 53 0 52 0;
#X connect 54 0 3 0;
#X connect 55 0 3 0;
#X connect 56 0 3 0;
#X connect 57 0 3 0;
#X connect 58 0 66 0;
#X connect 59 0 58 1;
#X connect 60 0 82 0;
#X connect 60 1 61 0;
#X connect 61 0 62 0;
#X connect 61 0 83 0;
#X connect 61 1 63 0;
#X connect 61 2 64 0;
#X connect 61 2 71 0;
#X connect 65 0 40 0;
#X connect 66 0 60 1;
#X connect 67 0 66 0;
#X connect 68 0 59 0;
#X connect 69 0 66 3;
#X connect 72 0 60 0;
#X connect 73 0 74 0;
#X connect 74 0 16 0;
#X connect 74 0 80 0;
#X connect 75 0 76 0;
#X connect 76 0 30 0;
#X connect 77 0 78 0;
#X connect 78 0 1 0;
#X connect 80 0 12 0;
#X connect 81 0 60 0;
#X connect 82 0 34 0;
#X connect 84 0 85 0;
#X connect 85 0 86 0;
#X connect 87 0 85 3;
#X connect 88 0 84 0;
#X connect 89 0 88 0;
#X restore -291 11 pd framesIN;
#X obj -188 17 r bufWrite;
#X obj 55 117 r frameCounter;
#X obj 332 64 r steps;
#X obj 332 90 - 1;
#X obj -292 350 r imgResized;
#N canvas 667 370 334 323 RESIZE-IT 0;
#X obj -118 266 pix_resize;
#X obj -130 192 pix_buffer_read frame;
#X obj -138 152 gemhead;
#X text -228 214 read and resize frame from buffer;
#X obj -161 102 pack f f;
#X msg -161 126 dimen \$1 \$2;
#X obj -161 -7 r steps;
#X obj -12 153 r bufRead;
#X obj -161 47 t b f;
#X obj -118 293 s imgResized;
#X obj -7 222 r CleanVid;
#X obj -161 22 change;
#X obj -281 -2 r color_space;
#X obj -310 63 sel 0 1;
#X msg -310 106 15;
#X msg -277 100 16;
#X obj -165 76 f 15;
#X connect 0 0 9 0;
#X connect 1 0 0 0;
#X connect 2 0 1 0;
#X connect 4 0 5 0;
#X connect 5 0 0 0;
#X connect 6 0 11 0;
#X connect 7 0 1 1;
#X connect 8 0 16 0;
#X connect 8 1 4 1;
#X connect 10 0 0 0;
#X connect 11 0 8 0;
#X connect 12 0 13 0;
#X connect 13 0 14 0;
#X connect 13 1 15 0;
#X connect 14 0 16 0;
#X connect 15 0 16 0;
#X connect 16 0 4 0;
#X restore -290 323 pd RESIZE-IT;
#X obj 13 302 r posi;
#X msg 13 327 bang;
#X obj 381 246 r pix_groupN;
#N canvas 19 80 829 664 readPixels 0;
#X obj 44 193 pix_data;
#X text 116 189 GETS PIXELS VALUES FROM FRAME;
#X obj 32 480 send HSV3plet;
#X obj -31 411 loadbang;
#X obj 154 152 expr 1 - $f1/$f2;
#X obj 247 100 r steps;
#X obj 247 125 - 1;
#X obj 59 41 r imgResized;
#X obj 169 81 r posi;
#X obj 44 -82 r pix_groupN;
#X obj 138 331 print checkPixData;
#X obj 188 307 tgl 15 0 empty empty empty 17 7 0 10 -262144 -1 -1 0
1;
#X obj 133 308 spigot;
#X msg -28 438 0 0 0;
#X obj 346 338 unpack f f f;
#N canvas 0 0 450 300 (subpatch) 0;
#X array View-H 15 float 3;
#A 0 0.462963 0.264706 0.230159 0.188406 0.5 0.5 0 0 0.393939 0.132353
0.152778 0.202381 0.297619 0.333333 0.364583;
#X coords 0 1 15 0 120 140 1 0 0;
#X restore 650 -67 graph;
#X obj 351 411 t a b;
#N canvas 0 0 450 300 (subpatch) 0;
#X array View-S 15 float 3;
#A 0 0.0362903 0.133858 0.313433 0.410714 0.0509804 0.00392157 0 0
0.101382 0.523077 0.489796 0.0921053 0.164706 0.133333 0.103226;
#X coords 0 1 15 0 120 140 1 0 0;
#X restore 648 105 graph;
#X obj 573 409 t a b;
#X floatatom 515 328 5 0 0 0 - - -;
#X floatatom 515 371 10 0 0 0 - - -;
#N canvas 0 0 450 300 (subpatch) 0;
#X array View-V 15 float 3;
#A 0 0.972549 0.498039 0.262745 0.219608 1 1 1 1 0.85098 0.254902 0.192157
0.596078 0.333333 0.647059 0.607843;
#X coords 0 1 15 0 120 140 1 0 0;
#X restore 646 276 graph;
#X obj 316 476 tabwrite View-H;
#X obj 539 478 tabwrite View-V;
#X obj 467 413 t a b;
#X obj 429 479 tabwrite View-S;
#X obj 515 349 tabread View-H;
#X obj 346 314 spigot;
#X obj 363 284 tgl 15 0 empty empty empty 17 7 0 10 -262144 -1 -1 0
1;
#X text 382 280 Activate Vew Tables;
#X obj 154 110 f;
#X obj 44 -6 t b f b;
#X obj 171 -66 r pix_groupN-Vert;
#X msg 160 40 0.5;
#X obj 68 256 rgb2Y;
#X obj 51 423 mux 1 2;
#X obj 117 390 tgl 15 0 empty empty switch_HSV_HCY 17 7 0 10 -262144
-1 -1 0 1;
#X obj 137 271 rgb2hsv;
#X obj 66 87 / 14;
#X obj 198 21 / 14;
#X obj 360 444 counter 14;
#X obj 471 448 counter 14;
#X obj 580 440 counter 14;
#X obj 171 -33 t b b f;
#X floatatom 537 125 5 0 0 0 - - -;
#X floatatom 516 225 5 0 0 0 - - -;
#X obj 512 177 /;
#X msg 490 124 1;
#X connect 0 1 34 0;
#X connect 0 1 37 0;
#X connect 3 0 13 0;
#X connect 4 0 0 3;
#X connect 5 0 6 0;
#X connect 6 0 4 1;
#X connect 7 0 0 1;
#X connect 8 0 30 1;
#X connect 9 0 31 0;
#X connect 11 0 12 1;
#X connect 12 0 10 0;
#X connect 13 0 2 0;
#X connect 14 0 16 0;
#X connect 14 1 24 0;
#X connect 14 2 18 0;
#X connect 16 0 22 0;
#X connect 16 1 40 0;
#X connect 18 0 23 0;
#X connect 18 1 42 0;
#X connect 19 0 26 0;
#X connect 24 0 25 0;
#X connect 24 1 41 0;
#X connect 26 0 20 0;
#X connect 27 0 14 0;
#X connect 28 0 27 1;
#X connect 30 0 4 0;
#X connect 31 0 0 0;
#X connect 31 1 38 0;
#X connect 31 2 30 0;
#X connect 32 0 43 0;
#X connect 33 0 0 2;
#X connect 34 0 35 1;
#X connect 35 0 2 0;
#X connect 36 0 35 2;
#X connect 37 0 12 0;
#X connect 37 0 27 0;
#X connect 37 0 34 1;
#X connect 37 0 35 0;
#X connect 38 0 0 2;
#X connect 39 0 0 3;
#X connect 40 0 22 1;
#X connect 41 0 25 1;
#X connect 42 0 23 1;
#X connect 43 0 0 0;
#X connect 43 1 33 0;
#X connect 43 2 39 0;
#X connect 44 0 46 1;
#X connect 46 0 45 0;
#X connect 47 0 46 0;
#X restore -291 532 pd readPixels;
#X msg 427 72 \; bufWrite 1 \; bufRead 1 \; frameCounter bang \;;
#X obj 221 13 t f f;
#X obj -276 382 loadbang;
#X msg -277 403 quality 0;
#X obj 175 140 counter 479;
#X msg 63 54 \; NewFrame \$1 \; end_line bang \;;
#X floatatom 542 299 5 0 0 0 - - -;
#X obj 206 248 timer;
#X floatatom 202 273 10 0 0 0 - - -;
#X obj 203 227 b;
#X obj 238 222 b;
#X obj 202 296 s FrameScanTime;
#X msg 381 344 \; end_line bang \; NewFrame 1 \;;
#X obj 78 756 bng 15 250 50 0 empty empty empty 17 7 0 10 -262144 -1
-1;
#X obj 83 248 demux;
#X obj 109 228 tgl 15 0 empty empty empty 17 7 0 10 -262144 -1 -1 1
1;
#X obj 58 532 send pix_groupN-Vert;
#X obj 37 455 send pix_groupFULL;
#X obj 131 220 r scango;
#X obj 97 299 f;
#X obj 113 274 b;
#X msg -268 143 quality \$1;
#X obj -268 122 tgl 15 0 empty empty empty 0 -6 0 8 -262144 -1 -1 0
1;
#X obj 382 443 r posi;
#X obj 383 465 sel 0;
#X msg 384 489 1;
#X obj 384 512 s 0cross;
#X obj -291 300 rectangle 2.4 1.8;
#X floatatom -208 273 5 0 0 0 - - -;
#X floatatom -164 270 5 0 0 0 - - -;
#X obj -195 119 loadbang;
#X msg -196 140 quality 0;
#X obj 13 480 moses 15;
#X obj 58 507 - 15;
#X obj 379 276 sel 14;
#X msg 12 354 15;
#X text 40 354 triggers 15 pix-groups scan in each horizontal line
\,;
#X floatatom 550 239 5 0 0 0 - - -;
#X floatatom 528 268 5 0 0 0 - - -;
#X obj -186 414 spigot;
#X obj -189 338 r viewMode;
#X obj -184 374 == 0;
#X obj -114 85 r viewMode;
#X obj -113 136 == 0;
#X obj -114 168 * 2;
#X floatatom -116 219 5 0 0 0 - - -;
#X obj -112 112 t f f;
#X obj -72 135 == 1;
#X obj -73 167 * 1.42;
#X connect 0 0 22 0;
#X connect 1 0 2 0;
#X connect 2 0 4 0;
#X connect 2 0 60 0;
#X connect 2 0 75 0;
#X connect 3 0 1 0;
#X connect 3 1 5 0;
#X connect 4 0 2 1;
#X connect 5 0 2 1;
#X connect 8 0 44 0;
#X connect 10 0 13 0;
#X connect 11 0 10 1;
#X connect 13 0 24 0;
#X connect 14 0 24 2;
#X connect 15 0 18 0;
#X connect 17 0 43 0;
#X connect 18 0 47 0;
#X connect 22 0 23 0;
#X connect 24 0 70 0;
#X connect 25 0 31 0;
#X connect 25 0 80 0;
#X connect 26 0 10 0;
#X connect 27 0 55 0;
#X connect 28 0 27 1;
#X connect 29 0 47 3;
#X connect 31 0 28 0;
#X connect 32 0 26 0;
#X connect 33 0 10 1;
#X connect 35 0 36 0;
#X connect 36 0 47 4;
#X connect 37 0 82 0;
#X connect 39 0 40 0;
#X connect 40 0 78 0;
#X connect 41 0 77 0;
#X connect 44 0 48 0;
#X connect 44 1 18 1;
#X connect 45 0 46 0;
#X connect 46 0 0 0;
#X connect 47 0 57 0;
#X connect 47 2 52 0;
#X connect 47 3 16 0;
#X connect 47 3 53 0;
#X connect 49 0 28 0;
#X connect 50 0 51 0;
#X connect 51 0 54 0;
#X connect 52 0 50 0;
#X connect 53 0 50 1;
#X connect 57 0 19 0;
#X connect 57 0 62 1;
#X connect 57 1 63 0;
#X connect 58 0 57 1;
#X connect 61 0 58 0;
#X connect 62 0 19 0;
#X connect 63 0 62 0;
#X connect 64 0 13 0;
#X connect 65 0 64 0;
#X connect 66 0 67 0;
#X connect 67 0 68 0;
#X connect 68 0 69 0;
#X connect 71 0 70 1;
#X connect 72 0 70 2;
#X connect 73 0 74 0;
#X connect 74 0 13 0;
#X connect 75 0 30 0;
#X connect 75 1 76 0;
#X connect 76 0 59 0;
#X connect 77 0 27 0;
#X connect 78 0 3 0;
#X connect 81 0 31 0;
#X connect 82 0 0 0;
#X connect 83 0 84 0;
#X connect 84 0 82 1;
#X connect 85 0 89 0;
#X connect 86 0 87 0;
#X connect 87 0 14 0;
#X connect 88 0 24 3;
#X connect 89 0 86 0;
#X connect 89 1 90 0;
#X connect 90 0 91 0;
#X connect 91 0 88 0;
#X restore -442 127 pd VIDEO_MAIN;
#N canvas 685 140 488 374 keyboard_ctrl 0;
#X obj 4 -90 key;
#X obj 55 37 - 48;
#X obj 55 67 * -1;
#X obj 55 99 + 9;
#X obj 254 101 print ////////;
#X obj 257 75 bng 15 250 50 0 empty empty empty 17 7 0 10 -262144 -1
-1;
#X obj 82 130 sel 0 1 2 3 4 5 6 7 8 9;
#X obj 126 266 s ref_scale_rec;
#X msg 8 182 0;
#X msg 309 189 9;
#X msg 40 183 1;
#X msg 68 182 2;
#X msg 100 184 3;
#X msg 134 185 4;
#X msg 167 185 5;
#X msg 198 184 6;
#X msg 235 186 7;
#X msg 273 187 8;
#X obj 32 7 sel 32;
#X msg -67 101 \; vidORstill_init 1;
#X obj 15 -53 spigot;
#X obj 49 -72 r PerformanceMode;
#X obj 8 -23 t b f;
#X msg -126 18 \; NewFrame 1 \; reset_scan bang \;;
#X connect 0 0 20 0;
#X connect 1 0 2 0;
#X connect 2 0 3 0;
#X connect 3 0 6 0;
#X connect 5 0 4 0;
#X connect 6 0 8 0;
#X connect 6 1 10 0;
#X connect 6 2 11 0;
#X connect 6 3 12 0;
#X connect 6 4 13 0;
#X connect 6 5 14 0;
#X connect 6 6 15 0;
#X connect 6 7 16 0;
#X connect 6 8 17 0;
#X connect 6 9 9 0;
#X connect 8 0 7 0;
#X connect 9 0 7 0;
#X connect 10 0 7 0;
#X connect 11 0 7 0;
#X connect 12 0 7 0;
#X connect 13 0 7 0;
#X connect 14 0 7 0;
#X connect 15 0 7 0;
#X connect 16 0 7 0;
#X connect 17 0 7 0;
#X connect 18 0 19 0;
#X connect 18 1 1 0;
#X connect 20 0 22 0;
#X connect 21 0 20 1;
#X connect 22 0 23 0;
#X connect 22 1 18 0;
#X restore -324 -25 pd keyboard_ctrl;
#N canvas 657 84 607 643 img4ref_scale 0;
#X obj -40 10 r ref_scale_send;
#X obj 26 67 sel 0 1 2 3 4 5 6 7 8 9;
#X msg 134 149 \; vidORstill_init 0 \; img2load open ./images4ref_scale/1_orange.jpg
;
#X msg 120 202 \; vidORstill_init 0 \; img2load open ./images4ref_scale/2_yellow.jpg
;
#X msg 107 252 \; vidORstill_init 0 \; img2load open ./images4ref_scale/3_chartreuse.jpg
;
#X msg 94 308 \; vidORstill_init 0 \; img2load open ./images4ref_scale/4_green.jpg
;
#X msg 80 362 \; vidORstill_init 0 \; img2load open ./images4ref_scale/5_spring_green.jpg
;
#X msg 66 415 \; vidORstill_init 0 \; img2load open ./images4ref_scale/6_sky_blue.jpg
;
#X msg 54 470 \; vidORstill_init 0 \; img2load open ./images4ref_scale/7_slate_blue.jpg
;
#X msg 36 524 \; vidORstill_init 0 \; img2load open ./images4ref_scale/8_indigo.jpg
;
#X msg 21 578 \; vidORstill_init 0 \; img2load open ./images4ref_scale/9_violet.jpg
;
#X msg 153 93 \; vidORstill_init 0 \; img2load open ./images4ref_scale/0_red.jpg
;
#X connect 0 0 1 0;
#X connect 1 0 10 0;
#X connect 1 1 9 0;
#X connect 1 2 8 0;
#X connect 1 3 7 0;
#X connect 1 4 6 0;
#X connect 1 5 5 0;
#X connect 1 6 4 0;
#X connect 1 7 3 0;
#X connect 1 8 2 0;
#X connect 1 9 11 0;
#X restore -323 7 pd img4ref_scale;
#X restore 283 141 pd stuff;
#N canvas 736 79 450 663 HELP 0;
#X text 20 2 General Description scans vertically frames and outputs
the mean values of H S and V for 12 groups of pixels for each line
and/or gray value for gray pixels;
#X text 17 46 the frames in input are played in gray mode and/or in
color mode;
#X text 25 -19 <<<<<< SonarX >>>>>>;
#X text 12 513 * lowest_pitch: regulates the groundtone frequency;
#X text 14 91 * on/off_video: turns on the video capture;
#X text 14 116 * play_movement: resets a background image when ON and
plays all the pixel that differ from this background;
#X text 13 158 * input_image: switches between video or still image.
to load an image click on the bang "load_still_img" (only works with
still image mode);
#X text 13 206 * vertical_resize: sets the vertical resolution of input
images;
#X text 13 238 * device: choose different capturing device;
#X text 13 260 * color_space: switch between rgb and gray mode;
#X text 14 287 * on/off_OSC: turns on/off udp/OSC connection it connects
video patch to sound patch OBS: by default osundpatch is on Localhost
9998 \, change to your IP adress if you want to link different computers
;
#X text 13 347 * scan_time: controls the "delay/pause" between each
row of played pixels;
#X text 12 381 * reset_scan: resets the scanning to the top;
#X text 13 402 * Gray_Mode: Controls the modes of playing gray (zero
Saturation) pixels: 0 - no sound 1 - white noise 2 - sawtooth wave
at f0/2 frequency 3 - plays white noise AND sawtooth;
#X text 13 461 * on/off_sound: turns on the sound in the sound patch
;
#X text 12 483 * Escalas: chooses different scales (frequency ranges)
for Hue;
#X text 11 533 * SustainTime: controls the sustain. "Hold" lets the
sound play when the scanning stops;
#X text 155 -19 Lab.I.O. (Mick Mengucci & Francisco X Medeiros);
#X text 11 565 * click_on/off: turns on/off the click at the beginning
of the frame;
#X text 10 592 * save_sound: records audio output into a stereo recording
;
#X text 16 608 * keyboard: use keyboard to hear notes of the reference
colors sounds \, press space bar to return to video analysis;
#X restore 287 115 pd HELP;
#N canvas 1 81 450 300 CREDITS 0;
#X text 23 65 NOTE: this is a prototype \, created during the investigation
project SeeThroughSound for the FCT-UNL Faculdade de Ciencias e Tecnologia
(UTA-Exp/MAI/0025/2009 of FCT Portugal). In case of bugs and if it
is usefull to you please email mengucci@gmail.com;
#X restore 273 165 pd CREDITS;
