#N canvas 66 240 1174 379 10;
#X obj 404 -3218 throw~ L;
#X obj 474 -3218 throw~ R;
#X obj 16 -3334 pan~;
#X obj 37 -3382 loadbang;
#X obj 855 -3329 pan~;
#X obj 880 -3382 loadbang;
#X msg 879 -3352 45;
#X obj 88 -3333 pan~;
#X obj 109 -3381 loadbang;
#X msg 109 -3356 -37.5;
#X obj 164 -3336 pan~;
#X obj 175 -3384 loadbang;
#X msg 175 -3359 -30;
#X obj 230 -3334 pan~;
#X obj 239 -3382 loadbang;
#X msg 239 -3357 -22.5;
#X obj 306 -3334 pan~;
#X obj 319 -3382 loadbang;
#X msg 319 -3357 -15;
#X obj 383 -3332 pan~;
#X obj 406 -3378 loadbang;
#X msg 406 -3353 -7.5;
#X obj 772 -3331 pan~;
#X obj 797 -3384 loadbang;
#X msg 796 -3354 37.5;
#X obj 698 -3331 pan~;
#X obj 722 -3381 loadbang;
#X msg 722 -3354 30;
#X obj 609 -3326 pan~;
#X obj 634 -3379 loadbang;
#X msg 633 -3349 22.5;
#X obj 539 -3327 pan~;
#X obj 564 -3380 loadbang;
#X msg 563 -3350 15;
#X obj 465 -3327 pan~;
#X obj 490 -3380 loadbang;
#X msg 37 -3357 -45;
#X msg 489 -3350 7.5;
#X obj 841 -3238 vsl 15 128 0 1 0 0 empty empty empty 0 -9 0 10 -262144
-1 -1 10600 1;
#X obj 725 -3237 catch~ R;
#X obj 656 -3237 catch~ L;
#X obj 726 -3180 hip~ 5;
#X obj 658 -3180 hip~ 5;
#X obj 909 -3193 line;
#X obj 903 -3254 sel 0;
#X msg 889 -3231 0 500;
#X text 889 -3173 Volume (on/off) receives state;
#X msg 930 -3231 0.3 50;
#N canvas 98 95 450 300 tik 0;
#X obj 189 11 r 0cross;
#X obj 123 241 throw~ L;
#X obj 185 239 throw~ R;
#X obj 68 51 noise~;
#X obj 151 141 *~;
#X obj 200 118 vline~;
#X obj 66 82 hip~ 500;
#X obj 63 111 lop~ 7000;
#X msg 200 88 1 \, 0 0 10;
#X obj 281 18 r tikOnOff;
#X obj 207 57 spigot;
#X connect 0 0 10 0;
#X connect 3 0 6 0;
#X connect 4 0 1 0;
#X connect 4 0 2 0;
#X connect 5 0 4 1;
#X connect 6 0 7 0;
#X connect 7 0 4 0;
#X connect 8 0 5 0;
#X connect 9 0 10 1;
#X connect 10 0 8 0;
#X restore 1007 -3400 pd tik;
#N canvas 576 114 646 571 record 0;
#X obj 48 -2949 timer;
#X floatatom 49 -2898 10 0 0 0 - - -;
#X msg 49 -2876 resize \$1;
#X msg -164 -2996 start;
#X msg 160 -2793 stop;
#X obj 103 -2576 soundfiler;
#X obj 103 -2631 makefilename %s.wav;
#X obj 125 -2716 time;
#X obj 11 -2803 s grava;
#X obj -55 -3115 r save_sound;
#X msg -21 -2912 const 0;
#X obj -87 -2882 line~;
#X obj -116 -2799 *~;
#X msg -115 -2932 0 \, 1 300;
#X obj -136 -2881 inlet~;
#X obj -39 -3095 sel 1 0;
#X obj 107 -2682 pack f f f;
#X msg 104 -2657 symbol \$0_\$1_\$2;
#X obj -152 -2604 loadbang;
#X obj 19 -2602 s grava;
#X text 235 -3078 resize AFTER the stop of recording;
#X obj 72 -2841 print;
#X msg -67 -2628 resize 999999;
#X obj -126 -3061 t b b b b;
#X obj 49 -2924 * 44.1;
#X msg 246 -2838 normalize -1 \, 1;
#X obj 114 -3058 t b b b b b;
#X msg -64 -2909 0 50;
#X obj -149 -2710 table gravaL;
#X obj -149 -2689 table gravaR;
#X obj -43 -2743 tabwrite~ gravaL;
#X obj -52 -2713 tabwrite~ gravaR;
#X obj -44 -2851 inlet~;
#X obj -68 -2805 *~;
#X msg 103 -2604 write -wave \$1 gravaL gravaR;
#X connect 0 0 24 0;
#X connect 1 0 2 0;
#X connect 2 0 8 0;
#X connect 2 0 21 0;
#X connect 3 0 30 0;
#X connect 3 0 31 0;
#X connect 4 0 30 0;
#X connect 4 0 31 0;
#X connect 6 0 34 0;
#X connect 7 0 16 0;
#X connect 7 1 16 1;
#X connect 7 2 16 2;
#X connect 9 0 15 0;
#X connect 10 0 8 0;
#X connect 11 0 12 1;
#X connect 11 0 33 1;
#X connect 12 0 30 0;
#X connect 13 0 11 0;
#X connect 14 0 12 0;
#X connect 15 0 23 0;
#X connect 15 1 26 0;
#X connect 16 0 17 0;
#X connect 17 0 6 0;
#X connect 18 0 22 0;
#X connect 22 0 19 0;
#X connect 23 0 3 0;
#X connect 23 1 13 0;
#X connect 23 2 0 0;
#X connect 23 3 10 0;
#X connect 24 0 1 0;
#X connect 25 0 8 0;
#X connect 26 0 7 0;
#X connect 26 1 25 0;
#X connect 26 2 0 1;
#X connect 26 3 4 0;
#X connect 26 4 27 0;
#X connect 27 0 11 0;
#X connect 32 0 33 0;
#X connect 33 0 31 0;
#X connect 34 0 5 0;
#X restore 648 -3120 pd record;
#X obj 901 -3285 r state;
#X text 987 -3385 subpatch 4 the scan click;
#N canvas 15 82 977 586 cor_sample 0;
#X obj -75 52 table cor_sample;
#X obj 202 536 soundfiler;
#X msg 310 193 read -resize ./coresWav/0_vermelho.wav cor_sample;
#X msg 329 217 read -resize ./coresWav/1_laranja.wav cor_sample;
#X msg 344 238 read -resize ./coresWav/2_amarelo.wav cor_sample;
#X msg 357 268 read -resize ./coresWav/3_verdeLima.wav cor_sample;
#X msg 372 298 read -resize ./coresWav/4_verde.wav cor_sample;
#X msg 384 329 read -resize ./coresWav/5_verdePrimavera.wav cor_sample
;
#X msg 392 356 read -resize ./coresWav/6_azulCeleste.wav cor_sample
;
#X msg 400 380 read -resize ./coresWav/7_azulCiao.wav cor_sample;
#X msg 406 413 read -resize ./coresWav/8_indigo.wav cor_sample;
#X msg 414 446 read -resize ./coresWav/9_violeta.wav cor_sample;
#X obj 102 72 r ref_scale;
#X obj 127 96 t b a;
#X obj -67 198 tabplay~ cor_sample;
#X obj 31 248 throw~ R;
#X obj -83 245 throw~ L;
#X obj 134 148 sel 9 8 7 6 5 4 3 2 1 0;
#X obj 55 130 delay 500;
#X connect 2 0 1 0;
#X connect 3 0 1 0;
#X connect 4 0 1 0;
#X connect 5 0 1 0;
#X connect 6 0 1 0;
#X connect 7 0 1 0;
#X connect 8 0 1 0;
#X connect 9 0 1 0;
#X connect 10 0 1 0;
#X connect 11 0 1 0;
#X connect 12 0 13 0;
#X connect 13 0 18 0;
#X connect 13 1 17 0;
#X connect 14 0 15 0;
#X connect 14 0 16 0;
#X connect 17 0 2 0;
#X connect 17 1 3 0;
#X connect 17 2 4 0;
#X connect 17 3 5 0;
#X connect 17 4 6 0;
#X connect 17 5 7 0;
#X connect 17 6 8 0;
#X connect 17 7 9 0;
#X connect 17 8 10 0;
#X connect 17 9 11 0;
#X connect 18 0 14 0;
#X restore 1008 -3360 pd cor_sample;
#X obj 741 -3121 dac~;
#X obj 383 -3412 playHSV 6;
#X obj 475 -3408 playHSV 7;
#X obj 556 -3408 playHSV 8;
#X obj 859 -3409 playHSV 12;
#X obj 704 -3405 playHSV 10;
#X obj 233 -3413 playHSV 4;
#X obj 21 -3408 playHSV 1;
#X obj 783 -3409 playHSV 11;
#X obj 90 -3411 playHSV 2;
#X obj 305 -3409 playHSV 5;
#X obj 636 -3406 playHSV 9;
#X obj 165 -3414 playHSV 3;
#X obj 28 -3112 tabwrite midi4th_scale;
#X msg 28 -3156 36 0 \, 41 1 \, 46 2 \, 51 3 \, 56 4 \, 61 5 \, 66
6 \, 71 7 \, 76 8 \, 81 9 \, 86 10 \, 91 11 \,;
#X obj 28 -3182 loadbang;
#X obj 152 -3182 table midi4th_scale;
#X obj 657 -3212 *~ 0.8;
#X obj 726 -3212 *~ 0.8;
#X connect 2 0 0 0;
#X connect 2 1 1 0;
#X connect 3 0 36 0;
#X connect 4 0 0 0;
#X connect 4 1 1 0;
#X connect 5 0 6 0;
#X connect 6 0 4 1;
#X connect 7 0 0 0;
#X connect 7 1 1 0;
#X connect 8 0 9 0;
#X connect 9 0 7 1;
#X connect 10 0 0 0;
#X connect 10 1 1 0;
#X connect 11 0 12 0;
#X connect 12 0 10 1;
#X connect 13 0 0 0;
#X connect 13 1 1 0;
#X connect 14 0 15 0;
#X connect 15 0 13 1;
#X connect 16 0 0 0;
#X connect 16 1 1 0;
#X connect 17 0 18 0;
#X connect 18 0 16 1;
#X connect 19 0 0 0;
#X connect 19 1 1 0;
#X connect 20 0 21 0;
#X connect 21 0 19 1;
#X connect 22 0 0 0;
#X connect 22 1 1 0;
#X connect 23 0 24 0;
#X connect 24 0 22 1;
#X connect 25 0 0 0;
#X connect 25 1 1 0;
#X connect 26 0 27 0;
#X connect 27 0 25 1;
#X connect 28 0 0 0;
#X connect 28 1 1 0;
#X connect 29 0 30 0;
#X connect 30 0 28 1;
#X connect 31 0 0 0;
#X connect 31 1 1 0;
#X connect 32 0 33 0;
#X connect 33 0 31 1;
#X connect 34 0 0 0;
#X connect 34 1 1 0;
#X connect 35 0 37 0;
#X connect 36 0 2 1;
#X connect 37 0 34 1;
#X connect 38 0 70 1;
#X connect 38 0 71 1;
#X connect 39 0 71 0;
#X connect 40 0 70 0;
#X connect 41 0 53 1;
#X connect 41 0 49 1;
#X connect 42 0 49 0;
#X connect 42 0 53 0;
#X connect 43 0 38 0;
#X connect 44 0 45 0;
#X connect 44 1 47 0;
#X connect 45 0 43 0;
#X connect 47 0 43 0;
#X connect 50 0 44 0;
#X connect 54 0 19 0;
#X connect 55 0 34 0;
#X connect 56 0 31 0;
#X connect 57 0 4 0;
#X connect 58 0 25 0;
#X connect 59 0 13 0;
#X connect 60 0 2 0;
#X connect 61 0 22 0;
#X connect 62 0 7 0;
#X connect 63 0 16 0;
#X connect 64 0 28 0;
#X connect 65 0 10 0;
#X connect 67 0 66 0;
#X connect 68 0 67 0;
#X connect 70 0 42 0;
#X connect 71 0 41 0;
